<?xml version="1.0" encoding="UTF-8"?>
<!DOCTYPE svg PUBLIC "-//W3C//DTD SVG 1.1//EN" "http://www.w3.org/Graphics/SVG/1.1/DTD/svg11.dtd">
<!-- Creator: CorelDRAW 2020 (64-Bit) -->
<svg xmlns="http://www.w3.org/2000/svg" xml:space="preserve" width="149.752mm" height="177.8mm" version="1.1" style="shape-rendering:geometricPrecision; text-rendering:geometricPrecision; image-rendering:optimizeQuality; fill-rule:evenodd; clip-rule:evenodd"
viewBox="0 0 854.06 1014.02"
 xmlns:xlink="http://www.w3.org/1999/xlink"
 xmlns:xodm="http://www.corel.com/coreldraw/odm/2003">
 <defs>
  <style type="text/css">
   <![CDATA[
    .fil0 {fill:#2B2A29}
   ]]>
  </style>
 </defs>
 <g id="Layer_x0020_1">
  <metadata id="CorelCorpID_0Corel-Layer"/>
  <path class="fil0" d="M322.72 338.03c-100.16,-2.89 -128.24,-120.96 -59.16,-173.92 32.35,-24.79 83.13,-26.25 116.42,-2.02 41.8,30.41 39.4,66.6 39.41,113.85 -40.55,1.99 -67.61,-17.65 -80.91,-54.68 -8.47,0.52 -23.43,5.39 -30.05,10.11 11.09,46.02 64.14,77.1 110.92,76.44l0.04 129.74c-33.16,-19.37 -56.71,-23.29 -94.16,-8.56 -56.34,22.16 -77.16,91.81 -132.39,71.1 -11.07,-4.15 -7.78,-6.11 -11.5,-16.65 -10.11,-28.58 -37.86,-47.14 -67.89,-48.94l0.46 31.92c24.29,3.83 39.91,12.93 39.78,40.58 -0.13,27.89 -15.26,36.63 -40.15,40.62l0.06 31.75c37.01,-1.73 51.28,-20.52 68.33,-48.41 25.68,2.78 32.7,7.51 59.45,-2.68 41.58,-15.83 54.6,-42.57 76.73,-60.1 31.63,-25.05 68.4,-26.06 94.42,9.47 12.02,16.42 6.65,41.9 6.81,61.57 0.33,39.57 3.31,98.84 -0.46,136.35 -26.86,-0.35 -50.66,6.71 -71.59,22.97 -14.71,11.42 -35.15,33.83 -38.8,54.55l28.37 9.53c10.25,-12.3 10.89,-28.07 28.39,-40.09 18.83,-12.94 30.6,-16.18 54.16,-15.1 -0.01,54.29 7.12,104.25 -42.08,139.83 -39.7,28.7 -98.33,29.22 -138.38,1.16 -71.97,-50.42 -66.17,-188.53 83.77,-188.55 0,-28.76 -3.19,-70.77 48.32,-80.65l-0.06 -31.89c-20.55,0.94 -40.85,14.8 -54.09,28.24 -16.94,17.19 -21.95,29.35 -27.19,53.29 -34.29,3.92 -69.64,21.58 -90.76,47.33 -27.94,-5.11 -48.77,-19.52 -53.58,-48.31l-31.75 -0.07c1.31,46.36 41.04,61.65 63.36,76.38 -12.04,39.19 -17.71,36.77 -13.28,82.76 -69.22,-4.72 -107.38,-77.54 -97.61,-142.04 2.88,-18.98 6.22,-14.58 -4.12,-29.98 -30.56,-45.55 -36.34,-107.76 -20.18,-159.48 20.47,-65.54 59.98,-70.76 75.51,-83.23 -6.22,-36.14 -4.37,-60.91 13.29,-93.56 12.55,-23.2 36.6,-44.87 63.78,-50.01 -0.74,17.06 0.09,33.14 5.25,49.44 4.53,14.31 12.1,24.04 16.42,35.79 -28.53,19.52 -51.59,33.09 -54.28,72.48l31.91 -0.44c6.03,-35.89 40.94,-50.77 52.82,-42.1 24.46,17.85 45.23,25.43 76.22,26.31l0.05 -32.08zm312.19 -159.63c45.53,-12.86 56.9,51.99 20.52,61.66 -46.3,12.3 -59.15,-50.75 -20.52,-61.66zm-183.24 561.99l-0.2 -64.44 32.28 0.01 -0.09 -32.14 -32.17 0.05 -0.02 -48.4 32.28 0.01 -0.09 -32.14 -32.17 0.05 -0.02 -48.38 64.47 0.12 -0.09 -32.28 -64.36 0.06 -0.02 -48.4 32.28 0.01 -0.09 -32.14 -32.17 0.05 -0.02 -48.39c14.87,0 81.09,2.52 89.41,-1.24 6.86,-3.1 30.76,-38.33 41.41,-46.34l32.92 -40.29c65.52,31.93 127.28,-48.3 73.24,-102.73 -22.48,-22.65 -59.69,-26.5 -83.58,-4.06 -32.96,30.95 -29.08,51.68 -14.57,84.25l-36.59 44.07 -26.74 34.22 -75.49 0.04 0.19 -64.43 -0.16 -160.96 -32.19 0 0 58.35c-14.29,-9.45 -23.88,-23.86 -50.55,-33.95 -45.14,-17.07 -93.22,-8.62 -129.94,22.46 -26.32,22.28 -33.42,47.35 -36.83,49.68 -3.29,2.26 -120.69,18.6 -120.69,160.98 -30.44,20.15 -48.21,39.96 -62.95,73.87 -15.44,35.53 -22.55,81.4 -15.87,119.62 12.52,71.6 33.1,65.46 30.43,102.15 -2.81,38.7 3.49,74.46 27.64,107.36 21.75,29.64 43.34,46.79 78.83,57.99 31.03,9.79 25.38,-5.53 45.31,23.1 42.13,60.53 123.92,83.25 195.02,43.69 17.56,-9.77 25.23,-20.27 39.59,-30.83l0 66.39 32.19 0 0.15 -177.05z"/>
  <path class="fil0" d="M763.67 291.08c45.53,-12.86 56.9,51.99 20.52,61.66 -46.3,12.3 -59.15,-50.75 -20.52,-61.66zm-131.17 67.05c-3.37,11.48 -21.37,31.67 -27.81,44.23l-24.36 0.01 0.01 32.16 38.17 0.02c12.31,-6.23 22.05,-35.97 34.2,-44.1l34.68 -52.11 21.65 -0.33c1.96,2.24 -0.15,-0.86 2.57,3.47l8.31 15.83c38.06,55.94 118.04,24.6 118.04,-35.4 0,-29.81 -25.83,-61.89 -56.51,-64.37 -24.38,-1.97 -47.66,8.58 -61.53,28.97 -1.76,2.59 -3.41,6.37 -4.82,9.26l-6.06 10.04 -40.24 0 -36.31 52.31z"/>
  <path class="fil0" d="M741.94 684.06c-9.36,-47.83 56.47,-53.56 63.01,-15.45 8.24,48 -55.86,52.01 -63.01,15.45zm-109.4 -44.26c6.91,4.46 29.96,42.66 36.27,52.31l40.24 0c6.99,8.01 19.42,52.55 72.4,48.27 30.44,-2.46 56.51,-34.68 56.51,-64.37 0,-29.81 -25.83,-61.89 -56.51,-64.36 -16.84,-1.36 -34.03,2.25 -46.78,13.53 -22.84,20.21 -16.1,23.84 -25.62,34.74l-22.13 0 -34.2 -53.6c-7,-5.6 -24.3,-33.39 -29.3,-42.9l-43.16 -0.02 0.09 32.09 24.04 0.17c6.66,6.53 26.3,34.6 28.16,44.15z"/>
  <path class="fil0" d="M613.18 828.92c-8.2,-49.27 56.65,-52.56 63.05,-15.53 8.35,48.32 -57.02,51.71 -63.05,15.53zm-64.6 -116.69l45.86 68.46c-47.73,69.34 37.43,133.31 87.92,91.97 44.25,-36.24 29.68,-89.92 -11.48,-110.18 -20.13,-9.91 -29.92,-6.77 -50.35,-1.96 -8.26,-16.45 -38.92,-53.79 -42.25,-65.89 -7.4,-4.9 -30.34,-41.07 -35.37,-50.75l-26.91 0 -0.34 30.32c10.83,5.89 4.05,-6.41 19.31,17 4.64,7.12 9.77,13.59 13.62,21.04z"/>
  <path class="fil0" d="M779.77 468.13c45.54,-12.86 56.9,52.05 20.51,61.66 -46.38,12.25 -59.09,-50.77 -20.51,-61.66zm-102.91 14.76l-64.33 0.01 -0.05 32.11 64.38 0.2 48.29 -0.16 5.41 8.69c1.68,3.37 3.41,7.61 5.47,10.63 38.06,55.94 118.04,24.6 118.04,-35.4 0,-51.87 -63.96,-85.63 -103.3,-50.84 -10.56,9.34 -13.9,13.04 -19.56,24.7l-6.06 10.04 -48.29 0.02z"/>
  <polygon class="fil0" points="419.33,64.38 451.52,64.38 451.52,0 419.33,0 "/>
  <polygon class="fil0" points="419.33,1014.02 451.52,1014.02 451.52,949.64 419.33,949.64 "/>
  <polygon class="fil0" points="548.18,515.02 568.22,515.02 580.24,515.01 580.24,502.99 580.35,482.92 548.01,482.83 "/>
  <polygon class="fil0" points="515.82,595.61 527.98,595.49 548.04,595.49 548.02,575.42 548.18,563.27 536.02,563.4 515.96,563.4 515.98,583.47 "/>
  <polygon class="fil0" points="515.96,422.51 515.83,434.66 527.98,434.5 548.04,434.53 548.04,414.46 548.17,402.31 536.02,402.47 515.96,402.44 "/>
 </g>
</svg>
