<svg width="492" height="475" viewBox="0 0 492 475" fill="none" xmlns="http://www.w3.org/2000/svg">
<g clip-path="url(#clip0)">
<path fill-rule="evenodd" clip-rule="evenodd" d="M219.287 299.846C209.759 299.571 207.088 288.353 213.66 283.322C216.737 280.966 221.567 280.828 224.734 283.13C228.71 286.02 228.482 289.458 228.482 293.947C224.625 294.136 222.052 292.27 220.786 288.752C219.981 288.802 218.557 289.264 217.928 289.712C218.983 294.085 224.029 297.037 228.478 296.975L228.482 309.301C225.328 307.46 223.088 307.088 219.525 308.488C214.167 310.593 212.186 317.211 206.932 315.243C205.879 314.849 206.192 314.662 205.838 313.661C204.876 310.946 202.237 309.182 199.38 309.011L199.424 312.043C201.735 312.407 203.221 313.272 203.208 315.899C203.196 318.548 201.757 319.379 199.389 319.758L199.395 322.774C202.915 322.61 204.273 320.825 205.894 318.175C208.337 318.439 209.004 318.888 211.549 317.92C215.504 316.416 216.743 313.875 218.848 312.21C221.856 309.83 225.354 309.734 227.829 313.109C228.972 314.669 228.461 317.091 228.477 318.959C228.508 322.718 228.792 328.349 228.433 331.913C225.878 331.88 223.614 332.551 221.622 334.096C220.224 335.181 218.279 337.31 217.932 339.279L220.63 340.185C221.605 339.016 221.666 337.518 223.331 336.376C225.122 335.146 226.241 334.838 228.482 334.942C228.481 340.099 229.16 344.847 224.48 348.227C220.704 350.954 215.127 351.003 211.316 348.337C204.47 343.546 205.023 330.425 219.285 330.423C219.285 327.69 218.981 323.699 223.881 322.76L223.875 319.73C221.921 319.82 219.989 321.137 218.73 322.413C217.118 324.047 216.642 325.202 216.144 327.476C212.882 327.849 209.52 329.527 207.511 331.973C204.853 331.488 202.872 330.118 202.414 327.383L199.394 327.377C199.518 331.781 203.297 333.234 205.421 334.634C204.275 338.357 203.736 338.128 204.158 342.497C197.573 342.049 193.943 335.131 194.873 329.002C195.147 327.198 195.464 327.617 194.481 326.153C191.574 321.826 191.025 315.915 192.561 311.001C194.508 304.774 198.266 304.278 199.743 303.093C199.151 299.66 199.327 297.306 201.008 294.204C202.201 292 204.489 289.941 207.075 289.452C207.005 291.072 207.084 292.6 207.574 294.149C208.005 295.509 208.725 296.433 209.136 297.55C206.422 299.404 204.228 300.693 203.972 304.436L207.007 304.394C207.581 300.984 210.901 299.571 212.032 300.395C214.358 302.091 216.334 302.811 219.282 302.894L219.287 299.846V299.846ZM248.983 284.68C253.314 283.458 254.395 289.619 250.934 290.538C246.53 291.707 245.307 285.716 248.983 284.68ZM231.553 338.074L231.534 331.952L234.604 331.953L234.596 328.899L231.536 328.904L231.534 324.305L234.605 324.306L234.596 321.253L231.536 321.257L231.534 316.661L237.667 316.673L237.658 313.605L231.536 313.611L231.534 309.013L234.605 309.014L234.596 305.961L231.536 305.965L231.534 301.367C232.949 301.367 239.247 301.607 240.039 301.25C240.692 300.955 242.965 297.607 243.979 296.847L247.11 293.019C253.342 296.053 259.217 288.43 254.076 283.258C251.938 281.106 248.399 280.741 246.126 282.872C242.991 285.813 243.36 287.782 244.74 290.877L241.259 295.064L238.716 298.315L231.535 298.319L231.554 292.197L231.539 276.905H228.477V282.448C227.118 281.55 226.206 280.181 223.669 279.222C219.375 277.6 214.802 278.404 211.309 281.357C208.805 283.474 208.13 285.855 207.806 286.077C207.492 286.292 196.326 287.845 196.326 301.372C193.431 303.287 191.74 305.169 190.338 308.391C188.87 311.766 188.193 316.124 188.829 319.756C190.02 326.559 191.977 325.975 191.724 329.462C191.456 333.139 192.056 336.536 194.353 339.663C196.422 342.479 198.475 344.108 201.851 345.172C204.803 346.102 204.265 344.647 206.161 347.366C210.168 353.117 217.948 355.276 224.712 351.517C226.382 350.589 227.111 349.591 228.477 348.588V354.896H231.539L231.553 338.074L231.553 338.074Z" fill="#2B2A29"/>
<path fill-rule="evenodd" clip-rule="evenodd" d="M261.231 295.384C265.562 294.163 266.644 300.324 263.182 301.243C258.778 302.412 257.556 296.421 261.231 295.384ZM248.754 301.755C248.434 302.845 246.721 304.764 246.108 305.957L243.792 305.958L243.793 309.014L247.423 309.015C248.595 308.423 249.521 305.598 250.677 304.825L253.976 299.874L256.035 299.843C256.221 300.056 256.021 299.761 256.279 300.173L257.07 301.677C260.69 306.992 268.298 304.014 268.298 298.314C268.298 295.482 265.841 292.434 262.922 292.199C260.603 292.012 258.389 293.014 257.07 294.951C256.902 295.197 256.745 295.556 256.611 295.831L256.035 296.785H252.208L248.754 301.755H248.754Z" fill="#2B2A29"/>
<path fill-rule="evenodd" clip-rule="evenodd" d="M259.164 332.722C258.273 328.178 264.535 327.633 265.158 331.254C265.942 335.815 259.845 336.196 259.164 332.722ZM248.758 328.516C249.415 328.941 251.608 332.57 252.208 333.486H256.035C256.7 334.247 257.883 338.479 262.922 338.073C265.817 337.839 268.298 334.777 268.298 331.957C268.298 329.125 265.841 326.077 262.922 325.842C261.32 325.713 259.685 326.056 258.472 327.127C256.299 329.047 256.941 329.392 256.035 330.428H253.93L250.677 325.335C250.011 324.803 248.365 322.163 247.889 321.259L243.783 321.257L243.792 324.306L246.079 324.322C246.713 324.942 248.581 327.609 248.758 328.516Z" fill="#2B2A29"/>
<path fill-rule="evenodd" clip-rule="evenodd" d="M246.916 346.485C246.136 341.804 252.304 341.491 252.913 345.01C253.707 349.601 247.489 349.922 246.916 346.485ZM240.771 335.398L245.134 341.902C240.594 348.49 248.694 354.568 253.496 350.64C257.706 347.197 256.32 342.096 252.404 340.172C250.489 339.23 249.558 339.528 247.614 339.986C246.828 338.423 243.913 334.875 243.595 333.725C242.891 333.26 240.709 329.823 240.231 328.904L237.671 328.904L237.639 331.785C238.669 332.344 238.024 331.176 239.475 333.399C239.917 334.076 240.404 334.69 240.771 335.398L240.771 335.398Z" fill="#2B2A29"/>
<path fill-rule="evenodd" clip-rule="evenodd" d="M262.762 312.206C267.094 310.984 268.174 317.152 264.713 318.065C260.302 319.228 259.092 313.241 262.762 312.206ZM252.973 313.608L246.854 313.609L246.849 316.66L252.973 316.679L257.566 316.664L258.081 317.489C258.241 317.809 258.405 318.212 258.601 318.499C262.221 323.814 269.829 320.836 269.829 315.136C269.829 310.208 263.745 307 260.003 310.306C258.998 311.194 258.681 311.545 258.142 312.652L257.566 313.606L252.973 313.608L252.973 313.608Z" fill="#2B2A29"/>
<path fill-rule="evenodd" clip-rule="evenodd" d="M228.477 273.846H231.539V267.729H228.477V273.846Z" fill="#2B2A29"/>
<path fill-rule="evenodd" clip-rule="evenodd" d="M228.477 364.072H231.539V357.955H228.477V364.072Z" fill="#2B2A29"/>
<path fill-rule="evenodd" clip-rule="evenodd" d="M240.733 316.661L242.639 316.662L243.782 316.66V315.518L243.792 313.611L240.717 313.603L240.733 316.661Z" fill="#2B2A29"/>
<path fill-rule="evenodd" clip-rule="evenodd" d="M237.655 324.318L238.811 324.306H240.72L240.717 322.399L240.733 321.245L239.577 321.258L237.668 321.257L237.67 323.164L237.655 324.318Z" fill="#2B2A29"/>
<path fill-rule="evenodd" clip-rule="evenodd" d="M237.668 307.872L237.656 309.026L238.811 309.011L240.72 309.014V307.107L240.732 305.952L239.577 305.967L237.668 305.965V307.872Z" fill="#2B2A29"/>
<path fill-rule="evenodd" clip-rule="evenodd" d="M365.878 431.817C366.139 433.472 366.276 435.16 366.276 436.839C366.276 437.981 366.213 439.123 366.092 440.257L372.588 444.605L367.927 456.644L360.186 455.521C358.537 457.804 356.574 459.861 354.373 461.62L355.886 469.299L344.047 474.531L339.44 468.297C337.784 468.562 336.1 468.695 334.419 468.695C333.279 468.695 332.136 468.633 331.004 468.512L326.638 475L314.584 470.345L315.722 462.613C313.435 460.962 311.37 459 309.6 456.805L301.926 458.317L296.582 446.439L302.85 441.77C302.588 440.135 302.455 438.475 302.455 436.818C302.455 435.658 302.524 434.494 302.649 433.341L296.14 429.048L300.8 417.008L308.542 418.145C310.204 415.86 312.166 413.8 314.368 412.031L312.855 404.366L324.707 399.082L329.381 405.343C331.019 405.082 332.687 404.948 334.346 404.948C335.508 404.948 336.68 405.017 337.834 405.143L342.187 398.642L354.24 403.297L353.115 411.029C355.398 412.681 357.462 414.646 359.223 416.846L366.911 415.334L372.161 427.146L365.879 431.815L365.878 431.817H365.878ZM347.301 431.723C345.077 426.708 340.097 423.473 334.605 423.473C326.936 423.473 320.716 429.685 320.716 437.346C320.716 445.006 326.936 451.218 334.605 451.218C336.546 451.218 338.469 450.81 340.243 450.024C345.258 447.798 348.493 442.828 348.493 437.346C348.493 435.41 348.087 433.491 347.301 431.723V431.723V431.723Z" fill="#13F7D2"/>
<path d="M93.234 99.0382H84.5821C84.3656 99.0168 84.1466 99.0063 83.9281 99.0063C83.2412 99.0063 82.5578 99.1125 81.9038 99.3191C81.0323 99.6721 80.3081 100.315 79.855 101.139C79.6209 101.555 79.4522 102.007 79.3588 102.476C79.3391 102.728 79.3286 102.985 79.3286 103.239C79.3286 103.492 79.3391 103.749 79.3588 104.002V105.58C79.3635 105.689 79.3664 105.801 79.3664 105.911C79.3664 106.351 79.3272 106.792 79.2516 107.225C79.0093 108.373 78.3138 109.377 77.3233 110.008C76.8048 110.353 76.2129 110.578 75.5956 110.663C74.9795 110.663 74.3902 110.663 73.7607 110.663L42.4205 110.663C42.353 110.667 42.284 110.668 42.2155 110.668C41.8654 110.668 41.515 110.626 41.175 110.543C40.3341 110.334 39.5796 109.865 39.0194 109.205C38.445 108.546 38.0764 107.731 37.961 106.864C37.9476 106.643 37.9399 106.418 37.9399 106.195C37.9399 105.973 37.9477 105.748 37.9607 105.526V104.189C37.9776 103.995 37.9866 103.8 37.9866 103.605C37.9866 102.942 37.8868 102.281 37.6932 101.647C37.4052 100.829 36.866 100.121 36.1526 99.627C35.4886 99.1782 34.7038 98.9377 33.9013 98.9377C33.8218 98.9377 33.7409 98.9406 33.6618 98.945L13.6655 98.9446C13.4838 98.9379 13.2957 98.9331 13.1123 98.9331C9.19511 98.9331 5.47402 100.663 2.95191 103.654C1.64195 105.25 0.721031 107.137 0.271946 109.152C0.157163 109.663 0.0653593 110.182 0.00415713 110.703C0.00415713 111.144 0.00415713 111.586 0.00415713 112.04V324.475C0.00346428 324.595 0 324.72 0 324.841C0 326.133 0.183722 327.422 0.541235 328.662C1.40061 331.531 3.21543 334.025 5.68349 335.725C7.94474 337.248 10.6144 338.064 13.3425 338.064C13.6101 338.064 13.8811 338.056 14.1471 338.041H92.8189C95.618 338.041 98.4307 338.041 101.176 338.041C103.917 337.877 106.541 336.861 108.676 335.137C109.711 334.282 110.616 333.273 111.355 332.154C112.092 331.036 112.655 329.805 113.015 328.516C113.346 327.307 113.515 326.057 113.515 324.804C113.515 324.705 113.513 324.6 113.511 324.502V304.838C113.511 263.033 113.511 225.402 113.578 193.804C113.645 162.207 113.578 136.616 113.658 118.89V112.63C113.661 112.527 113.662 112.42 113.662 112.316C113.662 110.591 113.333 108.879 112.694 107.278C112.101 105.827 111.25 104.487 110.19 103.332C109.316 102.369 108.298 101.544 107.177 100.885C105.664 99.9586 103.968 99.3604 102.208 99.1324C101.766 99.0655 101.315 99.0232 100.868 99.0111H100.413L93.2876 99.0113L93.234 99.0381V99.0382Z" fill="#B9F7ED"/>
<path d="M100.507 99.1854H100.962C101.409 99.1991 101.859 99.2351 102.301 99.2924C105.386 99.6991 108.232 101.18 110.338 103.466C111.415 104.638 112.277 106.003 112.869 107.48C113.524 109.1 113.862 110.836 113.862 112.585C113.862 112.666 113.86 112.751 113.86 112.831C113.86 114.798 113.86 116.844 113.86 119.092C113.86 136.777 113.86 162.355 113.86 194.006C113.86 225.657 113.86 263.261 113.86 305.039V324.918C113.859 324.989 113.861 325.066 113.861 325.14C113.861 326.42 113.689 327.696 113.351 328.93C113.018 330.27 112.479 331.553 111.757 332.73C110.987 333.879 110.05 334.911 108.984 335.793C106.804 337.561 104.116 338.604 101.31 338.764C98.5243 338.844 95.7652 338.764 92.966 338.764L76.0104 338.763H41.2819H14.4957C14.2812 338.771 14.063 338.778 13.8467 338.778C11.0329 338.778 8.27895 337.933 5.95085 336.355C3.39536 334.611 1.50526 332.046 0.594614 329.091C0.225668 327.788 0.0368652 326.437 0.0368652 325.083C0.0368652 324.921 0.040445 324.755 0.0441402 324.596L0.0444866 302.377C0.0444866 290.631 0.0444866 279.064 0.0444866 267.675C0.0444866 244.934 0.0444866 222.994 0.0444866 202.126C0.0444866 181.257 0.0444866 161.364 0.0444866 142.77C0.0444866 133.486 0.0444866 124.523 0.0444866 115.881V112.657C0.0444866 112.122 0.0444866 111.587 0.124858 111.052C0.205229 110.517 0.258694 109.981 0.392646 109.46C0.869331 107.395 1.83021 105.466 3.1919 103.842C5.74934 100.8 9.52401 99.0417 13.5008 99.0417C13.6749 99.0417 13.8541 99.045 14.0266 99.0517L34.0765 99.052C34.1594 99.0482 34.2436 99.045 34.3261 99.045C35.192 99.045 36.0389 99.3043 36.7558 99.7878C37.5036 100.31 38.0704 101.056 38.3757 101.915C38.5702 102.582 38.67 103.275 38.67 103.971C38.67 104.177 38.6611 104.385 38.6439 104.591V105.928C38.6305 106.136 38.6235 106.348 38.6235 106.557C38.6235 106.765 38.6305 106.978 38.6436 107.185C38.7484 108.011 39.0932 108.788 39.6349 109.419C40.1693 110.035 40.8802 110.474 41.6703 110.677C41.9933 110.751 42.3249 110.789 42.6562 110.789C42.7248 110.789 42.7946 110.787 42.8626 110.784H48.8088H66.3269H74.0548C74.6575 110.784 75.2735 110.784 75.8629 110.784C76.4372 110.716 76.9911 110.523 77.4841 110.222C78.436 109.614 79.1065 108.65 79.3454 107.547C79.4213 107.123 79.4599 106.689 79.4599 106.258C79.4599 106.148 79.4573 106.037 79.4528 105.928V104.35C79.449 104.235 79.4465 104.117 79.4465 104.001C79.4465 103.6 79.472 103.196 79.5195 102.798C79.6094 102.301 79.7825 101.821 80.0285 101.38C80.4896 100.526 81.2403 99.861 82.1449 99.5065C82.7881 99.2978 83.4632 99.1895 84.1405 99.1895C84.3682 99.1895 84.5972 99.202 84.8233 99.2255L93.4482 99.2258H98.7385H100.547H98.7385H84.7828C84.5765 99.2061 84.3663 99.1953 84.1585 99.1953C83.4885 99.1953 82.822 99.3007 82.1849 99.5068C81.3163 99.8641 80.5923 100.506 80.1358 101.326C79.9058 101.743 79.7422 102.197 79.6539 102.664C79.6051 103.051 79.5799 103.444 79.5799 103.835C79.5799 103.953 79.5834 104.072 79.5869 104.189V105.767C79.5929 105.898 79.5968 106.03 79.5968 106.161C79.5968 106.58 79.5614 107.001 79.4929 107.414C79.2525 108.558 78.5557 109.559 77.5643 110.182C77.0557 110.51 76.4776 110.716 75.8765 110.784C75.2605 110.784 74.6711 110.784 74.055 110.784L42.7821 110.784C42.732 110.785 42.6804 110.786 42.6293 110.786C42.262 110.786 41.8949 110.744 41.5372 110.664C40.6968 110.453 39.9421 109.985 39.3809 109.326C38.8158 108.667 38.452 107.858 38.3358 106.998C38.3224 106.777 38.3148 106.552 38.3148 106.329C38.3148 106.107 38.3224 105.882 38.3355 105.661V104.323C38.3511 104.131 38.3604 103.938 38.3604 103.746C38.3604 103.081 38.2612 102.417 38.0679 101.781C37.7761 100.969 37.2375 100.267 36.5277 99.7745C35.8753 99.3245 35.1004 99.0836 34.3073 99.0836C34.2219 99.0836 34.1348 99.0868 34.0499 99.0923H14.134C14.0218 99.091 13.9023 99.0878 13.7874 99.0878C9.80196 99.0878 6.02348 100.885 3.51303 103.975C2.20215 105.573 1.28146 107.467 0.835034 109.486C0.701082 109.995 0.660897 110.516 0.567246 111.038C0.473479 111.56 0.567246 112.082 0.567246 112.617L0.566899 324.597C0.562396 324.756 0.558932 324.923 0.558932 325.085C0.558932 326.403 0.741961 327.718 1.10259 328.985C1.95908 331.845 3.7672 334.338 6.21944 336.048C8.48057 337.571 11.1462 338.385 13.8733 338.385C14.1389 338.385 14.4064 338.377 14.6705 338.362L41.4562 338.362H76.1845H93.1C95.8857 338.362 98.6849 338.362 101.431 338.362C104.159 338.204 106.77 337.192 108.891 335.473C109.922 334.613 110.825 333.607 111.569 332.49C112.299 331.369 112.857 330.139 113.217 328.85C113.549 327.662 113.717 326.429 113.717 325.194C113.717 325.076 113.714 324.954 113.712 324.838V320.824C113.712 315.474 113.712 310.122 113.712 304.959C113.712 263.154 113.712 225.51 113.712 193.925C113.712 162.341 113.712 136.737 113.779 119.011C113.779 116.804 113.779 114.717 113.779 112.751C113.781 112.652 113.783 112.547 113.783 112.447C113.783 110.718 113.45 109.001 112.802 107.399C112.213 105.951 111.369 104.618 110.311 103.467C108.229 101.187 105.412 99.7016 102.355 99.2666C101.914 99.1917 101.464 99.1494 101.016 99.1452L100.507 99.1859V99.1854Z" fill="#263238"/>
<path d="M103.078 120.683C103.078 120.683 100.881 120.803 98.1761 120.83C95.4707 120.857 93.2742 120.83 93.2742 120.83C93.2742 120.83 95.4572 120.71 98.1761 120.683C100.895 120.656 103.078 120.629 103.078 120.683Z" fill="#263238"/>
<path d="M103.105 123.198C103.105 123.198 100.908 123.318 98.1896 123.332C95.4708 123.345 93.2876 123.332 93.2876 123.332C93.2876 123.332 95.4841 123.211 98.1896 123.185C100.895 123.158 103.105 123.131 103.105 123.198Z" fill="#263238"/>
<path d="M103.118 125.7C103.118 125.7 100.922 125.82 98.2163 125.847C95.5109 125.874 93.3145 125.847 93.3145 125.847C93.3145 125.847 95.5109 125.726 98.2163 125.7C100.922 125.673 103.118 125.646 103.118 125.7Z" fill="#263238"/>
<path d="M13.853 128.562H14.0539H14.6298H16.7191C16.7191 128.094 16.7191 127.599 16.7191 127.051C16.7191 126.77 16.7191 126.502 16.7191 126.168C16.7924 125.824 17.0785 125.564 17.4289 125.526H18.4201C18.819 125.579 19.1169 125.919 19.1169 126.321C19.1169 126.324 19.1169 126.326 19.1169 126.328C19.1169 127.037 19.1169 127.773 19.1169 128.549L19.0097 128.455H21.6883L21.5811 128.549C21.5811 127.492 21.5811 126.395 21.5811 125.258C21.5811 124.977 21.5811 124.696 21.5811 124.429C21.5616 124.176 21.4287 123.944 21.2194 123.8L20.0543 122.663L18.9426 121.566L18.4069 121.031C18.2194 120.857 18.072 120.67 17.8578 120.63C17.7972 120.613 17.734 120.605 17.6712 120.605C17.5223 120.605 17.3769 120.651 17.255 120.737C17.0943 120.87 16.9202 121.071 16.7595 121.218L15.8086 122.181C15.2193 122.797 14.5899 123.359 14.1478 123.894C14.0463 124.121 13.9938 124.368 13.9938 124.617C13.9938 124.706 14.0005 124.796 14.0139 124.884V125.807C14.0139 126.382 14.0139 126.877 14.0139 127.305C14.0139 127.733 14.0139 128.014 14.0139 128.268C14.0206 128.326 14.024 128.384 14.024 128.442C14.024 128.5 14.0204 128.558 14.0139 128.616C14.0113 128.563 14.0094 128.509 14.0094 128.456C14.0094 128.402 14.0112 128.348 14.0139 128.295C14.0139 128.041 14.0139 127.733 14.0139 127.359V125.847C14.0139 125.539 14.0139 125.232 14.0139 124.897V124.375C14.0171 124.183 14.0677 123.994 14.1614 123.827C14.6571 123.225 15.2329 122.69 15.8356 122.061L16.773 121.098C16.9472 120.937 17.0811 120.763 17.2821 120.59C17.4412 120.475 17.6325 120.414 17.8286 120.414C17.9061 120.414 17.9836 120.423 18.0585 120.443C18.3051 120.535 18.5229 120.693 18.688 120.897L19.2371 121.419L20.3486 122.516L21.5005 123.653C21.6118 123.747 21.7113 123.855 21.7951 123.974C21.8834 124.105 21.9345 124.258 21.9424 124.415V125.258C21.9424 126.382 21.9424 127.492 21.9424 128.549V128.656H18.8617V128.563C18.8617 127.8 18.8617 127.051 18.8617 126.342C18.862 126.339 18.862 126.336 18.862 126.333C18.862 126.02 18.6357 125.752 18.3263 125.7C18.0316 125.7 17.6701 125.7 17.3754 125.7C17.0916 125.733 16.8603 125.943 16.7995 126.221C16.7995 126.476 16.7995 126.797 16.7995 127.064C16.7995 127.613 16.7995 128.108 16.7995 128.576H13.8527V128.563L13.853 128.562Z" fill="#263238"/>
<path d="M80.4704 216.346C80.4704 216.72 69.9567 217.028 56.9922 217.028C44.0277 217.028 33.5275 216.72 33.5275 216.346C33.5275 215.971 44.0277 215.663 56.9922 215.663C69.9567 215.663 80.4704 215.998 80.4704 216.346Z" fill="#263238"/>
<path d="M26.8912 154.965L26.6367 200.475L87.2666 200.813L87.5211 155.304L26.8912 154.965Z" fill="#04B597"/>
<path d="M26.6301 200.48L47.9653 172.307L60.9835 190.086L69.9301 180.668L87.2607 200.814L26.6301 200.48Z" fill="#13F7D2"/>
<path d="M66.6621 168.949C66.6411 171.563 64.512 173.671 61.8948 173.671C59.2621 173.671 57.1268 171.539 57.1268 168.909C57.1268 166.279 59.2621 164.147 61.8948 164.147C61.9035 164.147 61.913 164.147 61.9216 164.147C64.5438 164.161 66.6628 166.29 66.6628 168.909C66.6628 168.922 66.6628 168.936 66.6628 168.949H66.6621Z" fill="#13F7D2"/>
<path d="M26.6301 200.48L47.9653 172.307L60.9835 190.086L69.9301 180.668L87.2607 200.814L26.6301 200.48Z" fill="#99FAEA" fill-opacity="0.039216"/>
<path d="M66.6621 168.949C66.6411 171.563 64.512 173.671 61.8948 173.671C59.2621 173.671 57.1268 171.539 57.1268 168.909C57.1268 166.279 59.2621 164.147 61.8948 164.147C61.9035 164.147 61.913 164.147 61.9216 164.147C64.5438 164.161 66.6628 166.29 66.6628 168.909C66.6628 168.922 66.6628 168.936 66.6628 168.949H66.6621Z" fill="#99FAEA" fill-opacity="0.039216"/>
<path d="M98.7386 233.121C98.7386 233.509 80.0954 233.816 57.1262 233.816C34.157 233.816 15.5004 233.509 15.5004 233.121C15.5004 232.733 34.0766 232.398 57.1262 232.398C80.1757 232.398 98.7386 232.746 98.7386 233.121Z" fill="#263238"/>
<path d="M98.7386 244.706C98.7386 245.094 80.0954 245.401 57.1262 245.401C34.157 245.401 15.5004 245.094 15.5004 244.706C15.5004 244.318 34.1302 244.023 57.1262 244.023C80.1221 244.023 98.7386 244.331 98.7386 244.706Z" fill="#263238"/>
<path d="M98.7386 256.304C98.7386 256.679 80.0954 256.986 57.1262 256.986C34.157 256.986 15.5004 256.679 15.5004 256.304C15.5004 255.929 34.1302 255.608 57.1262 255.608C80.1221 255.608 98.7386 255.916 98.7386 256.304Z" fill="#263238"/>
<path d="M98.7386 267.889C98.7386 268.264 80.0954 268.571 57.1262 268.571C34.157 268.571 15.5004 268.264 15.5004 267.889C15.5004 267.514 34.0766 267.18 57.1262 267.18C80.1757 267.18 98.7386 267.514 98.7386 267.889Z" fill="#263238"/>
<path d="M98.7386 279.474C98.7386 279.862 80.0954 280.169 57.1262 280.169C34.157 280.169 15.5004 279.862 15.5004 279.474C15.5004 279.086 34.1302 278.792 57.1262 278.792C80.1221 278.792 98.7386 279.099 98.7386 279.474Z" fill="#263238"/>
<path d="M80.8321 290.056C80.8321 290.243 78.1536 290.417 73.841 290.537C69.5284 290.658 63.5417 290.738 56.9389 290.738C50.3361 290.738 44.3762 290.671 40.0502 290.537C35.7243 290.403 33.0591 290.243 33.0591 290.056C33.0591 289.868 35.7377 289.694 40.0502 289.574C44.3628 289.454 50.3495 289.373 56.9389 289.373C63.5283 289.373 69.515 289.44 73.841 289.574C78.1669 289.708 80.8321 289.922 80.8321 290.056Z" fill="#263238"/>
<path d="M176.432 79.5873H166.816C166.599 79.5673 166.377 79.5568 166.158 79.5568C165.423 79.5568 164.69 79.6711 163.99 79.8949C163.013 80.2851 162.202 81.005 161.7 81.9286C161.433 82.4051 161.251 82.9278 161.164 83.4671C161.107 83.9056 161.077 84.3513 161.077 84.7956C161.077 84.9189 161.08 85.0434 161.083 85.165C161.083 85.7536 161.083 86.3423 161.083 86.9441C161.086 87.041 161.088 87.1419 161.088 87.2398C161.088 87.7548 161.046 88.2689 160.963 88.7769C160.69 90.0515 159.918 91.1648 158.82 91.8675C158.247 92.2258 157.603 92.4544 156.932 92.5367C156.249 92.5367 155.593 92.5367 154.896 92.5367H120.074C120.033 92.5373 119.99 92.538 119.949 92.538C119.541 92.538 119.133 92.4922 118.735 92.4025C117.802 92.1659 116.964 91.6474 116.337 90.9176C115.689 90.1643 115.281 89.2305 115.172 88.2428C115.156 88.0028 115.147 87.7609 115.147 87.52C115.147 87.2792 115.156 87.0372 115.172 86.7976V85.3663C115.191 85.1437 115.201 84.9194 115.201 84.6961C115.201 83.9639 115.096 83.2326 114.891 82.5306C114.569 81.6174 113.962 80.8287 113.163 80.2825C112.437 79.7805 111.574 79.5107 110.691 79.5107C110.596 79.5107 110.499 79.5145 110.404 79.5203H88.0103C87.8157 79.514 87.6155 79.5085 87.4187 79.5085C83.0754 79.5085 78.9524 81.4366 76.1707 84.765C74.6904 86.5461 73.6422 88.6512 73.117 90.9056C72.9697 91.4675 72.9295 92.0562 72.8224 92.6313C72.7153 93.2065 72.8224 93.6212 72.7555 94.1162V331.165C72.7545 331.293 72.7507 331.432 72.7507 331.563C72.7507 333 72.9522 334.437 73.3461 335.819C74.3009 339.015 76.3207 341.798 79.0633 343.699C81.5837 345.404 84.5622 346.317 87.6056 346.317C87.8827 346.317 88.1633 346.31 88.4385 346.295L118.252 346.294H156.985H175.856C178.963 346.294 182.083 346.294 185.137 346.294C188.181 346.116 191.099 344.986 193.467 343.07C194.625 342.109 195.642 340.985 196.482 339.739C197.292 338.503 197.912 337.146 198.317 335.725C198.688 334.361 198.88 332.949 198.88 331.535C198.88 331.462 198.878 331.382 198.878 331.311V309.105C198.878 262.484 198.878 220.506 198.959 185.243C199.039 149.979 198.959 121.459 199.039 101.74C199.039 99.2652 199.039 96.9376 199.039 94.7571C199.041 94.6537 199.043 94.5405 199.043 94.4347C199.043 92.5014 198.671 90.5849 197.955 88.7911C197.294 87.1765 196.348 85.6871 195.168 84.4026C194.2 83.326 193.068 82.3982 191.82 81.6612C190.139 80.6301 188.257 79.968 186.302 79.7208C185.807 79.6408 185.304 79.5899 184.803 79.5739H184.294L182.284 79.5736L176.432 79.587L176.432 79.5873Z" fill="#99F7E7"/>
<path d="M184.455 79.4401H184.963C184.967 79.4401 184.972 79.4401 184.974 79.4401C185.472 79.4401 185.972 79.4758 186.463 79.5468C189.894 80.0144 193.061 81.6622 195.411 84.2027C196.602 85.4943 197.557 86.9919 198.223 88.6177C198.958 90.4297 199.337 92.3755 199.337 94.3343C199.337 94.4347 199.336 94.5388 199.334 94.6375C199.334 96.8181 199.334 99.1458 199.334 101.607C199.334 121.339 199.334 149.86 199.334 185.123C199.334 220.386 199.334 262.365 199.334 308.972V331.165C199.337 331.278 199.338 331.394 199.338 331.508C199.338 332.915 199.146 334.318 198.772 335.673C198.355 337.15 197.711 338.561 196.87 339.845C196.016 341.128 194.975 342.285 193.79 343.27C191.353 345.238 188.358 346.399 185.231 346.588C182.123 346.682 179.043 346.588 175.855 346.588L88.5731 346.589C88.3011 346.602 88.0259 346.61 87.7525 346.61C84.61 346.61 81.5343 345.668 78.9307 343.913C76.1127 341.952 74.0397 339.09 73.0518 335.806C72.6392 334.354 72.4258 332.849 72.4258 331.338C72.4258 331.16 72.4296 330.977 72.4337 330.802L72.4344 306.055C72.4344 292.954 72.4344 280.053 72.4344 267.354C72.4344 241.936 72.4344 217.522 72.4344 194.206C72.4344 170.888 72.4344 148.722 72.4344 128.014C72.4344 117.651 72.4344 107.649 72.4344 98.0078V94.4227C72.4344 93.8207 72.4344 93.2187 72.5148 92.63C72.5952 92.0414 72.6622 91.4394 72.8229 90.8642C73.351 88.5576 74.4252 86.4044 75.9448 84.5902C77.4414 82.8279 79.3218 81.4213 81.4353 80.4839C83.3719 79.6599 85.4613 79.2325 87.5678 79.2325C87.7186 79.2325 87.8752 79.2343 88.024 79.2382L110.203 79.2391C110.289 79.2346 110.377 79.2319 110.463 79.2319C111.408 79.2319 112.332 79.5195 113.11 80.0555C113.949 80.6396 114.587 81.4735 114.931 82.4364C115.144 83.1662 115.254 83.9255 115.254 84.6871C115.254 84.9084 115.244 85.132 115.226 85.3525V86.7972C115.211 87.0195 115.203 87.2435 115.203 87.4664C115.203 87.6894 115.211 87.9133 115.226 88.1353C115.334 89.0551 115.717 89.9225 116.324 90.6232C116.927 91.2848 117.716 91.7517 118.587 91.9613C118.952 92.0441 119.326 92.0868 119.701 92.0868C119.776 92.0868 119.852 92.0848 119.927 92.082L126.623 92.0817H146.164H154.789C155.458 92.0817 156.128 92.0817 156.798 92.0817C157.444 92.0113 158.067 91.795 158.619 91.453C159.679 90.7727 160.427 89.6996 160.696 88.4698C160.773 88.0136 160.814 87.5502 160.814 87.0878C160.814 86.9467 160.81 86.8044 160.803 86.6641C160.803 86.0755 160.803 85.4869 160.803 84.8984C160.797 84.7503 160.793 84.5973 160.793 84.4483C160.793 84.0225 160.819 83.5937 160.869 83.1717C160.972 82.62 161.163 82.0868 161.432 81.5937C161.957 80.6442 162.795 79.9015 163.802 79.4935C164.524 79.2676 165.278 79.1514 166.035 79.1514C166.273 79.1514 166.513 79.1631 166.749 79.1857H176.352H182.272H184.28H182.271H166.923C166.707 79.1666 166.488 79.1568 166.271 79.1568C165.511 79.1568 164.753 79.2759 164.03 79.5069C163.051 79.892 162.238 80.6137 161.74 81.5402C161.469 82.0158 161.282 82.5384 161.191 83.0786C161.172 83.3596 161.161 83.6453 161.161 83.9281C161.161 84.2109 161.172 84.4966 161.191 84.7779V86.5438C161.197 86.6836 161.202 86.8276 161.202 86.9684C161.202 87.4394 161.161 87.9128 161.083 88.3765C160.816 89.6588 160.037 90.7797 158.928 91.4797C158.36 91.8374 157.718 92.0665 157.053 92.1489C156.356 92.1489 155.713 92.1489 155.017 92.1489L120.194 92.1486C120.171 92.1486 120.144 92.1493 120.119 92.1493C119.694 92.1493 119.269 92.0992 118.855 92.0014C117.922 91.774 117.083 91.2584 116.458 90.5299C115.821 89.7948 115.415 88.8861 115.293 87.9212C115.277 87.6814 115.268 87.4393 115.268 87.1988C115.268 86.9584 115.277 86.7164 115.293 86.477L115.292 85.3794C115.31 85.1699 115.319 84.958 115.319 84.7473C115.319 84.0012 115.21 83.2579 114.998 82.5431C114.624 81.6095 113.957 80.8193 113.096 80.296C112.352 79.7953 111.473 79.5271 110.575 79.5271C110.496 79.5271 110.416 79.5293 110.337 79.5333L88.1178 79.5336C87.9344 79.5285 87.7456 79.5231 87.5604 79.5231C83.2006 79.5231 79.0637 81.4527 76.2652 84.7903C74.7898 86.5743 73.7487 88.6777 73.2253 90.9309C73.078 91.4928 73.0378 92.0815 72.9306 92.6567C72.8235 93.2319 72.9306 93.8205 72.8503 94.4224L72.8496 128.054C72.8496 148.776 72.8496 170.929 72.8496 194.246V267.394C72.8496 280.094 72.8496 292.994 72.8496 306.095V330.883C72.8448 331.058 72.841 331.239 72.841 331.417C72.841 332.887 73.0474 334.354 73.4526 335.766C74.4083 338.962 76.4281 341.744 79.1708 343.645C81.6811 345.342 84.647 346.252 87.6796 346.252C87.9685 346.252 88.2593 346.243 88.5467 346.228L118.453 346.227H157.186H176.044C179.164 346.227 182.285 346.227 185.338 346.227C188.383 346.046 191.298 344.918 193.67 343.002C194.826 342.045 195.838 340.922 196.669 339.673C197.488 338.439 198.114 337.082 198.518 335.659C198.883 334.334 199.07 332.964 199.07 331.589C199.07 331.479 199.068 331.365 199.066 331.257C199.066 329.745 199.066 328.26 199.066 326.762V308.998C199.066 262.391 199.066 220.412 199.133 185.149C199.2 149.886 199.133 121.365 199.227 101.633V94.6097C199.229 94.5103 199.231 94.4007 199.231 94.2992C199.231 92.3637 198.866 90.443 198.157 88.6431C197.496 87.0264 196.549 85.5323 195.371 84.2426C194.395 83.1932 193.262 82.2867 192.022 81.5662C189.898 80.2937 187.479 79.5732 185.004 79.4799L184.454 79.4397L184.455 79.4401Z" fill="#263238"/>
<path d="M87.8098 112.202H88.0375H88.667H91.0108C91.0108 111.68 91.0108 111.118 91.0108 110.516C91.0108 110.195 91.0108 109.901 91.0108 109.539C91.0899 109.153 91.4094 108.861 91.8017 108.817C91.9858 108.807 92.1719 108.802 92.3573 108.802C92.5425 108.802 92.7287 108.807 92.9127 108.817C93.3517 108.883 93.6765 109.26 93.6765 109.703C93.6765 109.707 93.6765 109.71 93.6765 109.714C93.6765 110.503 93.6765 111.332 93.6765 112.175L93.5693 112.068H96.5158L96.4086 112.188C96.4086 110.998 96.4086 109.767 96.4086 108.523V107.587C96.3847 107.303 96.2317 107.046 95.9935 106.891L94.6542 105.553L93.4087 104.322L92.806 103.734C92.6443 103.531 92.4316 103.373 92.1899 103.279C92.1239 103.26 92.0551 103.25 91.9861 103.25C91.8172 103.25 91.6526 103.307 91.5202 103.413C91.346 103.56 91.1452 103.774 90.9711 103.948L89.9131 105.018C89.2434 105.7 88.5737 106.356 88.0514 106.931C87.9408 107.186 87.8834 107.461 87.8834 107.739C87.8834 107.836 87.8906 107.932 87.904 108.028V109.058C87.904 109.7 87.904 110.262 87.904 110.73C87.904 111.198 87.904 111.519 87.904 111.8C87.904 112.081 87.904 112.188 87.904 112.188C87.904 112.188 87.904 112.068 87.904 111.84C87.904 111.613 87.904 111.198 87.904 110.783C87.904 110.369 87.904 109.74 87.904 109.098C87.904 108.763 87.904 108.416 87.904 108.041C87.904 107.666 87.904 107.653 87.904 107.466C87.904 107.465 87.904 107.463 87.904 107.462C87.904 107.248 87.9596 107.037 88.0648 106.85C88.6139 106.182 89.2701 105.593 89.9398 104.884L90.9845 103.8C91.172 103.613 91.3328 103.439 91.5604 103.239C91.7307 103.113 91.9373 103.045 92.1493 103.045C92.2351 103.045 92.3208 103.056 92.4041 103.078C92.6831 103.172 92.9297 103.344 93.114 103.573L93.7166 104.175C94.1318 104.563 94.547 104.978 94.9622 105.392L96.3014 106.73C96.4217 106.833 96.5297 106.95 96.6228 107.078C96.7271 107.222 96.7836 107.395 96.7836 107.573V107.573C96.7836 107.881 96.7836 108.202 96.7836 108.509C96.7836 109.767 96.7836 110.998 96.7836 112.188V112.295H96.6627H93.7162H93.609V112.188C93.609 111.332 93.609 110.503 93.609 109.713C93.6094 109.706 93.6097 109.699 93.6097 109.692C93.6097 109.349 93.3594 109.057 93.0201 109.004C92.6718 109.004 92.2835 109.004 91.9487 109.004C91.6326 109.037 91.3734 109.269 91.3058 109.579C91.3058 109.874 91.3058 110.222 91.3058 110.516V112.282H88.0376L87.8099 112.201L87.8098 112.202Z" fill="#263238"/>
<path d="M147.382 127.506C147.383 127.509 147.383 127.516 147.383 127.519C147.383 132.971 142.957 137.392 137.499 137.392C132.041 137.392 127.615 132.971 127.615 127.519C127.615 122.067 132.041 117.646 137.499 117.646C137.502 117.646 137.508 117.646 137.512 117.646C142.963 117.646 147.383 122.061 147.383 127.506H147.382V127.506Z" fill="#04B597"/>
<path d="M140.9 131.492H134.123V130.729C134.124 128.86 135.641 127.345 137.512 127.345H137.512C139.383 127.345 140.9 128.86 140.9 130.729L140.9 131.492H140.9Z" fill="white"/>
<path d="M139.494 125.526C139.494 126.626 138.601 127.519 137.499 127.519C136.397 127.519 135.503 126.626 135.503 125.526C135.503 124.425 136.397 123.532 137.499 123.532C137.503 123.532 137.508 123.532 137.512 123.532C138.606 123.532 139.494 124.419 139.494 125.512C139.494 125.517 139.494 125.521 139.494 125.526H139.494Z" fill="white"/>
<path d="M162.101 153.592C162.101 154.006 150.382 154.354 135.931 154.354C121.48 154.354 109.748 154.006 109.748 153.592C109.748 153.177 121.467 152.816 135.931 152.816C150.396 152.816 162.101 153.164 162.101 153.592Z" fill="#263238"/>
<path d="M82.5334 179.568L82.3438 213.493L127.545 213.745L127.734 179.821L82.5334 179.568Z" fill="#04B597"/>
<path d="M82.3322 213.496L98.2431 192.493L107.94 205.737L114.61 198.727L127.534 213.75L82.3322 213.496Z" fill="#13F7D2"/>
<path d="M112.185 189.992C112.178 191.951 110.585 193.537 108.623 193.537C106.656 193.537 105.061 191.943 105.061 189.978C105.061 188.013 106.656 186.42 108.623 186.42C108.632 186.42 108.641 186.42 108.65 186.42C110.607 186.435 112.186 188.024 112.186 189.978C112.186 189.983 112.186 189.988 112.186 189.992H112.185Z" fill="#13F7D2"/>
<path d="M82.3322 213.496L98.2431 192.493L107.94 205.737L114.61 198.727L127.534 213.75L82.3322 213.496Z" fill="#99FAEA" fill-opacity="0.039216"/>
<path d="M112.185 189.992C112.178 191.951 110.585 193.537 108.623 193.537C106.656 193.537 105.061 191.943 105.061 189.978C105.061 188.013 106.656 186.42 108.623 186.42C108.632 186.42 108.641 186.42 108.65 186.42C110.607 186.435 112.186 188.024 112.186 189.978C112.186 189.983 112.186 189.988 112.186 189.992H112.185Z" fill="#99FAEA" fill-opacity="0.039216" stroke="#99FAEA" stroke-opacity="0.039216" stroke-width="0.0762046" stroke-miterlimit="22.9256"/>
<path d="M82.3659 223.976L81.9274 302.406L186.405 302.989L186.844 224.558L82.3659 223.976Z" fill="#04B597"/>
<path d="M81.9302 302.403L118.694 253.843L141.128 284.477L156.543 268.264L186.41 302.978L81.9302 302.403Z" fill="#13F7D2"/>
<path d="M150.918 248.05C150.897 252.571 147.221 256.224 142.695 256.224C138.154 256.224 134.472 252.545 134.472 248.01C134.472 243.474 138.154 239.796 142.695 239.796C142.713 239.796 142.731 239.796 142.749 239.796C147.267 239.818 150.919 243.483 150.919 247.997C150.919 248.014 150.919 248.034 150.919 248.051L150.918 248.05Z" fill="#13F7D2"/>
<path d="M81.9302 302.403L118.694 253.843L141.128 284.477L156.543 268.264L186.41 302.978L81.9302 302.403Z" fill="#99FAEA" fill-opacity="0.2"/>
<path d="M150.918 248.05C150.897 252.571 147.221 256.224 142.695 256.224C138.154 256.224 134.472 252.545 134.472 248.01C134.472 243.474 138.154 239.796 142.695 239.796C142.713 239.796 142.731 239.796 142.749 239.796C147.267 239.818 150.919 243.483 150.919 247.997C150.919 248.014 150.919 248.034 150.919 248.051L150.918 248.05Z" fill="#99FAEA" fill-opacity="0.2"/>
<path d="M142.199 179.568L142.009 213.493L187.21 213.745L187.399 179.821L142.199 179.568Z" fill="#04B597" stroke="#02A388" stroke-width="0.447941" stroke-miterlimit="22.9256"/>
<path d="M141.998 213.496L157.909 192.493L167.606 205.737L174.289 198.727L187.2 213.75L141.998 213.496Z" fill="#13F7D2"/>
<path d="M168.289 193.524C170.257 193.524 171.852 191.93 171.852 189.965C171.852 188 170.257 186.407 168.289 186.407C166.322 186.407 164.727 188 164.727 189.965C164.727 191.93 166.322 193.524 168.289 193.524Z" fill="#13F7D2"/>
<path d="M141.998 213.496L157.909 192.493L167.606 205.737L174.289 198.727L187.2 213.75L141.998 213.496Z" fill="#99FAEA" fill-opacity="0.039216"/>
<path d="M171.852 189.965C171.852 188 170.257 186.407 168.289 186.407C166.322 186.407 164.727 188 164.727 189.965C164.727 191.93 166.322 193.524 168.289 193.524C170.257 193.524 171.852 191.93 171.852 189.965Z" fill="black" fill-opacity="0.039216"/>
<path d="M457.085 92.8043H448.473C448.284 92.789 448.093 92.7807 447.903 92.7807C447.216 92.7807 446.531 92.8843 445.875 93.0852C444.536 93.649 443.579 94.8629 443.344 96.2955C443.294 96.6657 443.267 97.0427 443.267 97.4167C443.267 97.551 443.271 97.6874 443.277 97.8208V99.4128C443.284 99.5366 443.287 99.6628 443.287 99.7874C443.287 100.209 443.248 100.631 443.17 101.045C442.924 102.199 442.224 103.207 441.228 103.841C440.715 104.157 440.138 104.357 439.54 104.429C438.924 104.429 438.321 104.429 437.705 104.429L406.472 104.43C406.405 104.432 406.337 104.434 406.269 104.434C405.913 104.434 405.559 104.392 405.214 104.309C404.378 104.096 403.628 103.628 403.07 102.971C402.498 102.312 402.134 101.497 402.026 100.63C402.013 100.41 402.005 100.183 402.005 99.9614C402.005 99.7394 402.013 99.5133 402.026 99.2926V97.9548C402.045 97.7503 402.055 97.543 402.055 97.3372C402.055 96.6855 401.959 96.0371 401.772 95.4134C401.484 94.5952 400.944 93.8871 400.231 93.3931C399.567 92.945 398.783 92.7045 397.98 92.7045C397.905 92.7045 397.828 92.707 397.753 92.7109H377.811C377.644 92.7042 377.469 92.7009 377.3 92.7009C373.398 92.7009 369.693 94.4301 367.191 97.4194C365.884 99.024 364.965 100.912 364.512 102.931C364.401 103.439 364.313 103.954 364.257 104.47C364.257 104.911 364.257 105.353 364.19 105.807L364.19 318.389C364.189 318.508 364.185 318.632 364.185 318.753C364.185 320.042 364.37 321.326 364.727 322.563C365.578 325.427 367.387 327.921 369.843 329.626C372.104 331.156 374.774 331.976 377.506 331.976C377.763 331.976 378.025 331.968 378.28 331.954H405.066H439.794H456.723C459.509 331.954 462.308 331.954 465.054 331.954C467.781 331.793 470.391 330.782 472.514 329.065C473.548 328.205 474.455 327.192 475.193 326.068C475.929 324.949 476.492 323.718 476.852 322.429C477.183 321.245 477.352 320.019 477.352 318.789C477.352 318.688 477.35 318.581 477.349 318.482V314.469C477.349 309.119 477.349 303.83 477.349 298.604C477.349 256.813 477.349 219.169 477.349 187.571C477.349 155.973 477.349 130.369 477.429 112.657C477.429 110.45 477.429 108.363 477.429 106.409C477.429 106.336 477.431 106.252 477.431 106.176C477.431 104.425 477.097 102.686 476.451 101.058C475.367 98.3882 473.437 96.1417 470.961 94.6638C469.45 93.7436 467.758 93.1451 466.004 92.9117C465.415 92.8046 464.959 92.8314 464.665 92.7912H464.209H457.098L457.085 92.8046L457.085 92.8043Z" fill="#B9F7ED"/>
<path d="M457.54 182.822H382.753V198.085H457.54V182.822Z" fill="#FEFEFE"/>
<path d="M464.451 92.6839H464.906C465.353 92.6902 465.802 92.7269 466.245 92.7909C469.326 93.2072 472.171 94.6852 474.282 96.965C475.352 98.1438 476.211 99.5051 476.813 100.979C477.468 102.614 477.806 104.365 477.806 106.128C477.806 106.194 477.804 106.265 477.804 106.33V112.59C477.804 130.262 477.804 155.853 477.804 187.504C477.804 219.155 477.804 256.76 477.804 298.538V318.43C477.805 318.519 477.807 318.618 477.807 318.711C477.807 319.971 477.634 321.229 477.295 322.442C476.933 323.766 476.356 325.032 475.595 326.175C474.833 327.328 473.9 328.37 472.835 329.251C470.649 331.014 467.964 332.054 465.161 332.22C462.375 332.301 459.602 332.22 456.803 332.22L378.481 332.221C378.225 332.235 377.967 332.242 377.71 332.242C374.903 332.242 372.157 331.404 369.829 329.839C367.302 328.08 365.443 325.513 364.565 322.563C364.188 321.254 363.996 319.894 363.996 318.531C363.996 318.382 363.999 318.229 364.003 318.081V313.6C364.003 307.642 364.003 301.73 364.003 295.861V261.173C364.003 238.432 364.003 216.479 364.003 195.624C364.003 174.768 364.003 154.862 364.003 136.268C364.003 126.966 364.003 118.003 364.003 109.379C364.003 108.295 364.003 107.225 364.003 106.155C364.003 105.62 364.003 105.085 364.003 104.549C364.003 104.014 364.137 103.479 364.271 102.958C365.653 96.8642 371.076 92.5378 377.332 92.5378C377.522 92.5378 377.717 92.5426 377.905 92.5494L397.794 92.5501C397.859 92.5478 397.926 92.5456 397.992 92.5456C398.852 92.5456 399.693 92.8036 400.405 93.2858C401.154 93.8086 401.72 94.5538 402.026 95.4128C402.225 96.0601 402.327 96.7346 402.327 97.4122C402.327 97.6373 402.316 97.8651 402.293 98.0886V99.4265C402.28 99.6338 402.273 99.8462 402.273 100.055C402.273 100.264 402.28 100.476 402.293 100.683C402.394 101.508 402.745 102.284 403.298 102.904C403.82 103.528 404.529 103.97 405.32 104.162C405.646 104.245 405.982 104.288 406.318 104.288C406.387 104.288 406.457 104.286 406.526 104.282H412.539H430.058H437.785C438.388 104.282 439.018 104.282 439.594 104.282C440.17 104.217 440.726 104.02 441.214 103.707C442.175 103.108 442.848 102.14 443.076 101.031C443.154 100.628 443.194 100.215 443.194 99.8033C443.194 99.6782 443.19 99.5507 443.183 99.4262V97.8343C443.182 97.7512 443.18 97.6629 443.18 97.5786C443.18 97.1502 443.208 96.7205 443.263 96.2957C443.345 95.7946 443.514 95.3089 443.759 94.8643C444.233 94.0164 444.986 93.3542 445.888 92.9918C446.55 92.787 447.241 92.6819 447.934 92.6819C448.144 92.6819 448.358 92.6927 448.567 92.7112H457.179H462.536L464.344 92.7109H462.536H448.728C448.52 92.6908 448.31 92.6799 448.1 92.6799C447.431 92.6799 446.765 92.7857 446.129 92.9918C445.254 93.3393 444.528 93.984 444.08 94.8112C443.846 95.2259 443.682 95.6794 443.598 96.1486C443.575 96.4008 443.563 96.6576 443.563 96.9115C443.563 97.165 443.575 97.4217 443.598 97.6736V99.2656C443.603 99.3749 443.605 99.4867 443.605 99.5965C443.605 100.037 443.566 100.478 443.491 100.911C443.251 102.053 442.56 103.052 441.576 103.68C441.062 104.007 440.479 104.214 439.875 104.282C439.259 104.282 438.669 104.282 438.053 104.282H406.727C406.699 104.282 406.669 104.283 406.64 104.283C406.247 104.283 405.853 104.242 405.468 104.162C403.76 103.699 402.5 102.25 402.28 100.497C402.263 100.275 402.254 100.051 402.254 99.8278C402.254 99.6048 402.263 99.3809 402.28 99.1589V97.8212C402.296 97.6272 402.305 97.4313 402.305 97.236C402.305 96.5744 402.21 95.9145 402.026 95.2797C401.46 93.6728 399.94 92.5976 398.235 92.5976C398.16 92.5976 398.083 92.6001 398.008 92.6039H378.066C377.946 92.6027 377.819 92.5992 377.698 92.5992C375.832 92.5992 373.981 92.9804 372.267 93.714C368.441 95.3737 365.632 98.7618 364.712 102.825C364.578 103.333 364.538 103.855 364.444 104.377C364.351 104.898 364.377 105.42 364.377 105.955V136.068C364.377 154.663 364.377 174.515 364.377 195.424V260.974C364.378 272.344 364.378 283.911 364.378 295.674V317.894C364.373 318.055 364.37 318.22 364.37 318.382C364.37 319.695 364.553 321.008 364.913 322.268C365.774 325.133 367.583 327.627 370.043 329.333C372.305 330.862 374.975 331.682 377.707 331.682C377.964 331.682 378.226 331.673 378.481 331.66H405.267H439.995H456.911C459.71 331.66 462.496 331.66 465.241 331.66C467.973 331.501 470.589 330.488 472.715 328.769C473.743 327.908 474.646 326.901 475.394 325.787C476.123 324.667 476.687 323.436 477.054 322.149C477.382 320.918 477.552 319.646 477.552 318.371C477.552 318.292 477.55 318.212 477.55 318.135V298.511C477.55 256.719 477.55 219.075 477.617 187.477C477.684 155.88 477.617 130.275 477.684 112.563C477.684 110.343 477.684 108.256 477.684 106.303C477.685 106.207 477.687 106.105 477.687 106.008C477.687 104.277 477.358 102.559 476.72 100.951C476.126 99.5039 475.274 98.1697 474.215 97.0179C473.352 96.0455 472.336 95.2151 471.214 94.5571C469.709 93.642 468.022 93.0471 466.273 92.8177C465.831 92.7441 465.381 92.7034 464.934 92.6979L464.452 92.6842L464.451 92.6839Z" fill="#263238"/>
<path d="M467.009 114.181C467.009 114.181 464.813 114.302 462.107 114.329C459.402 114.355 457.205 114.329 457.205 114.262C457.205 114.195 459.402 114.141 462.107 114.114C464.813 114.088 467.009 114.128 467.009 114.181Z" fill="#263238"/>
<path d="M467.036 116.683C467.036 116.75 464.839 116.804 462.134 116.83C459.429 116.857 457.232 116.83 457.219 116.764C457.205 116.697 459.415 116.643 462.134 116.63C464.853 116.616 467.036 116.63 467.036 116.683V116.683Z" fill="#263238"/>
<path d="M467.049 119.198C467.049 119.198 464.866 119.319 462.147 119.345C459.429 119.372 457.245 119.345 457.245 119.278C457.245 119.211 459.442 119.158 462.147 119.131C464.853 119.105 467.049 119.145 467.049 119.198V119.198Z" fill="#263238"/>
<path d="M377.798 122.061C377.798 122.061 377.865 122.061 377.999 122.061H378.561H380.664C380.664 121.593 380.664 121.084 380.664 120.549C380.664 120.255 380.664 120.001 380.664 119.666C380.731 119.323 381.013 119.064 381.36 119.024C381.695 119.024 381.99 119.024 382.365 119.024C382.757 119.084 383.048 119.421 383.048 119.818C383.048 119.821 383.048 119.824 383.048 119.827C383.048 120.536 383.048 121.272 383.048 122.034L382.954 121.941H385.633L385.525 122.048C385.525 120.991 385.525 119.88 385.525 118.757V117.927C385.505 117.671 385.366 117.438 385.15 117.298L383.998 116.161L382.887 115.064L382.337 114.529C382.15 114.355 382.016 114.168 381.788 114.128C381.726 114.11 381.661 114.101 381.597 114.101C381.449 114.101 381.305 114.148 381.186 114.235C381.025 114.369 380.851 114.569 380.69 114.716L379.753 115.679C379.15 116.295 378.534 116.857 378.079 117.392C377.979 117.626 377.928 117.878 377.928 118.132C377.928 118.216 377.934 118.3 377.945 118.382V119.305C377.945 119.88 377.945 120.375 377.945 120.803C377.945 121.231 377.945 121.512 377.945 121.766V122.114C377.939 122.061 377.936 122.007 377.936 121.954C377.936 121.9 377.939 121.846 377.945 121.793C377.945 121.539 377.945 121.231 377.945 120.843V119.345C377.945 119.037 377.945 118.73 377.945 118.395V117.873C377.944 117.864 377.944 117.855 377.944 117.845C377.944 117.662 377.996 117.481 378.092 117.325C378.574 116.723 379.163 116.188 379.766 115.559C380.061 115.238 380.382 114.917 380.704 114.596C380.862 114.417 381.033 114.246 381.212 114.087C381.369 113.974 381.557 113.912 381.75 113.912C381.827 113.912 381.902 113.922 381.976 113.94C382.226 114.027 382.445 114.185 382.606 114.395L383.155 114.917L384.266 116.014L385.432 117.151C385.54 117.249 385.638 117.356 385.726 117.472C385.81 117.604 385.857 117.757 385.86 117.913C385.86 118.194 385.86 118.475 385.86 118.756C385.86 119.88 385.86 120.977 385.86 122.047V122.141H385.753H383.074H382.981V122.047C382.981 121.271 382.981 120.535 382.981 119.826C382.981 119.824 382.981 119.82 382.981 119.818C382.981 119.504 382.754 119.237 382.445 119.184H381.481C381.202 119.213 380.975 119.419 380.918 119.693C380.918 119.96 380.918 120.268 380.918 120.536V122.114H377.998L377.797 122.061L377.798 122.061Z" fill="#263238"/>
<path d="M457.701 205.577H382.914V220.84H457.701V205.577Z" fill="#FEFEFE"/>
<path d="M457.701 227.716H382.914V242.98H457.701V227.716Z" fill="#FEFEFE"/>
<path d="M439.727 273.307H402.227C398.009 273.3 394.593 269.882 394.593 265.669C394.593 261.458 398.011 258.043 402.227 258.043H439.727C443.943 258.043 447.361 261.458 447.361 265.669C447.361 269.882 443.945 273.301 439.727 273.307L439.727 273.307Z" fill="#02A388"/>
<path d="M444.241 167.049C444.241 167.424 433.741 167.732 420.776 167.732C407.812 167.732 397.312 167.424 397.312 167.049C397.312 166.675 407.812 166.367 420.776 166.367C433.741 166.367 444.241 166.675 444.241 167.049Z" fill="#263238"/>
<path d="M395.785 77.0191H386.168C385.934 76.9958 385.695 76.9837 385.459 76.9837C384.718 76.9837 383.979 77.101 383.275 77.327C382.298 77.7169 381.487 78.4367 380.985 79.3604C380.724 79.8397 380.543 80.3608 380.45 80.8985C380.396 81.2966 380.369 81.703 380.369 82.106C380.369 82.2738 380.374 82.4439 380.383 82.6105V84.3762C380.385 84.4728 380.387 84.5737 380.387 84.6715C380.387 85.1865 380.345 85.7006 380.262 86.2087C379.989 87.4833 379.217 88.5966 378.119 89.2991C377.546 89.6575 376.902 89.8862 376.231 89.9683C375.548 89.9683 374.891 89.9683 374.195 89.9683H339.373C339.332 89.969 339.289 89.9696 339.248 89.9696C338.84 89.9696 338.432 89.9237 338.034 89.8342C337.1 89.5975 336.263 89.079 335.636 88.3493C334.993 87.5922 334.587 86.6606 334.471 85.674C334.459 85.4359 334.451 85.1922 334.451 84.9517C334.451 84.7112 334.459 84.4675 334.471 84.2286V82.7972C334.49 82.5752 334.5 82.3509 334.5 82.1276C334.5 81.3953 334.395 80.6641 334.19 79.9621C333.868 79.0531 333.267 78.2654 332.475 77.7143C331.736 77.2131 330.862 76.9439 329.968 76.9439C329.88 76.9439 329.791 76.947 329.703 76.9521L307.363 76.9517C307.168 76.9454 306.968 76.9399 306.771 76.9399C302.428 76.9399 298.305 78.8679 295.523 82.1964C294.043 83.9775 292.995 86.0826 292.47 88.3369C292.322 88.9121 292.282 89.4875 292.175 90.0627C292.068 90.6379 292.175 91.0526 292.175 91.5476L292.175 328.596C292.174 328.729 292.17 328.87 292.17 329.005C292.17 330.441 292.377 331.874 292.779 333.252C293.724 336.45 295.74 339.232 298.484 341.131C301.003 342.835 303.982 343.749 307.025 343.749C307.302 343.749 307.583 343.741 307.858 343.726L337.672 343.726H376.405H395.276C398.383 343.726 401.503 343.726 404.557 343.726C407.601 343.548 410.518 342.418 412.887 340.502C414.048 339.546 415.065 338.42 415.902 337.17C416.711 335.935 417.332 334.578 417.736 333.157C418.111 331.835 418.302 330.462 418.302 329.086C418.302 328.973 418.3 328.855 418.299 328.743V324.262C418.298 318.286 418.298 312.387 418.298 306.563C418.298 259.943 418.298 217.964 418.365 182.701C418.432 147.438 418.365 118.917 418.446 99.1985C418.446 96.7236 418.446 94.3959 418.446 92.2155C418.447 92.1119 418.449 91.9989 418.449 91.8931C418.449 89.9598 418.078 88.0433 417.361 86.2494C416.701 84.6348 415.755 83.1455 414.575 81.8609C412.261 79.315 409.119 77.6549 405.709 77.179C405.213 77.1036 404.711 77.0564 404.21 77.0454H403.7H401.691L395.785 77.0186L395.785 77.0191Z" fill="#99F7E7"/>
<path d="M403.807 77.2195H404.316C404.815 77.2304 405.32 77.2714 405.815 77.3389C407.782 77.5781 409.68 78.2314 411.375 79.2522C412.629 79.9673 413.776 80.8734 414.763 81.9287C415.955 83.2203 416.909 84.7179 417.575 86.3436C418.31 88.1524 418.69 90.0931 418.69 92.0472C418.69 92.1472 418.688 92.251 418.686 92.3492C418.686 94.5431 418.686 96.8708 418.686 99.3323C418.686 119.051 418.686 147.585 418.686 182.848C418.686 218.111 418.686 260.09 418.686 306.697V328.877C418.689 328.991 418.691 329.112 418.691 329.228C418.691 330.636 418.499 332.041 418.124 333.397C417.712 334.876 417.066 336.29 416.222 337.573C415.369 338.856 414.329 340.012 413.143 340.996C410.705 342.964 407.71 344.125 404.583 344.314C401.476 344.395 398.395 344.314 395.275 344.314L307.926 344.315C307.641 344.329 307.347 344.338 307.06 344.338C303.93 344.338 300.869 343.396 298.282 341.638C295.463 339.685 293.388 336.827 292.403 333.545C291.99 332.091 291.778 330.584 291.778 329.072C291.778 328.893 291.784 328.705 291.788 328.528L291.787 303.794C291.787 290.684 291.787 277.784 291.787 265.093C291.787 239.676 291.787 215.248 291.787 191.945C291.787 168.641 291.787 146.461 291.787 125.74C291.787 115.385 291.787 105.366 291.787 95.7472V92.1621C291.787 91.5601 291.787 90.9582 291.867 90.3561C291.948 89.7541 292.028 89.1788 292.176 88.6036C292.708 86.2976 293.779 84.1476 295.295 82.3302C296.794 80.5672 298.674 79.1606 300.788 78.2232C302.724 77.3992 304.814 76.9718 306.92 76.9718C307.071 76.9718 307.227 76.9736 307.376 76.9775L329.556 76.9785C329.639 76.9747 329.725 76.9718 329.809 76.9718C330.76 76.9718 331.691 77.2587 332.475 77.7945C333.308 78.3838 333.94 79.2163 334.283 80.1757C334.499 80.8956 334.609 81.6469 334.609 82.3989C334.609 82.6302 334.598 82.862 334.578 83.0923V84.5371C334.561 84.7696 334.553 85.0056 334.553 85.2392C334.553 85.4726 334.561 85.7086 334.577 85.9412C334.696 86.8552 335.078 87.7163 335.676 88.4166C336.276 89.082 337.067 89.5502 337.94 89.7543C338.303 89.8467 338.678 89.8936 339.054 89.8936C339.129 89.8936 339.204 89.8914 339.279 89.8881L345.976 89.8878H365.516H374.262C374.931 89.8878 375.601 89.8878 376.271 89.8878C376.917 89.8174 377.54 89.6012 378.092 89.2591C379.152 88.5787 379.9 87.5057 380.169 86.2759C380.251 85.78 380.294 85.2738 380.294 84.77C380.294 84.6709 380.292 84.5674 380.289 84.4696V82.7039C380.283 82.5609 380.279 82.4137 380.279 82.2701C380.279 81.8388 380.309 81.4054 380.369 80.9788C380.462 80.4221 380.649 79.8822 380.918 79.3862C381.448 78.4434 382.285 77.7071 383.289 77.2999C384.011 77.0738 384.766 76.9582 385.524 76.9582C385.761 76.9582 386 76.9699 386.235 76.992H395.838H401.758H403.767H401.758H386.316C386.101 76.9732 385.883 76.9632 385.667 76.9632C384.906 76.9632 384.147 77.0817 383.423 77.3126C382.443 77.6981 381.63 78.4198 381.133 79.3463C380.86 79.8209 380.678 80.3439 380.597 80.8847C380.54 81.322 380.51 81.7677 380.51 82.2098C380.51 82.3333 380.513 82.4617 380.517 82.584V84.3498C380.523 84.4896 380.527 84.6335 380.527 84.7744C380.527 85.2454 380.487 85.7187 380.409 86.1825C380.144 87.4591 379.37 88.5747 378.266 89.272C377.696 89.6338 377.049 89.8635 376.378 89.9412C375.695 89.9412 375.039 89.9412 374.342 89.9412H339.44C339.379 89.9428 339.316 89.9447 339.255 89.9447C338.866 89.9447 338.477 89.8978 338.101 89.8074C337.17 89.574 336.332 89.0595 335.703 88.3359C335.055 87.5822 334.647 86.6483 334.538 85.6607C334.522 85.4205 334.513 85.1784 334.513 84.9379C334.513 84.6974 334.522 84.4553 334.538 84.2161V82.7714C334.557 82.5493 334.567 82.3254 334.567 82.1031C334.567 81.3693 334.461 80.6382 334.256 79.9347C333.927 79.0266 333.322 78.2405 332.529 77.6876C331.795 77.1856 330.924 76.9167 330.034 76.9167C329.946 76.9167 329.857 76.92 329.77 76.9247H307.47C307.322 76.9218 307.166 76.918 307.015 76.918C304.948 76.918 302.899 77.341 301.001 78.1555C296.746 80.0232 293.62 83.7977 292.577 88.3231C292.43 88.8849 292.39 89.4736 292.283 90.0487C292.176 90.6239 292.216 91.2126 292.202 91.8146V95.3997C292.202 105.018 292.202 115.038 292.202 125.392V303.447C292.202 309.988 292.202 316.597 292.202 323.232V328.222C292.197 328.398 292.193 328.578 292.193 328.756C292.193 330.23 292.399 331.701 292.804 333.116C293.761 336.313 295.781 339.095 298.523 340.996C301.036 342.694 304.006 343.602 307.04 343.602C307.326 343.602 307.615 343.593 307.899 343.578L395.329 343.579C398.437 343.579 401.557 343.579 404.611 343.579C407.619 343.521 410.542 342.532 412.968 340.755C414.125 339.799 415.142 338.681 415.981 337.439C416.788 336.202 417.41 334.845 417.816 333.425C418.189 332.064 418.38 330.655 418.38 329.243C418.38 329.166 418.379 329.084 418.379 329.009L418.379 306.737C418.379 260.13 418.379 218.138 418.446 182.888C418.513 147.638 418.513 119.091 418.54 99.3722V92.3892C418.542 92.2739 418.544 92.1519 418.544 92.0357C418.544 90.1182 418.178 88.2177 417.468 86.4369C416.808 84.8191 415.861 83.3251 414.683 82.0354C413.707 80.9859 412.575 80.0794 411.334 79.3589C409.651 78.3358 407.769 77.6685 405.817 77.4061C405.321 77.3309 404.818 77.2838 404.317 77.2727L403.807 77.2192L403.807 77.2195Z" fill="#263238"/>
<path d="M406.673 101.152C406.673 101.152 404.222 101.286 401.209 101.312C398.195 101.339 395.691 101.299 395.691 101.299C395.691 101.299 398.142 101.165 401.169 101.138C404.195 101.112 406.673 101.085 406.673 101.152Z" fill="#263238"/>
<path d="M406.7 103.975C406.7 103.975 404.249 104.108 401.222 104.135C398.195 104.162 395.758 104.135 395.758 104.135C395.758 104.135 398.209 104.001 401.222 103.975C404.236 103.948 406.7 103.881 406.7 103.975Z" fill="#263238"/>
<path d="M406.713 106.744C406.713 106.81 404.276 106.877 401.249 106.904C398.222 106.931 395.785 106.904 395.785 106.904C395.785 106.904 398.222 106.77 401.249 106.744C404.276 106.717 406.713 106.65 406.713 106.744Z" fill="#263238"/>
<path d="M307.162 109.941C307.162 109.941 307.243 109.941 307.39 109.941H308.019H310.363L310.296 110.008C310.296 109.486 310.296 108.924 310.296 108.309C310.296 108.001 310.296 107.707 310.296 107.346C310.375 106.959 310.695 106.668 311.087 106.623C311.462 106.623 311.797 106.623 312.198 106.623C312.638 106.695 312.961 107.075 312.961 107.521C312.961 107.525 312.961 107.529 312.961 107.533C312.961 108.322 312.961 109.138 312.961 109.994L312.854 109.887H315.801L315.694 110.008C315.694 108.817 315.694 107.587 315.694 106.329V105.312C315.67 105.029 315.517 104.772 315.278 104.617L313.939 103.279L312.694 102.048L312.091 101.46C311.89 101.259 311.716 101.045 311.475 101.005C311.407 100.986 311.337 100.977 311.266 100.977C311.101 100.977 310.939 101.029 310.805 101.125C310.631 101.286 310.43 101.5 310.256 101.674L309.198 102.731C308.528 103.426 307.859 104.068 307.336 104.657C307.225 104.911 307.168 105.186 307.168 105.464C307.168 105.561 307.175 105.658 307.189 105.754V106.784C307.189 107.426 307.189 107.975 307.189 108.456C307.189 108.938 307.189 109.232 307.189 109.526C307.196 109.59 307.199 109.656 307.199 109.72C307.199 109.785 307.196 109.85 307.189 109.914C307.182 109.978 307.189 109.794 307.189 109.553C307.189 109.312 307.189 108.924 307.189 108.51C307.189 108.095 307.189 107.466 307.189 106.824C307.189 106.49 307.189 106.142 307.189 105.767C307.189 105.393 307.189 105.379 307.189 105.192C307.189 105.19 307.189 105.189 307.189 105.187C307.189 104.967 307.249 104.751 307.363 104.563C307.899 103.908 308.555 103.306 309.225 102.597L310.27 101.527C310.451 101.331 310.644 101.141 310.845 100.965C311.02 100.832 311.234 100.76 311.454 100.76C311.538 100.76 311.621 100.77 311.703 100.791C311.974 100.898 312.214 101.073 312.399 101.299L313.002 101.888L314.261 103.119L315.6 104.376C315.721 104.486 315.834 104.608 315.935 104.737C316.029 104.885 316.08 105.057 316.082 105.232C316.082 105.54 316.082 105.861 316.082 106.169C316.082 107.426 316.082 108.657 316.082 109.834V109.955H312.908V109.848C312.908 108.991 312.908 108.175 312.908 107.386C312.908 107.378 312.908 107.37 312.908 107.362C312.908 107.017 312.659 106.722 312.319 106.664C311.984 106.664 311.582 106.664 311.247 106.664C310.933 106.694 310.676 106.929 310.618 107.239C310.608 107.394 310.603 107.551 310.603 107.707C310.603 107.863 310.608 108.02 310.618 108.175V109.941H310.618H308.247H307.417H307.162L307.162 109.941Z" fill="#263238"/>
<path d="M381.418 168.871C383.509 155.379 374.254 142.747 360.745 140.659C347.237 138.57 334.591 147.815 332.5 161.307C330.409 174.8 339.664 187.431 353.172 189.52C366.681 191.609 379.327 182.364 381.418 168.871Z" fill="#02A388"/>
<path d="M365.476 175.076H348.493V172.989C348.493 168.306 352.296 164.508 356.985 164.508C361.674 164.508 365.476 168.306 365.476 172.989V175.076H365.476Z" fill="white"/>
<path d="M356.985 165.109C359.744 165.109 361.98 162.875 361.98 160.12C361.98 157.364 359.744 155.13 356.985 155.13C354.226 155.13 351.989 157.364 351.989 160.12C351.989 162.875 354.226 165.109 356.985 165.109Z" fill="white"/>
<path d="M396.293 218.125H312.881V235.141H396.293V218.125Z" fill="#FEFEFE"/>
<path d="M396.293 242.82H312.881V259.836H396.293V242.82Z" fill="#FEFEFE"/>
<path d="M376.244 293.654H334.377C334.373 293.654 334.368 293.654 334.364 293.654C329.668 293.654 325.859 289.85 325.859 285.159C325.859 285.155 325.859 285.15 325.859 285.146V285.146C325.859 280.448 329.674 276.638 334.377 276.638L376.244 276.638C380.948 276.638 384.762 280.448 384.762 285.146V285.146C384.762 289.844 380.948 293.654 376.244 293.654V293.654V293.654Z" fill="#02A388"/>
<path d="M381.454 207.878C381.454 208.292 369.735 208.64 355.284 208.64C340.833 208.64 329.1 208.292 329.1 207.878C329.1 207.463 340.819 207.102 355.284 207.102C369.748 207.102 381.454 207.45 381.454 207.878Z" fill="#263238"/>
<path d="M324.399 230.378H320.689C320.685 230.378 320.68 230.378 320.676 230.378C320.321 230.378 320.033 230.091 320.033 229.736V229.736V229.736C320.033 229.732 320.033 229.727 320.033 229.723C320.033 228.371 321.131 227.275 322.484 227.275H322.564C323.925 227.275 325.029 228.377 325.029 229.736C325.029 229.736 325.029 229.736 325.029 229.736C325.029 230.086 324.749 230.371 324.399 230.378V230.378H324.399Z" fill="#E0E0E0"/>
<path d="M324.024 225.991C324.024 226.803 323.364 227.462 322.551 227.462C321.737 227.462 321.078 226.803 321.078 225.991C321.078 225.178 321.737 224.519 322.551 224.519C322.555 224.519 322.56 224.519 322.564 224.519C323.37 224.519 324.024 225.172 324.024 225.977C324.024 225.982 324.024 225.986 324.024 225.991Z" fill="#E0E0E0"/>
<path d="M324.747 251.595H320.354V254.699H324.747V251.595Z" fill="#E0E0E0"/>
<path d="M325.243 252.264H323.77V251.301C323.77 250.614 323.212 250.057 322.524 250.057C321.836 250.057 321.279 250.614 321.279 251.301V252.264H319.806V251.301C319.806 249.801 321.023 248.585 322.524 248.585C324.026 248.585 325.243 249.801 325.243 251.301V252.264Z" fill="#E0E0E0"/>
<path d="M307.444 24.7931H293.126C292.791 24.7613 292.45 24.7454 292.113 24.7454C290.994 24.7454 289.879 24.9206 288.814 25.2613C287.362 25.8404 286.157 26.9115 285.412 28.2843C285.015 28.9942 284.741 29.7695 284.609 30.5718C284.539 31.1257 284.502 31.6866 284.502 32.2443C284.502 32.5197 284.511 32.7988 284.528 33.0728V35.7482C284.537 35.9403 284.542 36.1368 284.542 36.3292C284.542 37.0312 284.479 37.7344 284.354 38.4249C283.958 40.3243 282.806 41.985 281.166 43.0261C280.317 43.565 279.354 43.9097 278.354 44.0301C277.336 44.1103 276.345 44.0301 275.314 44.0301L223.362 44.0298C223.268 44.033 223.17 44.0349 223.075 44.0349C222.473 44.0349 221.872 43.9648 221.287 43.8288C219.897 43.4864 218.648 42.7131 217.724 41.6222C216.764 40.5355 216.156 39.1811 215.983 37.742C215.924 37.2102 215.892 36.6683 215.892 36.1323C215.892 35.9558 215.898 35.7759 215.903 35.6014L215.902 33.5686C215.929 33.2457 215.944 32.9195 215.944 32.5949C215.944 31.4986 215.785 30.4048 215.474 29.3543C214.992 28.0006 214.097 26.8304 212.916 26.0103C211.809 25.2628 210.502 24.8627 209.165 24.8627C209.04 24.8627 208.914 24.8668 208.79 24.8732H175.763C175.485 24.8623 175.199 24.8569 174.918 24.8569C168.437 24.8569 162.287 27.7238 158.125 32.6856C155.921 35.3388 154.361 38.476 153.584 41.8351C153.369 42.6645 153.303 43.5475 153.142 44.4035C152.981 45.2597 153.075 45.8617 153.048 46.5975V399.228C153.046 399.429 153.04 399.639 153.04 399.843C153.04 401.983 153.343 404.115 153.934 406.171C155.357 410.922 158.362 415.06 162.438 417.891C166.187 420.425 170.619 421.781 175.148 421.781C175.583 421.781 176.026 421.767 176.458 421.742L220.857 421.743H278.541H306.667C311.288 421.743 315.935 421.824 320.502 421.743C325.037 421.478 329.376 419.797 332.904 416.941C334.621 415.514 336.134 413.842 337.378 411.99C338.596 410.13 339.525 408.087 340.122 405.944C340.675 403.945 340.957 401.872 340.957 399.796C340.957 399.658 340.954 399.511 340.954 399.376V392.687C340.954 383.769 340.953 374.994 340.953 366.361C340.953 296.971 341.02 234.499 341.047 182.019C341.074 129.539 341.154 87.0384 341.181 57.7282C341.181 54.0494 341.181 50.5847 341.181 47.3339C341.183 47.1829 341.186 47.0218 341.186 46.8692C341.186 43.9927 340.636 41.136 339.574 38.465C338.591 36.0577 337.182 33.8372 335.421 31.9236C333.981 30.3384 332.295 28.9822 330.439 27.9107C327.934 26.3977 325.133 25.4215 322.23 25.0482C321.49 24.9361 320.741 24.8661 319.994 24.8466H319.244H316.244L307.444 24.7929L307.444 24.7931Z" fill="#8BF7E5" stroke="#04B597" stroke-width="10" stroke-miterlimit="22.9256"/>
<path d="M323.716 60.4843C323.716 60.578 320.087 60.685 315.6 60.7251C311.113 60.7653 307.47 60.7251 307.47 60.6181C307.47 60.5111 311.1 60.4174 315.587 60.3773C320.073 60.3371 323.716 60.3906 323.716 60.4843Z" fill="#2B2A29"/>
<path d="M323.756 64.6445C323.756 64.7382 320.114 64.8452 315.627 64.872C311.14 64.8987 307.497 64.872 307.497 64.7783C307.497 64.6847 311.14 64.5776 315.627 64.5375C320.114 64.4973 323.756 64.5375 323.756 64.6445Z" fill="#2B2A29"/>
<path d="M323.783 68.7917C323.783 68.8853 320.154 68.9923 315.667 69.0324C311.18 69.0725 307.537 69.0324 307.537 68.9253C307.537 68.8183 311.167 68.7246 315.653 68.6846C320.14 68.6445 323.783 68.698 323.783 68.7917Z" fill="#2B2A29"/>
<path d="M174.516 73.5273H174.864H175.802L179.271 73.447L179.177 73.554C179.177 72.7781 179.177 71.9353 179.177 71.039C179.177 70.5708 179.177 70.1293 179.177 69.5809C179.295 69.014 179.766 68.5871 180.342 68.524C180.905 68.524 181.4 68.524 182.003 68.524C182.657 68.6234 183.141 69.1856 183.141 69.8467C183.141 69.8515 183.141 69.8572 183.141 69.862C183.141 71.0392 183.141 72.2565 183.141 73.5274L182.98 73.3668H187.36L187.186 73.5408C187.186 71.7568 187.186 69.9374 187.186 68.0824C187.186 67.6142 187.186 67.1593 187.186 66.7446C187.144 66.3239 186.918 65.942 186.57 65.7011L184.655 63.815L182.712 61.8484L181.815 60.9654C181.507 60.6711 181.266 60.3635 180.918 60.2966C180.82 60.2714 180.718 60.2583 180.616 60.2583C180.364 60.2583 180.118 60.3373 179.914 60.4838C179.646 60.7112 179.364 61.0322 179.097 61.2864L177.53 62.865C176.538 63.8951 175.507 64.8316 174.757 65.7144C174.596 66.0943 174.513 66.5046 174.513 66.9178C174.513 67.0611 174.523 67.2045 174.543 67.3465V68.8849C174.543 69.8346 174.543 70.664 174.543 71.3732C174.543 72.0822 174.543 72.5371 174.543 72.9651C174.553 73.0581 174.558 73.1524 174.558 73.2459C174.558 73.3396 174.553 73.4338 174.543 73.5269C174.533 73.6199 174.543 73.3664 174.543 73.0051C174.543 72.644 174.543 72.0688 174.543 71.4399C174.543 70.8112 174.543 69.8881 174.543 68.9383C174.543 68.4434 174.543 67.9216 174.543 67.3731C174.543 67.0923 174.543 66.7979 174.543 66.5169C174.542 66.4936 174.541 66.4694 174.541 66.4459C174.541 66.1448 174.626 65.8499 174.784 65.5939C175.588 64.6039 176.552 63.721 177.556 62.6776L179.11 61.0723C179.391 60.8047 179.619 60.5238 179.954 60.2428C180.216 60.0488 180.534 59.9443 180.861 59.9443C180.984 59.9443 181.107 59.9593 181.226 59.9886C181.637 60.1361 181.999 60.3958 182.271 60.7374L183.168 61.6204C183.784 62.2089 184.4 62.8243 185.03 63.4398L186.73 65.3129C186.907 65.4756 187.07 65.655 187.213 65.8477C187.36 66.0658 187.444 66.3211 187.454 66.5838V67.9216C187.454 69.7945 187.454 71.6138 187.454 73.3663V73.5402H187.279H182.9H182.739V73.3796C182.739 72.0419 182.739 70.8914 182.739 69.7142C182.739 69.7133 182.739 69.712 182.739 69.7111C182.739 69.1922 182.367 68.7479 181.855 68.6574C181.347 68.6574 180.757 68.6574 180.262 68.6574C179.797 68.711 179.419 69.0562 179.324 69.5133C179.324 69.9547 179.324 70.4631 179.324 70.8511V73.5266L179.23 73.5269H175.708H174.784C174.74 73.5314 174.695 73.5336 174.65 73.5336C174.605 73.5336 174.56 73.5314 174.516 73.5269H174.516L174.516 73.5273Z" fill="#263238"/>
<path d="M311.087 123.372L311.97 123.305C314.237 123.118 316.406 122.268 318.198 120.869C319.709 119.704 320.913 118.181 321.694 116.442C322.167 115.414 322.48 114.314 322.618 113.191C322.703 112.302 322.745 111.394 322.745 110.497C322.745 110.143 322.734 109.782 322.724 109.432C322.739 109.107 322.745 108.772 322.745 108.442C322.745 107.406 322.681 106.366 322.553 105.338C322.294 103.92 321.774 102.557 321.025 101.326C319.317 98.5334 316.502 96.587 313.283 95.9745C312.001 95.8203 310.71 95.7391 309.418 95.7391C308.922 95.7391 308.418 95.7506 307.925 95.7738L302.26 95.7741L181.12 95.8544C175.155 95.8671 170.188 100.434 169.683 106.369C169.575 107.707 169.683 109.232 169.683 110.65C169.671 110.886 169.663 111.128 169.663 111.367C169.663 112.524 169.815 113.678 170.111 114.796C170.875 117.459 172.568 119.768 174.879 121.299C176.007 122.044 177.269 122.582 178.59 122.877C179.691 123.087 180.816 123.197 181.94 123.197C182.16 123.197 182.389 123.191 182.607 123.184L206.473 123.185H260.929L297.64 123.279H307.631H310.216H311.1C311.1 123.279 310.805 123.279 310.216 123.279H307.631H297.64L260.929 123.359H206.473H182.593C182.332 123.371 182.061 123.377 181.797 123.377C180.667 123.377 179.536 123.268 178.427 123.051C177.041 122.739 175.719 122.173 174.53 121.392C172.097 119.798 170.32 117.37 169.535 114.57C169.22 113.404 169.061 112.201 169.061 110.994C169.061 110.755 169.068 110.512 169.079 110.276C169.079 108.831 169.079 107.44 169.079 105.955C169.595 99.7129 174.821 94.905 181.093 94.905C181.106 94.905 181.121 94.905 181.134 94.905L302.275 94.9853H307.939C308.363 94.9681 308.797 94.9602 309.223 94.9602C310.583 94.9602 311.95 95.0484 313.298 95.2133C318.192 96.1764 321.977 100.073 322.793 104.991C322.913 106.002 322.976 107.03 322.976 108.051C322.976 108.408 322.966 108.771 322.954 109.125C322.959 109.377 322.963 109.644 322.963 109.9C322.963 110.903 322.912 111.914 322.819 112.909C322.665 114.053 322.338 115.17 321.855 116.215C321.043 117.982 319.803 119.523 318.251 120.697C317.122 121.548 315.844 122.199 314.489 122.61C313.656 122.85 312.795 122.999 311.93 123.051C311.395 123.386 311.087 123.372 311.087 123.372L311.087 123.372Z" fill="#263238"/>
<path d="M319.575 93.9041H174.65C170.384 93.9041 166.925 97.3588 166.925 101.62V117.537C166.925 121.799 170.384 125.254 174.65 125.254H319.575C323.842 125.254 327.3 121.799 327.3 117.537V101.62C327.3 97.3588 323.842 93.9041 319.575 93.9041Z" fill="#FEFEFE"/>
<path d="M313.457 108.764C313.457 108.764 313.457 108.322 313.189 107.56C312.888 106.488 312.237 105.545 311.341 104.884C310.512 104.268 309.504 103.934 308.47 103.934C305.815 103.934 303.662 106.085 303.662 108.737C303.662 111.389 305.815 113.539 308.47 113.539C309.504 113.539 310.512 113.206 311.341 112.59C312.239 111.931 312.892 110.987 313.189 109.914C313.417 109.165 313.403 108.711 313.457 108.711C313.51 108.711 313.457 108.818 313.457 109.032C313.459 109.081 313.46 109.132 313.46 109.183C313.46 109.447 313.432 109.71 313.377 109.967C313.132 111.125 312.48 112.161 311.542 112.884C310.621 113.609 309.48 114.005 308.306 114.005C307.707 114.005 307.11 113.901 306.546 113.7C304.484 112.902 303.124 110.92 303.124 108.71C303.124 106.501 304.484 104.518 306.547 103.72C307.109 103.521 307.704 103.418 308.302 103.418C309.476 103.418 310.618 103.813 311.542 104.536C312.477 105.262 313.128 106.297 313.376 107.453C313.432 107.71 313.46 107.974 313.46 108.237C313.46 108.288 313.459 108.339 313.457 108.39C313.484 108.639 313.484 108.764 313.457 108.764V108.764Z" fill="#263238"/>
<path d="M316.243 117.472C315.299 116.865 314.461 116.104 313.765 115.225C312.934 114.458 312.24 113.552 311.716 112.55C312.661 113.161 313.499 113.927 314.194 114.811C315.022 115.574 315.717 116.476 316.243 117.472L316.243 117.472L316.243 117.472Z" fill="#263238"/>
<path d="M274.068 149.94C274.068 150.1 262.831 150.22 248.983 150.22C235.134 150.22 223.884 150.1 223.884 149.94C223.884 149.779 235.121 149.645 248.983 149.645C262.845 149.645 274.068 149.779 274.068 149.94Z" fill="#039E84"/>
<path d="M314.087 160.227C314.087 160.387 293.89 160.508 268.992 160.508C244.094 160.508 223.884 160.387 223.884 160.227C223.884 160.066 244.081 159.933 268.992 159.933C293.903 159.933 314.087 160.066 314.087 160.227Z" fill="#263238"/>
<path d="M313.029 167.571C313.029 167.732 293.073 167.852 268.456 167.852C243.84 167.852 223.884 167.732 223.884 167.571C223.884 167.411 243.84 167.29 268.456 167.29C293.073 167.29 313.029 167.411 313.029 167.571Z" fill="#263238"/>
<path d="M276.492 174.581C276.492 174.741 264.706 174.862 250.175 174.862C235.643 174.862 223.857 174.741 223.857 174.581C223.857 174.42 235.643 174.3 250.175 174.3C264.706 174.3 276.492 174.42 276.492 174.581Z" fill="#263238"/>
<path d="M274.068 205.858C274.068 206.005 262.831 206.138 248.983 206.138C235.134 206.138 223.884 206.005 223.884 205.858C223.884 205.71 235.121 205.563 248.983 205.563C262.845 205.563 274.068 205.644 274.068 205.858Z" fill="#039E84"/>
<path d="M314.087 216.145C314.087 216.292 293.89 216.426 268.992 216.426C244.094 216.426 223.884 216.292 223.884 216.145C223.884 215.998 244.081 215.851 268.992 215.851C293.903 215.851 314.087 215.984 314.087 216.145Z" fill="#263238"/>
<path d="M313.029 223.489C313.029 223.65 293.073 223.77 268.456 223.77C243.84 223.77 223.884 223.65 223.884 223.489C223.884 223.329 243.84 223.195 268.456 223.195C293.073 223.195 313.029 223.329 313.029 223.489Z" fill="#263238"/>
<path d="M276.492 230.499C276.492 230.646 264.706 230.78 250.175 230.78C235.643 230.78 223.857 230.646 223.857 230.499C223.857 230.352 235.643 230.205 250.175 230.205C264.706 230.205 276.492 230.339 276.492 230.499Z" fill="#263238"/>
<path d="M274.068 261.829C274.068 261.989 262.831 262.123 248.983 262.123C235.134 262.123 223.884 261.989 223.884 261.829C223.884 261.668 235.121 261.548 248.983 261.548C262.845 261.548 274.068 261.615 274.068 261.829Z" fill="#039E84"/>
<path d="M314.087 272.05C314.087 272.21 293.89 272.344 268.992 272.344C244.094 272.344 223.884 272.21 223.884 272.05C223.884 271.889 244.081 271.769 268.992 271.769C293.903 271.769 314.087 271.902 314.087 272.05Z" fill="#263238"/>
<path d="M313.029 279.407C313.029 279.554 293.073 279.688 268.456 279.688C243.84 279.688 223.884 279.554 223.884 279.407C223.884 279.26 243.84 279.113 268.456 279.113C293.073 279.113 313.029 279.22 313.029 279.407Z" fill="#263238"/>
<path d="M276.492 286.404C276.492 286.564 264.706 286.698 250.175 286.698C235.643 286.698 223.857 286.564 223.857 286.404C223.857 286.243 235.643 286.123 250.175 286.123C264.706 286.123 276.492 286.256 276.492 286.404Z" fill="#263238"/>
<path d="M274.068 317.68C274.068 317.841 262.831 317.961 248.983 317.961C235.134 317.961 223.884 317.841 223.884 317.68C223.884 317.519 235.121 317.399 248.983 317.399C262.845 317.399 274.068 317.52 274.068 317.68Z" fill="#039E84"/>
<path d="M314.087 327.967C314.087 328.128 293.89 328.248 268.992 328.248C244.094 328.248 223.884 328.128 223.884 327.967C223.884 327.807 244.081 327.687 268.992 327.687C293.903 327.687 314.087 327.807 314.087 327.967Z" fill="#263238"/>
<path d="M313.029 335.312C313.029 335.472 293.073 335.606 268.456 335.606C243.84 335.606 223.884 335.472 223.884 335.312C223.884 335.151 243.84 335.031 268.456 335.031C293.073 335.031 313.029 335.165 313.029 335.312Z" fill="#263238"/>
<path d="M276.492 342.321C276.492 342.482 264.706 342.616 250.175 342.616C235.643 342.616 223.857 342.482 223.857 342.321C223.857 342.161 235.643 342.041 250.175 342.041C264.706 342.041 276.492 342.161 276.492 342.321Z" fill="#263238"/>
<path d="M274.068 373.21C274.068 373.357 262.831 373.491 248.983 373.491C235.134 373.491 223.884 373.357 223.884 373.21C223.884 373.063 235.121 372.916 248.983 372.916C262.845 372.916 274.068 373.05 274.068 373.21Z" fill="#039E84"/>
<path d="M314.087 383.564C314.087 383.711 293.89 383.845 268.992 383.845C244.094 383.845 223.884 383.711 223.884 383.564C223.884 383.417 244.081 383.27 268.992 383.27C293.903 383.27 314.087 383.337 314.087 383.564Z" fill="#263238"/>
<path d="M313.029 390.842C313.029 391.002 293.073 391.123 268.456 391.123C243.84 391.123 223.884 391.002 223.884 390.842C223.884 390.681 243.84 390.561 268.456 390.561C293.073 390.561 313.029 390.681 313.029 390.842Z" fill="#263238"/>
<path d="M276.492 397.851C276.492 398.012 264.706 398.132 250.175 398.132C235.643 398.132 223.857 398.012 223.857 397.851C223.857 397.691 235.643 397.557 250.175 397.557C264.706 397.557 276.492 397.691 276.492 397.851Z" fill="#263238"/>
<path d="M170.138 149.52L169.967 180.207L210.842 180.435L211.013 149.748L170.138 149.52Z" fill="#04B597"/>
<path d="M169.963 180.213L184.348 161.217L193.133 173.203L199.16 166.849L210.852 180.44L169.963 180.213Z" fill="#13F7D2"/>
<path d="M196.964 158.943C196.964 160.723 195.519 162.167 193.736 162.167C191.954 162.167 190.509 160.723 190.509 158.943C190.509 157.163 191.954 155.719 193.736 155.719C193.745 155.719 193.754 155.719 193.763 155.719C195.533 155.726 196.964 157.162 196.964 158.929C196.964 158.934 196.964 158.938 196.964 158.943H196.964H196.964Z" fill="#13F7D2"/>
<path d="M169.963 180.213L184.348 161.217L193.133 173.203L199.16 166.849L210.852 180.44L169.963 180.213Z" fill="#99FAEA" fill-opacity="0.2" stroke="#99FAEA" stroke-opacity="0.2" stroke-width="0.0762046" stroke-miterlimit="22.9256"/>
<path d="M196.964 158.943C196.964 160.723 195.519 162.167 193.736 162.167C191.954 162.167 190.509 160.723 190.509 158.943C190.509 157.163 191.954 155.719 193.736 155.719C193.745 155.719 193.754 155.719 193.763 155.719C195.533 155.726 196.964 157.162 196.964 158.929C196.964 158.934 196.964 158.938 196.964 158.943H196.964H196.964Z" fill="#99FAEA" fill-opacity="0.2"/>
<path d="M170.15 204.729L169.978 235.416L210.853 235.644L211.025 204.957L170.15 204.729Z" fill="#04B597"/>
<path d="M169.963 235.408L184.348 216.412L193.133 228.399L199.16 222.058L210.852 235.649L169.963 235.408Z" fill="#13F7D2"/>
<path d="M196.964 214.152C196.957 215.927 195.514 217.362 193.736 217.362C191.954 217.362 190.509 215.918 190.509 214.138C190.509 212.358 191.954 210.914 193.736 210.914C193.745 210.914 193.754 210.914 193.763 210.914C195.533 210.921 196.964 212.357 196.964 214.125C196.964 214.133 196.964 214.143 196.964 214.152H196.964L196.964 214.152Z" fill="#13F7D2"/>
<path d="M169.963 235.408L184.348 216.412L193.133 228.399L199.16 222.058L210.852 235.649L169.963 235.408Z" fill="#99FAEA" fill-opacity="0.2"/>
<path d="M196.964 214.152C196.957 215.927 195.514 217.362 193.736 217.362C191.954 217.362 190.509 215.918 190.509 214.138C190.509 212.358 191.954 210.914 193.736 210.914C193.745 210.914 193.754 210.914 193.763 210.914C195.533 210.921 196.964 212.357 196.964 214.125C196.964 214.133 196.964 214.143 196.964 214.152H196.964L196.964 214.152Z" fill="black" fill-opacity="0.039216"/>
<path d="M170.136 259.938L169.964 290.625L210.839 290.854L211.011 260.166L170.136 259.938Z" fill="#04B597"/>
<path d="M169.963 290.617L184.348 271.621L193.133 283.608L199.16 277.253L210.852 290.845L169.963 290.617Z" fill="#13F7D2"/>
<path d="M196.964 269.361C196.957 271.136 195.514 272.571 193.736 272.571C191.954 272.571 190.509 271.127 190.509 269.347C190.509 267.567 191.954 266.123 193.736 266.123C193.745 266.123 193.754 266.123 193.763 266.123C195.537 266.145 196.964 267.588 196.964 269.36V269.361H196.964L196.964 269.361Z" fill="#13F7D2"/>
<path d="M169.963 290.617L184.348 271.621L193.133 283.608L199.16 277.253L210.852 290.845L169.963 290.617Z" fill="#99FAEA" fill-opacity="0.2"/>
<path d="M196.964 269.361C196.957 271.136 195.514 272.571 193.736 272.571C191.954 272.571 190.509 271.127 190.509 269.347C190.509 267.567 191.954 266.123 193.736 266.123C193.745 266.123 193.754 266.123 193.763 266.123C195.537 266.145 196.964 267.588 196.964 269.36V269.361H196.964L196.964 269.361Z" fill="#99FAEA" fill-opacity="0.2"/>
<path d="M170.149 315.135L169.977 345.822L210.852 346.05L211.024 315.363L170.149 315.135Z" fill="#04B597"/>
<path d="M169.963 345.826L184.348 326.83L193.133 338.816L199.16 332.462L210.852 346.054L169.963 345.826Z" fill="#13F7D2"/>
<path d="M196.964 324.556C196.964 326.336 195.519 327.78 193.736 327.78C191.954 327.78 190.509 326.336 190.509 324.556C190.509 322.776 191.954 321.332 193.736 321.332C193.745 321.332 193.754 321.332 193.763 321.332C195.533 321.339 196.964 322.775 196.964 324.542C196.964 324.547 196.964 324.551 196.964 324.556L196.964 324.556L196.964 324.556Z" fill="#13F7D2"/>
<path d="M169.963 345.826L184.348 326.83L193.133 338.816L199.16 332.462L210.852 346.054L169.963 345.826Z" fill="#99FAEA" fill-opacity="0.2"/>
<path d="M196.964 324.556C196.964 326.336 195.519 327.78 193.736 327.78C191.954 327.78 190.509 326.336 190.509 324.556C190.509 322.776 191.954 321.332 193.736 321.332C193.745 321.332 193.754 321.332 193.763 321.332C195.533 321.339 196.964 322.775 196.964 324.542C196.964 324.547 196.964 324.551 196.964 324.556L196.964 324.556L196.964 324.556Z" fill="#99FAEA" fill-opacity="0.039216"/>
<path d="M170.135 370.075L169.963 400.762L210.838 400.99L211.01 370.303L170.135 370.075Z" fill="#04B597" stroke="#02A388" stroke-width="0.447941" stroke-miterlimit="22.9256"/>
<path d="M169.963 400.754L184.348 381.758L193.133 393.745L199.16 387.404L210.852 400.982L169.963 400.754Z" fill="#13F7D2"/>
<path d="M196.964 379.551C196.957 381.326 195.514 382.761 193.736 382.761C191.954 382.761 190.509 381.317 190.509 379.537C190.509 377.757 191.954 376.313 193.736 376.313C193.745 376.313 193.754 376.313 193.763 376.313C195.537 376.335 196.964 377.778 196.964 379.55V379.551L196.964 379.551L196.964 379.551Z" fill="#13F7D2"/>
<path d="M169.963 400.754L184.348 381.758L193.133 393.745L199.16 387.404L210.852 400.982L169.963 400.754Z" fill="#99FAEA" fill-opacity="0.2"/>
<path d="M196.964 379.551C196.957 381.326 195.514 382.761 193.736 382.761C191.954 382.761 190.509 381.317 190.509 379.537C190.509 377.757 191.954 376.313 193.736 376.313C193.745 376.313 193.754 376.313 193.763 376.313C195.537 376.335 196.964 377.778 196.964 379.55V379.551L196.964 379.551L196.964 379.551Z" fill="#99FAEA" fill-opacity="0.039216"/>
<path d="M491.61 100.253C493.45 92.4274 488.591 84.5937 480.757 82.7554C472.923 80.9171 465.08 85.7705 463.239 93.5957C461.399 101.421 466.258 109.255 474.092 111.093C481.927 112.931 489.769 108.078 491.61 100.253Z" fill="#13F7D2"/>
<path d="M476.532 101.674C476.378 101.672 476.231 101.615 476.117 101.513L471.201 97.4998C471.045 97.3718 470.954 97.18 470.954 96.978C470.954 96.6053 471.256 96.3031 471.63 96.3031C471.786 96.3031 471.937 96.3572 472.058 96.4563L476.438 100.068L482.666 92.4564C482.798 92.3048 482.99 92.2175 483.191 92.2175C483.345 92.2175 483.495 92.2685 483.616 92.3627C483.77 92.4898 483.859 92.679 483.859 92.8784C483.859 93.0316 483.807 93.1804 483.71 93.2992L477.014 101.433C476.902 101.573 476.737 101.66 476.558 101.674H476.531H476.532Z" fill="white"/>
<path d="M414.535 96.938C425.571 96.938 434.517 88.0019 434.517 76.9788C434.517 65.9556 425.571 57.0195 414.535 57.0195C403.499 57.0195 394.552 65.9556 394.552 76.9788C394.552 88.0019 403.499 96.938 414.535 96.938Z" fill="#13F7D2"/>
<path d="M413.329 83.9081C413.328 83.9081 413.326 83.9081 413.324 83.9081C413.019 83.9081 412.723 83.804 412.486 83.6139L405.789 78.0756C405.481 77.8217 405.303 77.4433 405.303 77.0445C405.303 76.7381 405.409 76.4409 405.602 76.2027C405.856 75.8918 406.237 75.7108 406.639 75.7108C406.95 75.7108 407.251 75.8185 407.49 76.0153L413.169 80.684L421.419 70.5305C421.673 70.2231 422.052 70.0452 422.451 70.0452C422.758 70.0452 423.056 70.1506 423.294 70.3433C423.605 70.5972 423.787 70.9782 423.787 71.3798C423.787 71.6897 423.679 71.9904 423.482 72.2296L414.374 83.3731C414.142 83.6419 413.817 83.8139 413.464 83.8546L413.33 83.9081H413.329Z" fill="white"/>
<path d="M329.783 348.007C311.874 342.938 299.509 326.598 299.509 308.005C299.509 305.269 299.784 302.528 300.317 299.848C299.942 300.865 299.581 301.908 299.273 302.979C298.365 306.434 297.897 310.009 297.897 313.585C297.897 336.559 316.549 355.189 339.55 355.189C357.871 355.189 374.053 343.223 379.392 325.72C379.7 324.65 379.941 323.566 380.155 322.496C374.099 338.777 358.529 349.584 341.138 349.584C337.302 349.584 333.475 349.046 329.785 348.005L329.783 348.007L329.783 348.007Z" fill="#039E84"/>
<path d="M350.315 274.484C368.217 279.564 380.585 295.909 380.585 314.504C380.585 317.237 380.315 319.965 379.781 322.641C380.156 321.611 380.518 320.568 380.812 319.498C381.906 315.739 382.461 311.829 382.461 307.909C382.461 284.943 363.814 266.319 340.821 266.319C322.129 266.319 305.715 278.774 300.707 296.759C300.399 297.829 300.158 298.899 299.944 299.982C306.004 283.707 321.57 272.906 338.955 272.906C342.792 272.906 346.624 273.439 350.313 274.484H350.315L350.315 274.484Z" fill="#039E84"/>
<path d="M381.266 319.232C381.266 319.232 381.266 319.004 381.387 318.563C381.507 318.122 381.615 317.453 381.789 316.637C381.882 316.209 381.99 315.727 382.11 315.205C382.231 314.684 382.244 314.095 382.324 313.466C382.534 312.028 382.652 310.56 382.66 309.103C382.668 308.707 382.678 308.289 382.678 307.886C382.678 304.289 382.187 300.702 381.228 297.237C378.139 285.793 370.282 276.204 359.663 270.914C358.088 270.146 356.45 269.461 354.787 268.904C353.943 268.636 353.1 268.302 352.229 268.074L349.55 267.459C349.108 267.365 348.666 267.245 348.211 267.178L346.872 267.004C345.948 266.897 345.024 266.75 344.073 266.683C343.122 266.627 342.159 266.59 341.201 266.59C340.243 266.59 339.28 266.627 338.327 266.685C336.37 266.819 334.424 267.091 332.505 267.486C331.54 267.714 330.589 268.008 329.612 268.262C328.636 268.523 327.673 268.851 326.743 269.24C324.829 269.959 322.951 270.82 321.147 271.783C319.343 272.826 317.594 274.007 315.947 275.288C312.538 277.91 309.561 281.083 307.164 284.651C302.489 291.463 299.98 299.547 299.98 307.811C299.98 308.437 300 309.072 300.025 309.692C300.2 313.986 301.074 318.229 302.597 322.242C303.313 324.193 304.188 326.116 305.18 327.943C306.201 329.715 307.346 331.429 308.597 333.048C309.18 333.872 309.827 334.659 310.523 335.392C311.219 336.114 311.862 336.877 312.572 337.572C313.997 338.913 315.524 340.179 317.11 341.32C318.66 342.435 320.302 343.466 321.977 344.381C322.808 344.809 323.678 345.17 324.522 345.571L325.794 346.146C326.223 346.334 326.665 346.454 327.134 346.614L329.732 347.497C330.589 347.752 331.486 347.925 332.344 348.139C334.043 348.54 335.794 348.83 337.539 348.984C338.787 349.098 340.042 349.153 341.297 349.153C351.863 349.153 362.039 345.134 369.746 337.919C372.691 335.202 375.217 332.034 377.207 328.558C377.966 327.311 378.643 326.004 379.216 324.663C379.484 324.088 379.752 323.566 379.953 323.071L380.435 321.734C380.729 320.944 380.944 320.316 381.104 319.874C381.265 319.433 381.359 319.245 381.359 319.245C381.359 319.245 381.359 319.473 381.171 319.901C380.984 320.329 380.823 320.971 380.569 321.787C380.435 322.202 380.287 322.657 380.113 323.125C379.939 323.593 379.658 324.168 379.403 324.744C378.858 326.1 378.198 327.43 377.449 328.69C375.468 332.204 372.957 335.409 370.017 338.175C362.246 345.561 351.916 349.682 341.187 349.682C339.952 349.682 338.716 349.626 337.485 349.519C335.718 349.367 333.947 349.074 332.219 348.675C331.335 348.461 330.437 348.3 329.54 348.033L326.861 347.15C326.433 346.989 325.978 346.869 325.522 346.682L324.183 346.093C323.326 345.692 322.442 345.331 321.598 344.889C319.901 343.979 318.247 342.942 316.672 341.825C315.053 340.672 313.499 339.393 312.052 338.028C311.328 337.319 310.712 336.557 309.962 335.821C309.258 335.08 308.601 334.284 308.006 333.452C306.733 331.808 305.564 330.06 304.525 328.261C303.507 326.395 302.605 324.452 301.845 322.467C300.271 318.393 299.358 314.073 299.165 309.705C299.138 309.053 299.118 308.377 299.118 307.717C299.118 299.355 301.668 291.175 306.414 284.29C308.859 280.675 311.89 277.464 315.361 274.817C317.032 273.518 318.813 272.325 320.65 271.272C322.485 270.304 324.392 269.431 326.33 268.692C327.278 268.304 328.255 267.973 329.247 267.714C330.238 267.46 331.202 267.153 332.194 266.938C334.139 266.534 336.127 266.256 338.114 266.125C339.074 266.066 340.058 266.028 341.026 266.028C341.994 266.028 342.979 266.066 343.941 266.126C344.906 266.193 345.843 266.353 346.794 266.46L348.133 266.634C348.602 266.701 349.057 266.835 349.473 266.942L352.151 267.557C353.035 267.798 353.892 268.132 354.749 268.413C356.432 268.982 358.085 269.678 359.674 270.472C370.411 275.859 378.316 285.612 381.361 297.223C382.271 300.571 382.735 304.036 382.735 307.505C382.735 308.064 382.721 308.633 382.697 309.187C382.677 310.649 382.54 312.127 382.298 313.574C382.204 314.203 382.15 314.791 382.043 315.327C381.936 315.862 381.802 316.317 381.708 316.745C381.494 317.565 381.333 318.206 381.226 318.67C381.333 319.018 381.266 319.232 381.266 319.232L381.266 319.232Z" fill="#263238"/>
<path d="M365.436 342.95C365.971 343.312 405.401 379.631 419.919 393.223C421.087 394.318 422.633 394.929 424.236 394.929C425.88 394.929 427.46 394.288 428.638 393.143H428.638C429.872 391.955 430.569 390.317 430.569 388.605C430.569 386.856 429.839 385.183 428.557 383.992L374.436 334.068L365.436 342.95H365.436Z" fill="#039E84"/>
<path fill-rule="evenodd" clip-rule="evenodd" d="M119.864 6.61864C122.43 7.09142 124.805 8.10331 126.872 9.52985L131.539 4.90179L136.264 9.65419L131.614 14.274C133.025 16.3225 134.03 18.678 134.512 21.2243L140.914 21.1828L140.955 27.8759L134.536 27.9174C134.063 30.5383 133.025 32.9683 131.564 35.0752L136.313 39.4708L131.763 44.389L126.797 39.8024C124.73 41.2041 122.372 42.1994 119.822 42.6638L119.789 49.357L113.088 49.3237L113.122 42.6555C110.68 42.1995 108.413 41.2621 106.412 39.9435L101.912 44.4221L97.1786 39.6781L101.579 35.2989C100.035 33.1425 98.9389 30.6295 98.4491 27.909L92.1052 27.9504L92.0637 21.2573L98.474 21.2159C98.939 18.7691 99.8856 16.4966 101.223 14.5063L96.7302 9.72074L101.621 5.14239L105.906 9.70402C108.04 8.19443 110.506 7.12464 113.171 6.63536V0.000244141H119.872V6.64367L119.864 6.61864H119.864ZM116.493 16.6211C120.919 16.6211 124.506 20.2041 124.506 24.6247C124.506 29.0454 120.918 32.6282 116.493 32.6282C112.067 32.6282 108.48 29.0452 108.48 24.6247C108.48 20.204 112.067 16.6211 116.493 16.6211Z" fill="#13F7D2"/>
</g>
<defs>
<clipPath id="clip0">
<rect width="492" height="475" fill="white"/>
</clipPath>
</defs>
</svg>
