<?xml version="1.0" encoding="UTF-8"?>
<!DOCTYPE svg PUBLIC "-//W3C//DTD SVG 1.1//EN" "http://www.w3.org/Graphics/SVG/1.1/DTD/svg11.dtd">
<!-- Creator: CorelDRAW 2020 (64-Bit) -->
<svg xmlns="http://www.w3.org/2000/svg" xml:space="preserve" width="36.1324mm" height="43.8981mm" version="1.1" style="shape-rendering:geometricPrecision; text-rendering:geometricPrecision; image-rendering:optimizeQuality; fill-rule:evenodd; clip-rule:evenodd"
viewBox="0 0 44.06 53.53"
 xmlns:xlink="http://www.w3.org/1999/xlink"
 xmlns:xodm="http://www.corel.com/coreldraw/odm/2003">
 <defs>
  <style type="text/css">
   <![CDATA[
    .fil0 {fill:#39393B}
   ]]>
  </style>
 </defs>
 <g id="Layer_x0020_1">
  <metadata id="CorelCorpID_0Corel-Layer"/>
  <path class="fil0" d="M18.55 47.49c0.2,1.75 -1.08,2.97 -2.75,3 -0.86,-0.05 -1.66,-0.5 -2.13,-1.23 -0.45,-0.81 -0.6,-1.56 -0.16,-2.51 1.13,-2.48 4.76,-1.79 5.04,0.74zm-16.08 -46.26c-0.64,0.49 -1.07,0.95 -1.47,1.62 -1.5,2.47 -0.86,9.17 -0.86,12.2l-0 28.39c0.01,0.96 -0,1.93 -0,2.89 -0,0.85 0.15,2.05 0.11,2.74 0.2,0.2 0.44,1 0.62,1.33 2.18,3.97 6.65,3.04 11.4,3.02l12.39 0c1.9,-0.01 2.02,-0.06 3.67,-0.49 1.06,-0.84 2.49,-1.33 3.17,-3.79 0.37,-1.31 0.23,-3.67 0.2,-5.29l-28.18 0.34 -0.02 -3.1 0 -1.88 -0 -2.27 0 -1.87 -0 -2.25 0 -1.87 -0 -2.27 0 -1.87 -0 -2.25 0 -1.87 -0 -2.27 0 -1.86 -0 -2.27 0 -1.87 -0 -2.25 0 -1.87 -0 -2.27 0.02 -2.99c0.18,-0.25 20.92,-0.28 24.84,-0.09l0 4.34 3.38 -0.01c-0.11,-0.79 -0.03,-1.87 -0.03,-2.7 -0,-1.19 -0.08,-2.1 -0.57,-3.18 -0.12,-0.27 -0.22,-0.42 -0.37,-0.66 -0.78,-1.2 -2.04,-2.15 -3.57,-2.51 -1.67,-0.39 -6.05,-0.17 -8.02,-0.17l-12.18 0c-1.65,0 -3.18,0.14 -4.53,1.16z"/>
  <path class="fil0" d="M34.2 26.97c0.01,0.84 -0.9,1.74 -1.34,2.08 -0.64,0.49 -1.4,0.86 -2.46,0.9 -2.21,-0.02 -3.89,-1.42 -4.2,-3.33 -0.17,-0.54 -0.14,-1.49 0.06,-1.95 0.2,-1.02 1.02,-1.98 1.69,-2.4 0.44,-0.28 2.43,-1.14 3.04,-0.56 1.3,-0.07 3.24,1.7 3.22,2.87 0.36,0.38 0.42,2 -0.01,2.39zm-9.64 -9.68c-0.46,-0.44 -0.87,-0.86 -1.34,-1.33 -0.45,-0.45 -0.93,-0.84 -1.3,-1.33 -0.63,0.87 -2.19,1.94 -2.73,2.81l2.6 2.66c-0.67,1.13 -1.24,2.41 -1.48,3.72l-2.47 0 -1.34 0.01 -0 0.72 0 2.27 -0.05 0.86 3.81 0.02c0.21,0.53 0.3,1.13 0.5,1.67 0.27,0.73 0.63,1.47 1.05,2.12l-2.6 2.67 0.63 0.67 0.32 0.32 1.83 1.75 2.56 -2.63c0.58,0.16 2.98,1.21 3.8,1.52l-0 3.75 3.86 0.01c0.01,-0.66 -0.01,-1.33 -0,-1.99 0,-1.26 -0.18,-1.72 0.29,-1.84 1.24,-0.35 2.4,-0.81 3.51,-1.45l2.52 2.58c0.46,-0.19 0.76,-0.63 1.09,-0.95 0.27,-0.27 0.68,-0.8 1.05,-0.91 0.1,-0.35 0.39,-0.51 0.71,-0.86l-2.59 -2.66c0.51,-1.39 1.12,-2.2 1.53,-3.77l3.76 -0.01 0 -1.06 0 -1.88 -0 -0.93 -1.44 -0 -2.35 -0.03c-0.11,-0.63 -0.25,-1.1 -0.49,-1.68 -0.31,-0.77 -0.67,-1.35 -1.04,-2.04l2.62 -2.63c-0.18,-0.39 -2.35,-2.51 -2.77,-2.77l-2.6 2.62 -3.55 -1.5c-0.3,-0.14 -0.16,0.1 -0.23,-0.23l-0.04 -3.59 -1.92 -0 -1.87 -0.06 -0.05 3.82c-1.67,0.47 -2.32,0.86 -3.78,1.56z"/>
  <polygon class="fil0" points="13.82,25.55 13.79,24.19 13.79,22.38 13.79,21.82 11.7,21.81 9.72,21.81 7.57,21.81 6.37,21.77 6.33,25.56 "/>
  <polygon class="fil0" points="10.23,37.61 15.32,37.59 15.28,36.45 15.28,34.72 15.35,34.05 6.34,34.03 6.33,37.6 "/>
  <polygon class="fil0" points="10.23,13.62 15.32,13.6 15.28,12.47 15.28,10.73 15.35,10.07 6.34,10.05 6.33,13.62 "/>
 </g>
</svg>
