<?xml version="1.0" encoding="UTF-8"?>
<!DOCTYPE svg PUBLIC "-//W3C//DTD SVG 1.1//EN" "http://www.w3.org/Graphics/SVG/1.1/DTD/svg11.dtd">
<!-- Creator: CorelDRAW 2020 (64-Bit) -->
<svg xmlns="http://www.w3.org/2000/svg" xml:space="preserve" width="127.382mm" height="164.432mm" version="1.1" style="shape-rendering:geometricPrecision; text-rendering:geometricPrecision; image-rendering:optimizeQuality; fill-rule:evenodd; clip-rule:evenodd"
viewBox="0 0 662.96 855.78"
 xmlns:xlink="http://www.w3.org/1999/xlink"
 xmlns:xodm="http://www.corel.com/coreldraw/odm/2003">
 <defs>
  <style type="text/css">
   <![CDATA[
    .fil0 {fill:black}
   ]]>
  </style>
 </defs>
 <g id="Layer_x0020_1">
  <metadata id="CorelCorpID_0Corel-Layer"/>
  <g id="_2043043481952">
   <path class="fil0" d="M62.44 479.31l0 -277.3c40.95,0 116.88,-20.59 152.18,-35.13 21.86,-9.01 42.5,-19.38 62.33,-31.32 33.5,-20.17 36.75,-27.54 55.44,-40.06 14.2,21.21 91.5,61.31 115.94,71.38 33.07,13.63 72.76,24.2 109.4,30.17 11.38,1.85 29.26,4.97 42.78,4.97l0 277.3c0,58.28 -23.75,112.28 -57.45,157.41 -5.1,6.84 -10.63,14.45 -16.43,20.3l-17.63 19.1c-3.87,3.21 -5.03,3.46 -9.07,7.46 -35.26,34.92 -75.69,57.53 -118.04,82.14 -4.89,2.84 -47.34,23.23 -49.76,23.38 -9.03,0.57 -82.79,-40.71 -95.26,-48.99l-62.69 -45.66c-17.4,-13.93 -23.65,-23.46 -36.01,-35.61l-32.02 -41.43c-5,-8 -8.56,-14.86 -13.56,-23.17 -4.47,-7.43 -7.47,-15.47 -11.02,-23.88 -11.25,-26.7 -19.14,-60.64 -19.14,-91.05zm-62.44 -336.07l0 323.21c0,155.48 97.66,260.59 210.13,329.79 19.35,11.9 37.71,21.85 57.99,31.99 7.11,3.56 57.36,27.55 62.44,27.55 15.32,0 103.32,-48.12 121.12,-58.85 112.83,-67.98 211.27,-175.68 211.27,-330.48l0 -323.21c-107.41,0 -197.03,-22.95 -274.16,-80.27 -22.13,-16.44 -43.39,-38.38 -56.4,-62.97 -4.61,3.38 -18.48,29.27 -39.96,48.19 -77.13,67.97 -180.8,95.05 -292.44,95.05z"/>
   <path class="fil0" d="M306.69 488.49c0,-35.54 49.58,-31.88 49.58,-1.84 0,12.74 -8.09,19.41 -16.53,23.87 0.51,6.07 9.21,45.82 11.02,49.58l-38.57 0c1.81,-3.76 10.51,-43.51 11.02,-49.58 -4.94,-2.61 -6.82,-3.11 -10.61,-7.76 -2.18,-2.68 -5.92,-10.41 -5.92,-14.28zm-97.33 88.15c0,27.15 82.62,56.93 121.21,56.93 40.9,0 123.04,-29.59 123.04,-56.93l0 -170.79 -244.25 0 0 170.79z"/>
   <path class="fil0" d="M240.57 328.72l0 62.44c0,8.77 12.3,5.51 34.89,5.51 7.43,0 5.74,-6.79 5.62,-14.58l0.06 -62.38c2.15,-18.45 23.2,-40.57 43.91,-40.57l12.86 0c20.62,0 40.86,21.68 43.68,38.96l0.33 62.11c-0.33,19.78 -4.61,16.46 34.96,16.46 4.23,0 5.51,-1.28 5.51,-5.51l0 -62.44c0,-48.59 -39.15,-89.99 -93.66,-89.99 -47.42,0 -88.15,42.26 -88.15,89.99z"/>
  </g>
 </g>
</svg>
