<?xml version="1.0" encoding="UTF-8"?>
<!DOCTYPE svg PUBLIC "-//W3C//DTD SVG 1.1//EN" "http://www.w3.org/Graphics/SVG/1.1/DTD/svg11.dtd">
<!-- Creator: CorelDRAW 2020 (64-Bit) -->
<svg xmlns="http://www.w3.org/2000/svg" xml:space="preserve" width="1144.36mm" height="1096.27mm" version="1.1" style="shape-rendering:geometricPrecision; text-rendering:geometricPrecision; image-rendering:optimizeQuality; fill-rule:evenodd; clip-rule:evenodd"
viewBox="0 0 51815.04 49637.25"
 xmlns:xlink="http://www.w3.org/1999/xlink"
 xmlns:xodm="http://www.corel.com/coreldraw/odm/2003">
 <defs>
  <style type="text/css">
   <![CDATA[
    .fil6 {fill:#039E84;fill-rule:nonzero}
    .fil11 {fill:#0DAD93;fill-rule:nonzero}
    .fil0 {fill:#13F7D2;fill-rule:nonzero}
    .fil2 {fill:#263238;fill-rule:nonzero}
    .fil8 {fill:#455A64;fill-rule:nonzero}
    .fil4 {fill:#E0E0E0;fill-rule:nonzero}
    .fil5 {fill:#EBEBEB;fill-rule:nonzero}
    .fil9 {fill:whitesmoke;fill-rule:nonzero}
    .fil3 {fill:#FAFAFA;fill-rule:nonzero}
    .fil1 {fill:#FFBE9D;fill-rule:nonzero}
    .fil12 {fill:white;fill-rule:nonzero}
    .fil7 {fill:white;fill-rule:nonzero;fill-opacity:0.200000}
    .fil10 {fill:black;fill-rule:nonzero;fill-opacity:0.400000}
   ]]>
  </style>
 </defs>
 <g id="Layer_x0020_1">
  <metadata id="CorelCorpID_0Corel-Layer"/>
  <g id="_2845462880544">
   <path class="fil0" d="M8444.56 5579.27l1694.97 -152.31 313.91 3493.37c37.06,412 -267.04,776.14 -679.04,813.16l-201.39 18.1c-411.97,37.02 -776.11,-267.07 -813.13,-679.08l-313.94 -3493.37 -1.38 0.13z"/>
   <polygon class="fil1" points="8444.56,5579.27 9151.7,3948.88 10139.54,5426.96 "/>
   <path class="fil0" d="M8871.83 4594.1c0,0 292.72,364.36 671.64,-60.36l-390.4 -584.98 -281.24 645.34z"/>
   <path class="fil2" d="M10461.64 8748.6c-210.86,44.87 -426.37,77.47 -641.75,96.82 -72.24,6.49 -145.28,11.07 -217.1,14.87 -71.06,9.03 -144.13,17.59 -216.08,24.05 -215.21,19.34 -432.26,25.67 -647.79,19.32 210.9,-45.2 425.6,-77.67 640.81,-97.01 71.95,-6.46 145.38,-11.08 216.94,-14.89 71.32,-9.02 144,-17.54 216.25,-24.03 215.38,-19.36 433.25,-25.69 648.99,-19.26l-0.26 0.12z"/>
   <path class="fil2" d="M10414.77 8490.04c-206.93,44.41 -417.38,76.67 -628.38,95.62 -70.53,6.34 -142.52,10.89 -212.65,14.67 -69.42,8.75 -141.07,17.11 -211.6,23.45 -211.01,18.96 -423.83,24.74 -635.28,17.73 207.74,-42.4 419.92,-74.9 631.95,-93.96 69.35,-6.23 140.2,-10.58 209.07,-14.75 68.38,-8.16 138.87,-16.52 208.22,-22.75 212.03,-19.05 426.6,-24.89 638.78,-19.76l-0.09 -0.26z"/>
   <path class="fil3" d="M8944.67 5559.36c17.93,-1.61 95.2,672.68 170.18,1507.06 74.98,834.38 119.77,1518.55 101.84,1520.16 -17.93,1.61 -95.33,-674.06 -170.8,-1513.96 -75.47,-839.9 -120.53,-1511.53 -101.22,-1513.26z"/>
   <path class="fil3" d="M9630.1 5497.77c19.31,-1.73 95.2,672.68 170.18,1507.07 74.98,834.38 121.15,1518.42 101.84,1520.16 -19.31,1.73 -95.32,-674.06 -170.8,-1513.96 -75.47,-839.9 -120.53,-1511.53 -101.22,-1513.26z"/>
   <polygon class="fil2" points="40807.05,42033.81 47333.81,42313.21 47491.63,42693.15 43212.94,49637.25 35490.25,49411.63 "/>
   <polygon class="fil4" points="35197.99,48734.76 42966.27,49178.99 47025.18,42881.36 44175.06,43112.84 36963.24,45651.99 "/>
   <g>
    <path class="fil5" d="M34106.11 48268.31l7131.15 116.9c-295.77,-913.02 402.15,-2197.8 1361.93,-2630.34 635.96,-286.41 1831.89,-658.17 2449.14,-974.98 1169.04,-602.05 2232.87,-1740.7 2140.51,-2719.19l-2931.95 -97.03 -3740.93 -144.96c-313.3,928.22 -981.99,1534.95 -1999.06,1900.86 -909.52,327.33 -1945.28,326.16 -2833.76,701.42 -1428.57,598.55 -2114.8,2537.99 -1582.88,3850.82l5.85 -3.51zm0 0l0 0 0 0z"/>
   </g>
   <path class="fil2" d="M34106.11 48268.31c0,0 -7.02,-15.2 -17.54,-46.76l-49.1 -136.78c-25.8,-76.09 -46.29,-154.78 -60.68,-233.89 -23.85,-106.69 -40.36,-215.96 -49.07,-324.96 -6.18,-82.62 -9.44,-166.2 -9.44,-249.34 0,-220.53 22.4,-441.85 65.63,-657.9 82.42,-401.31 238.46,-785.43 458.24,-1131.44 61.68,-100.12 130.6,-196.56 204.53,-287.67 38.58,-45.59 75.99,-95.86 116.9,-140.28l132.1 -134.44c44.09,-46.15 91.8,-88.76 142.57,-127.48 50.27,-40.92 99.37,-84.17 153.15,-122.75 110.95,-78.07 228.8,-148.19 350.82,-208.09 494.5,-249 1084.87,-350.71 1699.79,-467.61 308.63,-56.11 626.61,-116.9 944.59,-202.25 326.81,-89.23 643.42,-217.08 941.14,-378.88 153.39,-83.11 300.94,-179.86 438.28,-287.58 141.59,-108.97 272.39,-232.73 389.07,-368.06 241.99,-279.54 426.62,-605.29 542.41,-956.39l7.01 -19.88 19.99 0.09 3115.49 116.9c1081.36,42.08 2200.13,71.31 3345.8,109.89l208.09 7.02 25.72 0 0 25.72c2.5,36.71 3.87,74.04 3.87,110.97 0,186.99 -33.04,372.84 -97.39,548.37 -36.8,103.76 -81.17,205.97 -131.04,303.89 -51.13,96.39 -108.89,190.39 -170.6,280.46 -246.08,353.44 -544.97,669.8 -883.57,935.29 -328.03,260.7 -687.12,482.81 -1067.36,658.2 -376.43,169.51 -757.54,307.45 -1130.46,445.4 -372.93,137.95 -742.34,268.88 -1091.89,420.85 -171.9,76.32 -334.1,174.86 -480.56,292.31 -75.99,53.78 -139.12,122.75 -208.09,182.37 -68.97,59.62 -128.6,132.1 -183.54,205.75 -227.35,274.53 -397.81,593.4 -499.34,935.26 -54.17,170.76 -82.03,349.18 -82.03,528.46 0,158.66 21.91,317.28 64.66,469.98l10.52 31.56 -32.81 -0.08 -5189.37 -91.19 -1439.09 -29.23 -376.43 -10.52 -129.76 0c0,0 44.42,0 129.76,0l377.6 0 1439.09 16.37 5188.21 72.48 -22.21 30.4c-45.12,-158.29 -68.33,-323.18 -68.33,-488.05 0,-182.65 28.2,-364.46 83.53,-538.43 101.54,-349.74 274.39,-675.84 506.28,-956.3 54.95,-74.82 123.92,-139.11 185.88,-209.26 61.96,-70.14 135.61,-132.1 212.76,-188.21 149.45,-120.41 315.09,-221.17 491.03,-298.19 350.71,-154.31 722.47,-286.41 1095.39,-424.36 372.93,-137.95 752.86,-277.06 1125.79,-445.41 374.7,-173.05 729.65,-393.38 1052.02,-651.93 334.24,-262.09 629.33,-573.36 872.3,-921.62 60.37,-86.87 117.99,-177.92 169.48,-270.91 48.46,-95.56 91.6,-194.76 127.29,-295.77 62.35,-170.34 94.58,-350.77 94.58,-532.33 0,-34.13 -1.14,-68.64 -3.39,-102.57l28.05 25.72 -209.26 -5.85c-1145.66,-38.58 -2264.43,-68.97 -3344.62,-116.9l-3116.67 -116.9 26.89 -18.7c-119.16,357.65 -307.96,688.76 -554.18,973.7 -119.1,137.89 -252.85,263.48 -397.34,374.12 -139.76,109.42 -290.06,207.76 -446.66,291.26 -300.92,163.25 -621.23,292.34 -951.68,381.25 -321.49,87.68 -640.64,146.13 -949.26,201.07 -614.91,109.89 -1202.94,212.77 -1690.44,455.93 -119.15,58.34 -234.06,126.64 -342.45,203.05 -53.77,37.41 -101.7,80.66 -151.97,116.9 -50.21,38.24 -97.89,80.72 -141.54,126.31l-135.55 134.52c-42.09,44.42 -78.33,93.52 -116.9,139.11 -74.12,89.32 -143.18,184.57 -204.69,282.96 -219.41,341.69 -375.73,722.11 -459.43,1119.69 -47.01,223.93 -71.45,453.09 -71.45,681.83 0,72.51 2.39,146.24 7.21,218.33 7.04,108.75 22.21,217.44 44.56,323.94 12.97,78.86 31.87,157.71 56.05,233.92 19.88,60.79 33.9,106.38 44.43,139.11 10.52,32.73 18.68,44.4 18.68,44.4z"/>
   <path class="fil2" d="M42525.54 41934.44c0,0 9.35,-45.6 16.37,-127.43 1.31,-17.73 2.01,-35.74 2.01,-53.55 0,-97.34 -19.85,-193.73 -58.12,-283.16 -63.6,-158.04 -183.71,-287.42 -336.71,-362.43 -101.9,-47.43 -213.24,-72.12 -325.72,-72.12 -309.35,0 -589,184.9 -710.05,469.56 -52.3,113.45 -79.52,237.18 -79.52,362.15 0,45.04 3.59,90.38 10.55,134.8 16.97,113.42 56.78,222.53 116.93,320.29 44.42,70.14 77.15,102.87 73.65,106.38 -36.19,-24.94 -67.25,-56.76 -91.21,-93.55 -72.26,-96.06 -121.64,-207.98 -143.8,-326.19 -10.77,-55.45 -16.34,-112.15 -16.34,-168.73 0,-123.05 25.94,-245.02 75.99,-357.36 127.01,-304.67 425.03,-503.19 755.23,-503.19 122.08,0 242.88,27.39 352.96,80.03 162.66,82.53 288.2,223.82 350.79,395.16 31.09,79.52 47.21,164.33 47.21,249.76 0,33.74 -2.59,67.64 -7.51,100.96 -4.65,32.2 -12.5,63.99 -23.33,94.66 -2.36,24.6 -7.04,33.96 -9.38,33.96z"/>
   <path class="fil2" d="M43644.32 41934.44c-5.85,0 9.35,-45.6 16.36,-127.43 1.14,-16.92 1.78,-34.04 1.78,-50.99 0,-98.14 -19.71,-195.39 -57.9,-285.75 -64.13,-158.18 -184.6,-287.22 -337.88,-362.35 -101.7,-47.23 -212.85,-71.76 -325.1,-71.76 -309.43,0 -589.14,184.71 -710.66,469.26 -51.72,112.79 -78.69,235.81 -78.69,359.98 0,45.7 3.79,91.74 10.97,136.84 16.25,113.62 56.31,222.87 116.88,320.32 44.42,70.14 77.15,102.87 73.65,106.38 -37.08,-24.27 -68.61,-56.23 -92.38,-93.55 -71.87,-96.39 -121.11,-208.12 -143.8,-326.19 -10.27,-54.47 -15.58,-110.11 -15.58,-165.64 0,-124.09 26.13,-246.98 76.35,-360.34 127.15,-304.43 425.09,-502.83 755.06,-502.83 121.77,0 242.16,27.28 352.08,79.63 162.58,82.45 288.11,223.73 350.71,395.08 31.43,80.94 47.6,167.17 47.6,254.02 0,32.29 -2.31,64.74 -6.68,96.67 -4.42,32.4 -12.72,64.32 -24.58,94.72 -0.31,11.75 -3.09,23.33 -8.18,33.9l0 0.03z"/>
   <path class="fil2" d="M44490.7 41992.89c0,0 7.01,-46.76 9.35,-128.6 0,-3.67 0.09,-7.77 0.09,-11.49 0,-111.51 -25.69,-221.67 -74.88,-321.71 -73.09,-153.89 -200.57,-275.56 -357.75,-341.36 -91.05,-35.99 -188.47,-54.61 -286.47,-54.61 -108.27,0 -215.49,22.71 -314.44,66.36 -189.89,87.01 -337.55,246.14 -410.28,441.9 -39.86,101.15 -60.32,209.09 -60.32,317.9 0,61.29 6.57,122.47 19.4,182.4 24.52,113.01 72.4,219.75 140.25,313.27 47.93,66.64 83,98.2 79.5,101.71 -38.13,-21.99 -71.25,-52 -97.03,-87.68 -77.58,-92.1 -133.33,-201.13 -162.47,-317.95 -17.62,-70.31 -26.61,-142.98 -26.61,-215.58 0,-106.8 19.4,-212.96 56.97,-312.86 115.26,-327.3 424.78,-546.38 771.85,-546.38 106.49,0 212.21,20.87 310.71,61.23 167.11,72.95 300.58,206.75 372.92,374.15 41.78,90.18 63.6,188.77 63.6,288.31 0,20.74 -1.01,41.81 -2.84,62.4 -2.42,32.51 -8.74,64.77 -18.68,95.86 -3.54,22.21 -12.89,32.73 -12.89,32.73z"/>
   <path class="fil2" d="M45403.72 42044.33c0,0 0,-46.76 0,-128.6 -3.81,-115.29 -35.6,-228.13 -92.38,-328.5 -80.8,-150.28 -214.68,-265.32 -375.26,-322.66 -79.41,-26.89 -163.08,-40.64 -247,-40.64 -339.97,0 -640.08,222.59 -738.5,547.95 -29.48,88.21 -44.7,180.73 -44.7,273.81 0,76.91 10.41,153.67 30.68,227.74 30.67,111.58 84.23,216.08 156.65,306.34 51.44,63.13 87.68,92.35 84.17,97.03 -39.11,-20.54 -73.76,-48.82 -101.68,-83.03 -82.19,-88.04 -143.4,-193.67 -178.89,-308.66 -26.77,-85.62 -40.42,-175.11 -40.42,-264.78 0,-89.68 13.64,-179.17 40.42,-264.76 63.68,-214.63 211.9,-394.5 410.36,-498.07 115.37,-59.01 243.24,-89.88 372.92,-89.88 92.72,0 184.93,15.89 272.33,46.65 170.21,63.46 310.55,188.77 392.85,350.69 51.8,98.81 78.99,208.98 78.99,320.54 0,10.02 -0.25,20.29 -0.67,30.23 -1.09,32.2 -5.43,64.44 -12.83,95.86 -1.2,22.21 -4.7,32.74 -7.05,32.74z"/>
   <path class="fil2" d="M46315.57 42023.29c0,0 0,-46.76 0,-128.6 -7.13,-115.26 -42.11,-227.32 -101.7,-326.19 -85.09,-147.52 -221.7,-258.83 -383.45,-312.13 -73.68,-22.74 -150.52,-34.4 -227.66,-34.4 -348.18,0 -653.21,233.64 -743.87,569.77 -24.74,81.22 -37.58,165.95 -37.58,250.87 0,202.19 71.9,398.12 202.49,552.32 53.78,61.96 91.19,90.01 87.68,93.52 -40.03,-18.09 -75.62,-44.87 -104.07,-78.33 -84.11,-86.01 -148.13,-190.11 -187.05,-303.98 -31.26,-91.74 -47.23,-188.22 -47.23,-285.25 0,-82.52 11.66,-164.97 34.35,-244.27 58.03,-216.3 200.99,-400.28 396.33,-509.79 120.33,-65.63 255.18,-100.09 392.27,-100.09 85.03,0 169.73,13.39 250.68,39.36 172.38,59.09 316.56,181.15 403.38,341.39 57.56,103.13 87.76,219.5 87.76,337.66 0,4.32 -0.08,8.79 -0.08,13.03 -0.03,32.62 -3.62,65.19 -10.55,97.03 -5.85,16.4 -9.35,28.09 -11.69,28.09z"/>
   <path class="fil2" d="M47084.8 42125c0,0 0,-46.76 0,-128.6 -2.45,-115.37 -33.07,-228.72 -88.88,-329.7 -79.3,-150.5 -211.26,-266.68 -370.53,-326.19 -82.39,-28.92 -169.09,-43.87 -256.38,-43.87 -336.52,0 -634.29,218.58 -735.02,539.6 -31.6,90.66 -47.85,186.55 -47.85,282.74 0,190.39 63.46,375.76 180,526.18 51.44,64.3 86.51,93.52 84.17,98.2 -38.97,-20.73 -73.29,-49.49 -100.57,-84.14 -81.55,-88.62 -141.81,-195.31 -175.3,-311 -24.36,-81.61 -36.74,-166.53 -36.74,-251.76 0,-94.39 15.2,-188.25 44.81,-277.79 66.22,-213.77 216.58,-392.13 416.24,-493.36 112.89,-55.95 237.37,-85.12 363.46,-85.12 96.11,0 191.61,16.98 281.82,50.05 170.12,65.47 309.04,193.56 388.15,357.78 49.77,96.86 75.82,204.53 75.82,313.53 0,12.3 -0.42,24.97 -1,37.19 -1.34,32.26 -6.12,64.46 -14.05,95.8 -2.31,19.93 -5.82,31.62 -8.15,30.45z"/>
   <path class="fil0" d="M41218.81 4430.01c456.14,-1077.09 -2.95,-2323.42 -1048.58,-2847.7 -1095.02,-549.05 -2428.31,-106.29 -2977.36,988.73 -408.35,814.42 -277.08,1796.12 330.78,2474.47 -102,242 -217.88,515.74 -217.88,515.74l1790.43 757.26c0,0 133.39,-284.29 245.98,-541.34 776.95,-57.64 1467.16,-520.14 1816.48,-1216.8 21.34,-42.57 41.6,-86.6 60.18,-130.27l-0.03 -0.09z"/>
   <path class="fil2" d="M38451.95 6036.29c0,0 4.49,-8.95 12.24,-24.4 7.75,-15.45 20.8,-41.48 36.3,-72.39 31.41,-62.63 87.25,-151.68 156.97,-266.36 69.71,-114.67 157.36,-254.96 268.62,-409.88 125.09,-176.53 268.84,-341.57 426.16,-490.65 91.91,-86.34 192.41,-165.51 297.82,-234.56 57.66,-37.76 124.13,-60.51 192.94,-66.03 38.85,-1.7 77.57,6.54 112.37,23.99 30.6,15.34 57.43,37.43 78.36,64.52 23.66,30.68 34.58,69.37 30.39,107.89 -1.51,19.55 -6.85,38.69 -15.65,56.25 -8.81,17.57 -20.95,33.29 -35.72,46.22 -60.7,48.65 -137.24,73.32 -214.91,69.33 -75.64,-6.95 -149.58,-28.03 -217.52,-62.09 -226.61,-113.62 -359.31,-355.75 -333.14,-607.9 4.28,-61.52 20.67,-121.76 48.33,-176.92 11.25,-22.43 24.39,-43.95 39.04,-64.28 56.29,-77.32 159.74,-103.73 246.24,-62.81 42.92,23.29 70.63,67.31 73.12,116.05 2.91,36.31 -4.17,72.75 -20.49,105.3 -4.7,9.37 -10.17,18.41 -16.28,26.91 -59.26,70.62 -139.66,120.58 -229.21,142.57 -162.54,50.39 -338.52,36.02 -490.65,-40.26 -14.95,-7.5 -29.66,-15.67 -44.01,-24.22 -160.33,-100.17 -261.4,-272.58 -270.5,-461.33 -3.99,-59.66 8.06,-119.37 34.87,-172.84 14.79,-29.49 33.87,-56.67 56.56,-80.6 48.93,-52.92 127.02,-67.11 191.48,-34.79 22.29,11.18 41.72,27.37 56.73,47.28 28.76,36.08 45.77,80.17 48.69,126.2 2.01,44.41 -4.42,88.96 -18.88,130.98 -9.21,26.98 -20.34,53.61 -33.14,79.14 -25.6,51.07 -58.16,98.63 -96.48,140.9 -110.99,125.99 -266.05,204.88 -433.22,220.47 -123.33,10.48 -247.52,-13.28 -358.26,-68.81 -31.07,-15.58 -60.97,-33.7 -89.22,-53.82 -65.24,-40.66 -115.51,-101.69 -143.04,-173.46 -15.1,-43.59 -11.96,-91.48 8.71,-132.69 14.15,-28.24 35.91,-52.03 62.72,-68.69 34.73,-16.64 74.66,-18.94 111.09,-6.37 8.61,3.03 17.07,6.62 25.24,10.71 24.48,12.27 46.44,29.18 64.62,49.63 42.35,55.46 65.2,123.57 64.9,193.34 4.74,132.66 0.12,257.58 -1.24,378.03 -11.12,480.97 -38.82,869.15 -61.1,1136.88 -11.14,133.87 -18.17,239.25 -28.02,307.6 -4.11,34.58 -7.39,61.43 -8.63,80.15 -0.87,9.19 -2.4,18.31 -4.52,27.25l1.66 -27.67 5.38 -79.75 23.54 -308.83c18.21,-267.74 43.06,-656.32 51.74,-1136.48 0.95,-119.63 4.75,-247 -0.39,-376.82 -0.06,-64.88 -21.32,-128.16 -60.4,-179.94 -13.92,-17.67 -31.59,-32.13 -51.71,-42.21 -38.11,-19.11 -82.51,-21.43 -122.41,-6.39 -21.74,14.45 -39.4,34.39 -51.11,57.75 -18.13,36.15 -20.9,78.12 -7.69,116.35 25.74,67 72.77,123.85 133.72,161.71 25.99,18.27 53.53,34.72 81.98,48.98 108.16,54.23 229.6,77.05 350,65.85 159.63,-16.85 307.32,-93.47 412.92,-214.41 36.65,-40.37 67.75,-85.73 92.23,-134.55 12.46,-24.84 23.19,-50.63 32.1,-76.92 32.22,-76.33 22.6,-163.99 -25.38,-231.55 -12.45,-15.58 -28.16,-28.28 -45.98,-37.21 -17.82,-8.93 -37.39,-13.92 -57.32,-14.58 -41.28,-0.81 -80.9,16.58 -108.29,47.49 -20.53,21.79 -37.86,46.55 -51.3,73.35 -24.76,49.39 -35.81,104.63 -31.98,159.72 10.85,178.7 107.83,341.23 259.91,435.66 13.29,7.95 27.06,15.53 40.89,22.47 146.24,73.32 315.37,86.9 471.42,37.96 83.02,-20.37 157.65,-66.27 213.34,-131.17 5.28,-7.43 10.05,-15.3 14.13,-23.45 14.23,-28.38 20.5,-60.08 18.16,-91.69 -2.29,-39.66 -24.65,-75.45 -59.31,-94.88 -35.99,-17.78 -77.42,-21.44 -115.96,-10.31 -38.59,10.94 -72.59,34.39 -96.52,66.63 -14.01,19.25 -26.52,39.78 -37.2,61.09 -25.99,51.84 -41.42,108.46 -45.28,166.29 -26.28,242.8 101.07,476.61 319.44,586.11 66.08,33.13 138.1,53.49 211.7,59.88 71.66,3.82 142.37,-18.67 198.66,-63.23 13.38,-11.42 24.39,-25.43 32.26,-41.14 22.22,-44.31 17.54,-97.38 -12.13,-137.1 -18.96,-24.63 -43.29,-44.7 -71.08,-58.64 -31.37,-15.73 -66.3,-23.21 -101.35,-21.71 -64.41,5.58 -126.54,26.9 -180.74,62.05 -104.65,68.05 -203.69,145.56 -294.89,230.79 -157.12,147.14 -300.39,310 -426.12,484.83 -112.89,154.1 -201.76,292.76 -273.1,406.61 -71.34,113.86 -123.12,202.92 -161.03,264.32 -15.09,30.1 -32.21,52.05 -41.58,68.72 -9.38,16.67 -15.58,24.54 -15.58,24.54z"/>
   <path class="fil6" d="M38817.97 6591.34l-1537.04 -649.55c-2.27,-0.97 -4.62,-2.05 -6.86,-3.17 -59.36,-29.77 -85.6,-100.39 -60.08,-161.68l-0.01 -0.03c1.02,-2.27 2.09,-4.6 3.21,-6.82 29.7,-59.22 100.34,-85.22 161.32,-59.32l1537.44 650.77c2.54,1.11 5.13,2.28 7.65,3.55 58.8,29.48 84.59,99.61 58.89,160.13l-0.04 -0.02c-0.98,2.3 -2.05,4.62 -3.17,6.85 -29.69,59.22 -100.32,85.2 -161.31,59.32l0.01 -0.02z"/>
   <path class="fil6" d="M38775.53 6692.21l-1537.85 -649.96c-60.59,-25.56 -130.7,0.29 -160.2,59.12 -30.92,61.66 -5.99,136.74 55.67,167.66 2.44,1.22 4.95,2.36 7.45,3.42l167.98 70.99 43.77 521.73c5.18,55.99 38.89,105.37 89.17,130.58 3,1.51 6.08,2.91 9.15,4.22l549.09 232.56c55.65,22.77 119.37,13.32 166.04,-24.6l397.12 -333.23 115.11 48.55c59.78,21.47 126.22,-5.13 154.69,-61.91 31.08,-61.99 6.03,-137.45 -55.96,-168.53 -0.41,-0.2 -0.82,-0.41 -1.2,-0.6l-0.02 -0.01z"/>
   <path class="fil7" d="M38414.09 1708.6c168.1,-61.63 345.71,-94.8 524.67,-98.2 117.94,-4.27 236.54,8.89 350.75,39.32 80.95,25.32 122.02,51 119.15,68.9 -7.37,41.09 -185.18,30.31 -447.71,80.88 -575.46,95.45 -1071.56,460.92 -1333.15,982.63 -55.04,109.77 -98.92,225.11 -130.85,343.46 -77.2,261.56 -83.91,439.38 -122.58,447.48 -19.13,1.61 -40.24,-41.55 -56.83,-124.18 -20.61,-117.43 -22.94,-238.22 -6.57,-356.4 22.82,-176.84 74.69,-349.25 153.57,-509.23 4.74,-9.6 9.65,-19.88 14.58,-29.7 94.6,-188.67 222.98,-358.53 378.7,-500.97m556.29 -343.99l0 0 0 0z"/>
   <path class="fil7" d="M39864.03 2016.24c-128.53,-56.3 -228.13,-139.83 -212.17,-214.28 8.99,-36.21 48.49,-62.21 106.69,-70.69 82,-6.7 164.4,9.31 237.99,46.21 57.06,28.61 107.38,69.14 147.59,118.62 34.53,48.87 41.81,95.27 21.83,126.99m-301.93 -6.85l0 0 0 0z"/>
   <path class="fil8" d="M38119.78 7230.65c-32.2,-23.8 -63.16,-50.06 -92.24,-77.78 -52.72,-41.94 -109.66,-78.44 -169.89,-108.65 -25.08,-12.57 -50.97,-24.1 -77.01,-34.52 -88.38,-33.07 -181.29,-53.06 -275.39,-59.73 -73.24,-4.15 -119.63,-0.95 -119.63,-5.02 38.81,-11.8 79.56,-16.62 120.07,-14.08 98.34,1.13 196.01,20.02 287.61,55.66 23.97,9.28 47.8,19.8 70.81,31.33 64.88,32.53 125.09,73.7 178.91,122.33 30.48,25.58 56.49,56.22 76.79,90.46l-0.02 -0.01z"/>
   <path class="fil8" d="M38564.53 6881.6c-3.26,6.51 -283.1,-105.3 -626.79,-250.15 -343.69,-144.85 -617.82,-268.04 -614.96,-275.77 2.86,-7.73 283.1,105.3 625.57,250.55 342.46,145.25 618.63,268.46 616.18,275.37z"/>
   <path class="fil8" d="M38390.62 7023.42c-53.5,-12.07 -106.55,-28.68 -157.4,-49.41 -96.41,-33.07 -228.19,-82.86 -372.99,-141.21 -144.8,-58.35 -272.92,-115.46 -365.24,-158.71 -25.43,-10.08 -50.74,-21.27 -75.28,-33.58 -24.54,-12.3 -48.65,-25.89 -71.91,-40.27 53.01,14.43 104.92,33.58 154.46,57.16l368.1 150.98 369.32 148.54c41.16,14.1 81.69,31.1 120.58,50.59 10.17,5.1 20.44,10.52 30.35,15.87l0.01 0.03z"/>
   <path class="fil0" d="M3509.15 27027.67l467.62 744.68c0,0 1987.37,-1824.87 3950.19,-1309.32 -3.5,-2.34 -1771.09,-1501.05 -4417.81,564.65z"/>
   <path class="fil0" d="M7923.45 26460.69c0,0 1455.46,-1580.54 3590.12,-1220.48l584.52 87.68 -184.71 -335.52c0,0 -3716.38,-1271.91 -3989.94,1468.32z"/>
   <path class="fil9" d="M4851.22 21131.03c0,0 -2915.59,-501.52 -4825.81,533.09l3039.51 5714.27c0,0 2485.38,-2395.37 4863.21,-920.04l-3076.92 -5327.32z"/>
   <path class="fil2" d="M4851.22 21131.03c6.01,7.38 11.52,15.23 16.39,23.38l43.25 72.48 168.35 284.08 631.28 1082.53 2235.21 3857.84c2.2,3.87 3.36,8.26 3.36,12.72 0,14.19 -11.52,25.72 -25.72,25.72 -4.45,0 -8.85,-1.17 -12.72,-3.37 -342.33,-211.51 -722.64,-357.75 -1118.63,-429.12 -184.9,-30.06 -373.29,-45.03 -560.84,-45.03 -23.13,0 -46.68,0.42 -69.36,0.86 -216.8,9.07 -433.02,37.13 -645.34,81.64 -897.97,220.81 -1727.37,663.87 -2410.65,1286.28l-25.72 23.38c-5.23,5.32 -12.66,8.52 -20.4,8.52 -7.74,0 -15.17,-3.2 -20.46,-8.85l0 -5.85 -3036.02 -5722.43c-2.09,-3.48 -3.2,-7.49 -3.2,-11.56 0,-8.54 4.9,-16.31 12.58,-20.01l-0.03 0c608.35,-303.92 1267.27,-500.6 1942.67,-578.84 400.06,-48.49 804.22,-73.82 1207.17,-73.82 115.82,0 234.06,2.42 348.65,6.04 430.21,15.2 765.72,49.1 992.52,77.16 116.9,14.03 201.08,26.89 259.53,37.41l66.64 11.69 21.04 0 -21.77 0.14 -66.64 -8.18c-58.45,-7.01 -144.96,-18.7 -259.53,-30.4 -233.81,-23.38 -563.48,-52.61 -992.51,-63.13 -89.29,-2.59 -183.82,-3.81 -274.7,-3.81 -425.36,0 -851.92,27.86 -1273.67,82.42 -670.33,81.92 -1324.08,280.96 -1926.27,584.58l9.35 -31.56 3039.51 5714.27 -45.59 -8.19 25.72 -23.38c354.08,-316.92 745.6,-592.7 1162.64,-818.86 400.34,-219.97 830.36,-383.45 1276.37,-483.54 214.99,-46.01 435.85,-74.04 655.83,-81.97 25.22,-0.61 52.74,-1.03 78.63,-1.03 188.22,0 376.43,15.45 561.72,46.32 402.79,73.99 788.21,223.35 1136.31,438.53l-36.24 35.07 -2210.65 -3857.84 -621.93 -1091.89 -162.5 -289.92c-17.54,-32.73 -31.57,-57.28 -40.92,-75.99 -4.68,-7.79 -8.99,-16.06 -12.69,-24.5l-0.03 0z"/>
   <path class="fil9" d="M9433.85 19958.48c0,0 -2204.81,-1402.85 -4545.23,1169.04l3072.24 5329.66c0,0 626.6,-2162.73 4295.06,-1411.04l-2822.07 -5087.66z"/>
   <path class="fil2" d="M9433.85 19958.48c6.04,6.68 11.16,14.19 15.23,22.21 9.35,17.54 23.38,39.75 39.75,68.97l155.49 271.22 584.52 1033.44 2049.3 3685.98c2.23,3.76 3.4,8.05 3.4,12.39 0,8.96 -4.87,17.2 -12.72,21.52 -2.81,1.05 -5.76,1.61 -8.77,1.61 -3.01,0 -5.99,-0.56 -8.77,-1.61l-0.03 0 -545.94 -90.02c-92.74,-15.48 -187.72,-26.78 -281.8,-31.65l-287.58 -23.38c-67.92,-5.51 -136.86,-8.52 -205.2,-8.52 -29.36,0 -59.03,0.61 -88.12,1.5l-295.82 1.25c-100.54,0 -199.91,19.87 -300.45,29.23 -101.18,8.1 -202.3,23.66 -301.53,45.54l-300.45 67.8 -295.77 104.05c-97.28,39.05 -192.81,83.75 -285.27,132.29 -48.18,21.8 -94.56,48.15 -138,78.19l-134.44 86.51c-88.85,59.62 -168.34,132.1 -251.34,198.74 -77.94,73.35 -152.12,151.76 -220.81,233.73 -141.23,165.89 -252.51,356.72 -327.36,561.28l-0.11 -0.05c-4.15,11.55 -15.14,19.26 -27.44,19.26 -3.4,0 -6.76,-0.58 -9.94,-1.73 -6.46,-2.28 -11.86,-6.85 -15.2,-12.86l-123.92 -213.94c-1086.04,-1888 -2104.27,-3647.41 -2944.81,-5116.89 -2.81,-4.34 -4.32,-9.44 -4.32,-14.61 0,-5.18 1.5,-10.27 4.32,-14.62 463.67,-524.54 1030.04,-951.35 1663.32,-1250.65 432.88,-197.65 904.2,-300.28 1380,-300.28 63.27,0 127.37,2.03 190.25,5.26 343.92,20.82 684.03,96.81 1004.04,224.74 83.67,34.15 166.53,73.62 245.78,116.71l60.79 35.07 18.7 14.03 -21.04 -10.52 -61.96 -31.56c-54.95,-26.89 -136.78,-66.64 -246.67,-108.72 -372.2,-141.23 -768.81,-214.55 -1167.43,-214.55 -478.75,0 -951.88,104.96 -1385.76,306.87 -626.05,300.28 -1186.58,726.2 -1643.95,1247.76l0 -28.06 2951.97 5120.15 128.6 211.6 -53.78 7.01c77.02,-212.99 191.89,-411.25 337.77,-584.41 71.06,-84.11 147.35,-165.84 226.71,-242.1 86.51,-68.98 167.17,-143.8 258.36,-203.41l136.78 -88.85c44.87,-30.53 92.46,-57.25 141.68,-79.52 98.2,-45.59 190.55,-100.54 291.09,-135.61l300.45 -104.04 306.29 -68.98c100.65,-22.57 203.41,-38.24 306.18,-45.7 101.71,-9.35 202.25,-28.05 302.78,-29.22l300.45 0c32.79,-1.48 65.97,-2.23 98.9,-2.23 65.6,0 131.74,3.28 196.84,9.38l289.92 24.55c95.11,4.34 190.44,15.15 284.13,31.51l549.45 92.35 -26.89 37.41c-838.2,-1519.75 -1538.46,-2792.84 -2031.79,-3689.49 -244.33,-445.4 -437.22,-798.45 -569.33,-1041.62l-149.64 -275.89c-15.2,-30.4 -28.05,-53.78 -37.41,-71.31 -9.35,-17.54 -11.66,-24.49 -11.66,-24.49z"/>
   <path class="fil9" d="M843.74 18916.87l3288.51 6330.36c0,0 2671.26,-116.9 3802.89,1185.41l-3046.52 -5301.61c0,0 -1786.3,-2214.16 -4044.88,-2214.16z"/>
   <path class="fil2" d="M843.74 18916.87l84.17 0 252.51 10.52c28.06,0 58.45,0 88.85,0l97.03 16.36 219.78 36.24c84.95,14 169.31,34.57 251.32,60.74 95.13,22.93 189.69,50.93 281.79,83.17 785.6,261.86 1840.07,895.49 2787,1987.37l0 0 -0.03 -0.11 3051.2 5298.1c2.59,4.42 3.93,9.46 3.93,14.56 0,10.36 -5.48,19.93 -14.42,25.19 -4.99,3.98 -11.16,6.15 -17.54,6.15 -6.38,0 -12.55,-2.17 -17.54,-6.15l-0.03 0 -128.6 -128.6c-243.91,-234.61 -530.19,-423.19 -841.63,-555.26 -301.39,-134.75 -617.95,-238.9 -940.96,-308.55 -557.66,-124.28 -1130.24,-186.63 -1701.88,-186.63 -55.64,0 -114.12,0.95 -168.81,1.92l0.03 -0.11c-0.05,0 -0.14,0 -0.22,0 -10.02,0 -19.29,-5.35 -24.3,-14.03 -958.61,-1858.78 -1776.94,-3447.5 -2357.96,-4572.12 -282.94,-555.3 -509.73,-999.53 -669.89,-1305.82 -75.99,-148.47 -135.61,-264.2 -176.53,-350.71l-44.42 -87.68 -14.03 -29.23c6.95,9.83 12.91,20.46 17.56,31.56l49.1 90.02 184.7 350.71 685.03 1311.66 2373.15 4538.22 -24.55 -14.03c62.6,-1.36 126.84,-2.31 190.14,-2.31 568.66,0 1138.28,63.29 1693.52,185.07 326.53,70.67 645.42,175.16 951.13,310.3 317.86,135.52 609.24,329.08 858.13,568.57l133.27 130.93 -47.93 33.9c-1130.46,-1969.83 -2176.76,-3795.88 -3039.51,-5302.77l0 0c-421.64,-492.58 -907.57,-931.69 -1439.34,-1302.45 -405.82,-286.97 -850.59,-519.17 -1318.34,-687.73 -91.77,-32.32 -185.94,-61.24 -280.46,-84.84 -81.39,-27.11 -164.75,-48.43 -248.98,-63.21l-218.61 -39.75 -94.69 -17.54 -86.51 -7.01 -335.65 -24.63z"/>
   <path class="fil4" d="M51649.25 26977.73c-4.33,20.15 -11.1,39.89 -19.95,58.53l-68.57 165.8c-63.58,149.59 -153.33,360.26 -265.52,623.29l-961.12 2222.67 -6.23 12.47 -13.71 0 -3019.24 498.64 -1012.23 165.8 -46.13 7.48 11.22 -44.88c249.32,-971.1 472.46,-1869.89 665.68,-2624.07l13.71 28.67 -1773.9 -792.83 -489.91 -223.14 -124.66 -59.84c-14.9,-6.29 -29.17,-14.28 -42.38,-23.66l44.88 16.21 130.89 53.61 498.64 210.68 1782.62 772.89 19.95 8.73 0 19.95c-189.48,760.42 -412.62,1655.47 -654.46,2627.81l-34.91 -37.4 1012.23 -167.04 3020.49 -491.16 -21.19 16.21 981.07 -2212.69c118.43,-264.28 213.17,-473.7 280.48,-623.29l74.8 -163.31c4.87,-15.67 10.74,-31.13 17.45,-46.09z"/>
   <polygon class="fil4" points="46636.71,30374.68 46553.19,30591.59 46685.33,30783.57 46453.46,30772.35 46312.6,30956.84 46251.51,30732.46 46032.11,30655.17 46226.58,30528.01 46232.81,30296.15 46413.57,30442 "/>
   <polygon class="fil4" points="44563.63,26853.07 44522.49,26961.52 44587.32,27056.26 44472.63,27050.03 44402.82,27142.28 44371.66,27031.33 44263.2,26992.69 44359.19,26929.11 44362.93,26813.18 44452.68,26885.48 "/>
   <polygon class="fil4" points="50418.87,29914.69 50377.73,30023.15 50442.55,30117.89 50327.86,30112.9 50258.05,30205.15 50226.89,30092.96 50118.43,30055.56 50214.42,29991.98 50216.91,29876.05 50307.92,29948.35 "/>
   <polygon class="fil4" points="47039.36,27971.26 46998.22,28078.46 47064.29,28174.45 46948.36,28168.22 46878.55,28260.47 46848.63,28148.27 46738.93,28110.88 46836.16,28047.3 46838.66,27931.37 46928.41,28003.67 "/>
   <polygon class="fil4" points="51790.11,26869.28 51748.97,26977.73 51815.04,27072.47 51699.11,27067.48 51629.3,27159.73 51599.38,27047.54 51489.68,27008.89 51586.92,26946.56 51589.41,26830.63 51679.16,26902.93 "/>
   <path class="fil0" d="M43507.77 14592.85c-66.16,-1.39 -136.77,-3.06 -204.06,-3.06 -275.76,0 -553.22,17.45 -826.49,50.66 -2138.14,274.55 -3740.21,2095.94 -3740.21,4251.73 0,7.33 0,15.17 0,22.5 -0.06,13 -0.06,27.93 -0.06,40.99 0,674.5 90.49,1347.12 265.88,1997.36 599.61,2126.68 784.11,4000.31 715.54,4914.06l2007.01 1078.3c0,0 928.71,-1335.1 1826.25,-1911.02 897.55,-575.93 3884.38,-2119.2 5067.39,-3696.14 761.67,-1019.71 908.77,-3116.48 -908.76,-4943.98 -1117.24,-1116.47 -2623.3,-1761.94 -4202.32,-1801.05l-0.18 -0.36z"/>
   <polygon class="fil6" points="38758.26,28188.16 40570.8,29167.99 39391.53,30666.39 38182.33,30117.89 "/>
   <path class="fil6" d="M38846.77 28249.25c-16.21,-6.23 163.3,-544.76 401.4,-1201.71 238.1,-656.95 443.78,-1186.75 459.99,-1180.52 16.21,6.23 -163.3,543.51 -401.4,1201.71 -238.1,658.2 -443.79,1185.51 -459.99,1180.52z"/>
   <path class="fil6" d="M40457.36 29096.93c-14.96,-8.73 269.26,-517.33 633.26,-1135.64 364.01,-618.31 671.91,-1108.22 688.12,-1108.22 16.21,0 -269.26,517.34 -634.51,1135.65 -365.25,618.31 -673.16,1114.45 -686.87,1108.22z"/>
   <path class="fil10" d="M44106.13 14650.2c-81.03,0 -1078.3,1171.79 -1519.59,1962.13 -1484.69,2658.98 -1552.01,5245.65 -1963.38,8262.4 -58.59,431.32 -273.01,1360.03 -269.27,1338.84 219.4,172.03 957.38,514.84 957.38,514.84 0,0 696.84,-840.2 973.59,-1262.8 1106.97,-1691.62 2309.94,-3011.76 3258.59,-4798.12 948.66,-1786.37 1861.16,-3365.8 983.56,-5193.29 0,0 -1523.33,-875.11 -2420.88,-824z"/>
   <path class="fil2" d="M48618.79 21604.93c-10.48,-18.28 -19.29,-37.49 -26.18,-57.38 -16.21,-37.4 -36.15,-95.99 -69.81,-168.29 -93.97,-208.98 -211.68,-407.64 -350.35,-589.7 -212.54,-281.58 -473.85,-525.32 -769.26,-718.09 -378.64,-250.83 -811.44,-411.17 -1262.56,-467.24l-15.02 -0.09 -7.48 -9.97c-241.54,-331.92 -513.68,-644.93 -809.3,-930.11 -323.02,-312.18 -697.7,-569.78 -1105.28,-760.12 -368.01,-166.39 -767.57,-252.76 -1171.29,-252.76 -45.44,0 -91.57,1.04 -136.65,3.12 -409,15.91 -806.28,148.67 -1142.98,381.54l-18.7 12.47 -16.21 -14.96c-342.51,-300.4 -768.76,-489.97 -1221.57,-542.3 -82.81,-8.9 -166.15,-14.01 -249.26,-14.01 -269.74,0 -537.58,49.75 -789.27,146.3 -213.82,81.71 -415.02,195 -596.02,335.3 -62.33,49.87 -109.7,89.76 -139.62,117.18 -14.66,14.84 -31.05,28.34 -48.5,39.92 13.15,-16.18 27.39,-31.67 42.35,-46.18 28.67,-29.92 73.55,-72.31 134.63,-124.66 178.41,-148.16 380.06,-267.84 595.87,-352.78 261.87,-104.83 542.3,-159.18 824.65,-159.18 77.08,0 154.69,4.33 231.24,12.17 463.58,49.74 901.16,241.24 1252.73,547.16l-34.91 0c345.4,-240.65 752.67,-378.1 1173.13,-395.08 48.94,-2.44 99.34,-3.86 148.67,-3.86 408.86,0 813.46,86.26 1186.46,253.06 413.99,193.61 794.17,456.25 1122.11,774.16 297.91,289 570.52,604.06 812.54,941.2l-18.7 -11.22c458.77,57.82 898.58,224.33 1281.58,483.62 297.55,198.47 559.81,448.68 771.76,736.88 136.74,185.92 250.95,389.41 338.86,603.29 31.17,73.55 48.62,133.38 62.33,172.03 7.9,18.94 14.6,38.68 19.95,58.5l0.03 0.06z"/>
   <path class="fil2" d="M44886.5 24253.93c-30.87,-154.25 -89.64,-301.94 -173.22,-435.12 -98.13,-152.44 -229.97,-280.51 -385.26,-373.91 -170.49,-105.52 -367.03,-161.47 -567.52,-161.47 -32.27,0 -64.77,1.46 -96.88,4.34l-24.93 0 0 -24.93c-99.01,-606.35 -505.52,-1119.2 -1073.34,-1353.74 -207.43,-81 -429.06,-122.97 -651.96,-122.97 -42.39,0 -85.01,1.75 -127.18,4.6 -243.26,17.6 -481.3,86.02 -696.81,200.52l-18.7 9.97 -14.96 -16.21c-186.43,-195.36 -430.76,-326.55 -696.81,-373.89 -88.12,-17.01 -177.99,-25.76 -267.87,-25.76 -119.88,0 -239.44,15.61 -355.4,45.79 -180.48,50.13 -350.26,134.9 -498.78,249.17 -148.52,114.27 7.48,-11.22 26.18,-27.43 18.7,-16.21 46.12,-42.39 84.77,-71.06 113.74,-80.41 240.45,-141.69 374.04,-180.7 126.71,-36.54 258.28,-55.12 390.18,-55.12 84.44,0 168.71,7.75 251.78,22.71 278.34,45.89 534.61,181.41 729.25,385.26l-33.66 -6.23c221.42,-117.71 465.69,-188.35 715.69,-206.93 42.53,-3 85.6,-4.57 128.45,-4.57 231.51,0 461.65,43.96 676.81,129.2 307.55,124 574.24,332.54 769.15,600.74 175.02,235.61 290.28,511.37 334.02,801.59l-28.67 -22.44c29,-2.11 58.32,-3.36 87.5,-3.36 214.09,0 424.08,61.5 604.33,176.69 157.99,98.07 291.34,231.87 388.94,390.16 62.42,101.3 107.3,212.87 132.17,329.19 6.23,30.3 10.98,61.29 13.71,92.16 2.32,7.75 4.01,15.73 4.99,23.71l0 0.03z"/>
   <path class="fil2" d="M40220.51 29640.44c0,0 -19.95,-24.93 -66.07,-44.88 -30.78,-9.35 -62.84,-14.1 -95.01,-14.1 -39.95,0 -79.6,7.33 -116.91,21.55 -52,16.38 -106.29,26.09 -160.81,28.67 -68.03,-0.56 -132.91,-28.97 -179.51,-78.54 -95.99,-100.97 -132.14,-249.32 -223.14,-345.3 -39.74,-45.26 -97.14,-71.26 -157.4,-71.26 -3.21,0 -6.47,0.09 -9.65,0.24 -64.2,6.86 -127.74,19.98 -189.54,38.55 -37.78,10.86 -77.08,16.35 -116.47,16.35 -24.46,0 -48.95,-2.16 -72.96,-6.32 -135.28,-33.42 -239.52,-141.58 -268.02,-277.99 -4.18,-13.71 -6.35,-28.02 -6.35,-42.38 0,-14.37 2.17,-28.67 6.35,-42.39 4.19,-13.71 0,29.92 21.19,79.78 23.39,68.8 66.9,129.17 124.66,173.24 37.93,30.3 83.05,50.55 130.89,58.62 16.56,2.25 33.36,3.38 50.13,3.38 39.27,0 78.36,-6.26 115.64,-18.34 65.15,-20.95 132.7,-35.2 200.76,-42.39 5.13,-0.27 10.36,-0.44 15.52,-0.44 75.92,0 148.29,32.38 198.86,88.95 105.96,124.66 138.37,261.78 219.4,347.8 35.77,39.98 86.04,64.2 139.62,67.29 50.07,-0.57 100.08,-7.75 148.31,-21.16 31.43,-9.77 64.17,-14.75 97.05,-14.75 46.93,0 93.47,10.18 136.09,29.71 52.36,29.95 59.84,66.1 57.34,66.1z"/>
   <path class="fil2" d="M40428.69 29346.25c-303.22,-125.22 -599.73,-273 -884.07,-436.69 -294.19,-144.63 -581.68,-310.61 -856.29,-490.38 302.42,126.86 599.91,273.15 884.72,436.04 293.84,144.81 582.22,310.87 855.67,490.86l-0.03 0.18z"/>
   <path class="fil2" d="M40068.43 29806.24c0,0 -24.93,12.47 -68.57,32.41 -22.44,9.97 -47.37,24.93 -82.27,39.89 -32.44,11.31 -66.66,17.1 -101.03,17.1 -7.86,0 -15.79,-0.29 -23.63,-0.89 -109.43,-5.99 -214.27,-46.71 -299.18,-115.96 -49.63,-42.15 -88.54,-95.63 -113.44,-155.82 -20.3,-58.86 -50.28,-114.09 -88.51,-163.27 -75.66,-63.72 -171.59,-98.72 -270.51,-98.72 -19.18,0 -38.38,1.34 -57.35,3.94 -29.11,3.3 -58.62,5.13 -87.94,5.13 -77.11,0 -153.92,-11.9 -227.45,-35.05 -69.72,-26.6 -126.82,-78.78 -159.56,-145.82 -19.95,-48.62 -12.47,-79.78 -9.97,-78.54 2.49,1.25 7.48,27.43 32.41,67.32 36.06,55.2 90.35,96.25 153.3,115.9 59.48,14.87 120.86,22.53 182.21,22.53 38.26,0 76.7,-3.03 114.51,-8.85 22.35,-3.21 45.12,-4.93 67.76,-4.93 112.52,0 221.42,40.75 306.22,114.63 42.12,54.47 75.09,115.64 97.23,180.79 21.02,52.77 53.96,100.2 95.99,138.37 75.39,63.19 167.84,103.11 265.52,114.65 11.13,1.01 22.32,1.54 33.51,1.54 55.65,0 110.71,-12.47 160.93,-36.39 51.14,-13.71 79.81,-13.71 79.81,-9.97z"/>
   <path class="fil0" d="M42590.28 32855.4l74.8 124.66c84.97,139.98 208.36,252.97 355.28,325.3l130.89 64.82 -124.66 76.05c-140.12,84.44 -253.71,207.58 -326.58,354.09l-63.58 130.89 -76.04 -124.66c-84.05,-140.51 -207.23,-254.24 -354.09,-326.69l-130.89 -64.83 124.66 -74.8c140.69,-84.47 254.16,-207.97 326.61,-355.19l63.61 -129.65z"/>
   <path class="fil0" d="M43309.56 37665.99l36.15 14.96c26.95,10.48 55.74,15.88 84.68,15.88 13.39,0 26.8,-1.15 39.98,-3.44l38.65 -7.48 -14.96 36.15c-10.5,26.95 -15.91,55.74 -15.91,84.68 0,13.39 1.15,26.8 3.44,39.98l7.48 38.65 -36.15 -14.96c-27.01,-10.48 -55.8,-15.88 -84.8,-15.88 -13.33,0 -26.71,1.16 -39.86,3.41l-38.65 7.48 14.96 -36.15c10.51,-26.95 15.91,-55.74 15.91,-84.68 0,-13.39 -1.16,-26.8 -3.45,-39.98l-7.48 -38.61z"/>
   <polygon class="fil0" points="34159.53,0 34166.54,213.93 34346.57,330.84 34144.33,402.15 34089.38,610.24 33958.45,440.73 33744.52,452.42 33864.93,274.72 33787.77,74.82 33993.52,135.61 "/>
   <path class="fil0" d="M11358.75 37518.88l-32.73 33.9 -97.03 97.03 -377.6 372.93 -1402.85 1352.58 0 -14.03c73.65,1467.15 167.17,3454.52 265.37,5675.7l0 49.1 -42.09 -26.89 -506.2 -339.02 -3207.85 -2147.53 -7.01 0 0 -7.01c-479.31,-1429.74 -882.63,-2636.19 -1169.04,-3487.25 -140.29,-423.19 -250.18,-757.54 -327.33,-989.01l-84.17 -263.03c-9.35,-28.06 -16.37,-50.27 -21.05,-66.64 0,-16.37 -7.01,-23.38 -5.84,-23.38l9.35 21.05 24.55 66.63c21.04,61.96 51.44,148.47 91.19,260.7l339.02 985.5c289.92,849.89 701.42,2052.83 1185.41,3480.23l-9.35 -11.69 3211.36 2144.02 506.2 337.85 -39.75 22.21c-94.69,-2221.18 -180.03,-4208.55 -243.16,-5678.03l0 -8.19 5.85 0 1412.2 -1339.72 384.61 -361.24 100.54 -92.35c24.55,-35.07 37.41,-44.42 37.41,-44.42z"/>
   <polygon class="fil0" points="9864.72,44364.78 9854.2,44695.62 10121.91,44892.02 9803.93,44984.37 9699.89,45298.84 9512.84,45025.29 9182,45024.12 9385.41,44762.26 9283.71,44446.61 9595.84,44558.85 "/>
   <polygon class="fil0" points="4335.15,37334.17 4496.48,37542.26 4759.52,37525.89 4612.22,37744.5 4708.08,37988.83 4455.57,37916.35 4252.15,38083.52 4242.8,37820.49 4021.85,37679.04 4268.52,37589.02 "/>
   <polygon class="fil0" points="11196.26,37127.25 11358.75,37334.17 11620.62,37318.97 11473.32,37536.41 11569.18,37781.91 11316.67,37708.26 11113.25,37875.44 11105.07,37612.4 10882.95,37470.95 11130.79,37380.93 "/>
   <polygon class="fil0" points="9395.93,39130.99 9498.81,39264.26 9665.98,39253.74 9572.46,39392.85 9633.25,39549.5 9471.92,39502.74 9342.16,39609.12 9336.31,39441.95 9194.86,39350.77 9352.68,39293.48 "/>
   <path class="fil11" d="M30466.8 45806.93l-13547 -4.91c-1627.48,-0.02 -2947.33,-1319.88 -2947.33,-2947.37l5.9 -33961.34c0,0.02 0,0.02 0,0.02 0,-1627.5 1319.85,-2947.35 2947.35,-2947.35 1.8,0 3.95,0 5.75,0l13546.02 7.86c1627.62,0 2947.47,1319.85 2947.47,2947.35l-5.9 33953.48c0,1.29 0,3.46 0,4.89 0,1627.5 -1319.85,2947.35 -2947.35,2947.35 -1.45,0 -3.6,0 -5.03,0l0.11 0.02z"/>
   <path class="fil12" d="M30462.87 7144.57l-2627.07 0c-354.55,8.42 -637.7,298.43 -637.7,653.14 0,3.58 0.07,7.48 0.07,11.02l0 476.49c0.12,4.84 0.19,9.92 0.19,14.86 0,354.43 -283.51,643.81 -637.77,651.2l-5119.55 0c-354.39,-7.86 -637.75,-297.59 -637.75,-652.16 0,-4.94 0.07,-10.03 0.16,-14.9l-0.02 -479.44c0.1,-4.19 0.16,-8.68 0.16,-12.98 0,-354.83 -283.11,-645.12 -637.77,-654.08l-925.47 -0.02 -2297.95 0c-1.36,0 -3.37,0 -4.89,0 -1139.25,0 -2063.14,923.9 -2063.14,2063.14 0,0 0,0 0,0l-6.88 33148.85c0,1139.22 923.9,2063.12 2063.14,2063.12l13520.48 7.86c1139.22,0 2063.12,-923.9 2063.12,-2063.14l6.88 -33149.83c0,0.02 0,0.02 0,0.02 0,-1137.49 -920.63,-2060.39 -2058.12,-2063.14l-0.12 0z"/>
   <path class="fil2" d="M30660.34 9837.47c0,8.84 -341.89,18.66 -762.38,21.61 -420.49,2.95 -763.36,0 -763.36,-8.84 0,-8.84 340.91,-19.65 762.38,-22.59 421.47,-2.95 763.36,0.98 763.36,9.83z"/>
   <path class="fil2" d="M30663.29 10227.5c0,8.84 -340.91,18.66 -762.38,22.59 -421.47,3.93 -763.36,0 -763.36,-9.83 0,-9.82 341.89,-18.66 763.36,-22.59 421.47,-3.93 762.38,0.98 762.38,9.83z"/>
   <path class="fil2" d="M30667.22 10617.53c0,8.84 -341.89,19.65 -763.36,22.6 -421.47,2.95 -762.38,0 -763.36,-9.83 -0.98,-9.83 341.89,-18.66 763.36,-22.59 421.47,-3.93 763.36,0.98 763.36,9.82z"/>
   <path class="fil2" d="M16292.99 10998.73l40.28 0 111.02 0 410.66 -9.83 -11.79 10.81c0,-90.39 0,-189.62 -4.91,-294.74 0,-55.02 0,-107.09 0,-170.95 13.31,-67.72 69,-119.04 137.59,-126.73 66.81,0 124.77,0 196.49,0 77.54,12.51 134.57,79.51 134.57,158.08 0,0.02 0,0.05 0,0.07 0,139.51 0,283.93 4.91,434.24l-18.67 -18.66 517.75 0 -19.65 19.65c0,-208.28 0,-424.42 -5.9,-645.47 0,-55.02 0,-109.05 0,-164.07 -4.51,-49.47 -31.27,-94.32 -72.7,-121.8l-225.97 -224 -219.08 -215.16 -105.12 -104.14c-36.35,-35.37 -64.84,-71.72 -107.09,-80.56 -11.65,-3.07 -23.72,-4.63 -35.77,-4.63 -29.89,0 -59.02,9.54 -83.11,27.23 -31.44,26.53 -64.84,63.86 -98.25,98.25l-186.66 187.65c-116.91,120.84 -238.74,231.86 -327.15,336.98 -19.3,45.52 -29.26,94.65 -29.26,144.12 0,17.5 1.31,35.04 3.74,52.35 0,63.86 0,124.77 0,181.75 0,112 0,210.25 0,294.74 0,84.49 0,136.56 0,187.65 0.63,11.25 1.03,22.62 1.03,33.92 0,11.3 -0.4,22.67 -1.05,33.9 -0.52,-10.27 -0.86,-20.63 -0.86,-30.95 0,-10.31 0.35,-20.68 0.89,-30.92 0,-50.11 0,-112 0,-185.69 0,-73.68 0,-183.72 -6.88,-294.73 0,-58.95 0,-120.84 0,-186.67 0,-33.4 0,-66.8 0,-98.25 -0.02,-0.44 -0.02,-0.93 -0.02,-1.35 0,-37.45 9.85,-74.29 28.49,-106.73 98.25,-116.91 210.24,-221.05 328.14,-345.82l184.7 -189.61c33.4,-32.42 59.93,-64.84 98.25,-98.25 30.64,-23.32 68.09,-35.98 106.59,-35.98 14.76,0 29.45,1.87 43.74,5.52 48.86,17.92 92.05,48.89 124.75,89.41l106.11 104.14 219.08 215.16 226.95 222.03c21.21,18.99 40.75,40.19 57.99,62.86 16.98,26.08 26.52,56.37 27.48,87.46 0,55.02 0,110.04 0,165.05 0,221.05 0,437.19 4.91,645.47l0 19.65 -19.67 0 -517.75 0 -36.35 0 0 -18.67c0,-150.32 0,-294.74 0,-434.24 0.02,-0.86 0.05,-1.8 0.05,-2.69 0,-60.94 -44.05,-113.01 -104.16,-123.06 -59.93,0 -130.66,0 -188.63,0 -54.29,5.42 -99.04,45.03 -111.04,98.25 0,52.07 0,112 0,165.05 0,107.09 0,207.3 0,294.74l0 11.79 -11.79 0 -417.54 0 -109.05 0c-14.13,-6.43 -27.7,-14.36 -40.26,-23.58l-0.02 0z"/>
   <path class="fil8" d="M25233.29 36902c-41.99,6.52 -84.91,9.94 -127.53,9.94 -4.91,0 -10.13,-0.1 -14.95,-0.1l-387.09 7.86c-326.17,4.91 -778.1,7.86 -1277.18,7.86 -499.09,0 -951.02,0 -1277.19,-7.86l-387.09 -7.86c-4.47,-0.02 -9.35,0.07 -13.94,0.07 -42.92,0 -86.15,-3.46 -128.47,-9.99 39.77,-6.67 80.31,-10.11 120.73,-10.11 7.23,0 14.58,0.19 21.71,0.35l387.09 -8.84c326.17,0 778.1,-6.88 1277.19,-6.88 499.08,0 950.03,0 1277.18,6.88l387.09 8.84c7.44,-0.21 15,-0.37 22.48,-0.37 40.16,0 80.44,3.48 120,10.17l-0.02 0.02z"/>
   <path class="fil8" d="M30908.9 37790.14c0,14.73 -2079.85,25.54 -4645.02,25.54 -2565.18,0 -4645.03,-10.81 -4645.03,-25.54 0,-14.74 2079.85,-25.55 4645.03,-25.55 2565.17,0 4645.02,11.79 4645.02,25.55z"/>
   <path class="fil8" d="M28005.76 38630.13c0,14.74 -1429.47,25.55 -3192.96,25.55 -1763.5,0 -3193.95,-10.81 -3193.95,-25.55 0,-14.73 1429.47,-25.54 3193.95,-25.54 1764.48,0 3192.96,7.86 3192.96,25.54z"/>
   <path class="fil2" d="M31092.62 40254.12l-288.84 -289.82 -275.08 274.11 0 -829.19 562.94 0 0.98 844.91zm-288.84 -326.17l8.84 8.84 254.46 255.44 0 -756.49 -511.85 0 0 741.75 248.56 -249.54z"/>
   <path class="fil2" d="M23406.91 40146.06l-98.25 -45.19c-34.64,16.25 -72.54,24.74 -110.83,24.74 -143.77,0 -260.35,-116.58 -260.35,-260.35 0,-143.76 116.58,-260.35 260.35,-260.35 143.76,0 260.35,116.59 260.35,260.35 0,66.36 -25.4,130.32 -70.92,178.6l19.65 102.2zm-236.77 -552.14c-138.43,9.61 -245.92,124.82 -245.92,263.62 0,140.7 110.32,256.77 250.83,263.93 44.79,-3.09 88.35,-16.98 126.73,-40.3l0 0 75.65 33.4 -17.69 -73.68 0 0c44.45,-48.52 69.12,-111.98 69.12,-177.8 0,-145.38 -117.92,-263.29 -263.29,-263.29 -0.77,0 -1.54,0 -2.32,0l6.88 -5.87z"/>
   <path class="fil2" d="M24061.23 40103.81l-115.93 -284.91 -219.09 -196.49 530.52 0 -195.5 481.4zm-285.9 -464.7l186.67 170.95 98.25 242.67 167.01 -417.54 -451.93 3.93z"/>
   <rect class="fil2" transform="matrix(4.33027 -2.81748 2.81748 4.33027 23955.8 39804.6)" width="66.94" height="3.8"/>
   <path class="fil0" d="M22570.85 39677.42c-15.68,-76.23 -82.83,-130.95 -160.66,-130.95 -81.96,0 -151.39,60.54 -162.55,141.73 -11.08,-81.26 -80.54,-141.87 -162.57,-141.87 -79.76,0 -148,57.4 -161.64,135.98 -1.29,9.75 -1.97,19.7 -1.97,29.54 0,46.88 14.81,92.63 42.24,130.62 33.15,45.38 72.26,86.39 115.95,121.78 59.93,52.07 113.97,98.25 172.91,153.26 58.95,-53.05 108.07,-103.16 167.02,-156.21 43.09,-36.05 81.56,-77.77 113.94,-123.76 26.04,-36.82 40.03,-80.84 40.03,-125.94 0,-11.44 -0.91,-22.92 -2.69,-34.22l-0.02 0.05z"/>
   <path class="fil2" d="M31684.06 40988.01c0,0 0,-32.42 0,-92.35 0,-59.93 0,-151.3 0,-269.19 0,-236.77 0,-589.47 -4.91,-1037.47 0,-902.87 -4.91,-2216.41 -8.84,-3863.97l16.7 16.7 -15710.36 8.84 0 0 25.54 -25.54c0,1829.32 0,3602.64 0,5262.98l-24.56 -24.56 11242.18 10.8 3281.38 6.88 884.2 0 227.93 0 78.59 0 -75.65 0 -224.98 0 -875.36 0 -3276.47 6.88 -11258.88 11.79 -25.54 0 0 -11.79c0,-1660.34 0,-3433.66 0,-5262.98l0 -25.55 27.51 0 15710.36 8.84 16.7 0 0 16.7c0,1651.5 -6.88,2968.96 -8.84,3874.78 0,449.96 0,796.77 0,1033.54 0,115.93 0,204.35 0,265.26 0,60.91 -16.7,89.4 -16.7,89.4z"/>
   <rect class="fil5" transform="matrix(0.0297549 -5.16609 5.16609 0.0297549 16607.2 40084.8)" width="673.58" height="842.45"/>
   <path class="fil2" d="M20978.3 36627.9l-83.51 0 -237.75 0 -893.05 0 -3143.84 -6.88 23.58 -22.6c-4.91,1036.49 -10.81,2223.29 -16.7,3478.86 4.91,6.88 -48.14,-48.14 -25.54,-25.54l299.64 0 294.74 0 589.47 0 1129.82 6.88 2037.6 14.73 -20.63 21.62c9.82,-1045.33 18.66,-1911.85 25.54,-2520.97 0,-302.6 6.88,-540.35 8.84,-706.38 0,-79.58 0,-141.47 0,-186.66 0,-45.19 0,-65.83 0,-65.83 0,0 0,19.65 0,60.91 0,41.26 0,105.12 0,183.72 0,164.07 0,400.84 0,701.47 0,612.07 0,1483.5 0,2533.74l0 20.63 -21.62 0 -2037.6 -7.86 -1129.82 -5.89 -589.47 0 -294.73 0 -299.65 0 -26.53 -26.53c8.84,-1256.55 15.72,-2443.35 22.6,-3478.86l0 -23.58 23.58 0 3153.67 28.49 884.2 11.79 232.84 0 58.94 0 35.37 14.74z"/>
   <rect class="fil4" transform="matrix(0.0297549 -5.16609 5.16609 0.0297549 16758.7 39866.6)" width="588.76" height="783.31"/>
   <polygon class="fil9" points="16756.71,39864.09 18181.26,37981.72 19049.75,39169.5 19647.08,38540.73 20803.42,39887.67 "/>
   <path class="fil9" d="M19429.96 37757.72c-0.49,175.88 -143.35,318.29 -319.27,318.29 -176.31,0 -319.3,-142.99 -319.3,-319.3 0,-176.3 142.99,-319.29 319.3,-319.29 0.63,0 1.33,0 1.94,0 175.39,0.51 317.36,142.92 317.36,318.31 0,0.63 0,1.36 0,1.99l-0.02 0z"/>
   <path class="fil2" d="M23964.95 14056.11c-7.77,1.31 -15.7,1.99 -23.58,1.99 -7.88,0 -15.81,-0.68 -23.58,-1.99l-132.63 4.91 -491.23 8.84c-413.61,0 -982.45,6.88 -1617.11,6.88 -634.66,0 -1203.5,0 -1617.11,-6.88l-491.23 -8.84 -133.61 -4.91c-7.58,1.33 -15.34,2.03 -23.06,2.03 -7.74,0 -15.49,-0.7 -23.09,-2.03 13.4,-3.3 27.18,-4.98 41,-4.98 1.71,0 3.49,0.05 5.17,0.09l133.61 0 491.23 -7.86c413.61,-4.91 982.45,-7.86 1617.11,-7.86 634.66,0 1203.5,0 1617.12,7.86l491.22 7.86 132.63 0c1.49,-0.05 3.13,-0.09 4.68,-0.09 14.29,0 28.58,1.68 42.46,4.98z"/>
   <path class="fil2" d="M30394.1 33290.52l-428.35 -430.31 -409.68 407.72 0 -1232 837.05 0 0.98 1254.59zm-428.35 -483.37l12.77 12.77 378.24 379.23 0 -1123.92 -762.38 0 0 1102.31 371.36 -370.39z"/>
   <path class="fil2" d="M19502.66 33160.84l-196.49 -89.4c-66.88,31.09 -139.93,47.25 -213.75,47.25 -279.93,0 -506.95,-227.01 -506.95,-506.94 0,-279.93 227.02,-506.94 506.95,-506.94 279.93,0 506.94,227.01 506.94,506.94 0,129.66 -49.82,254.55 -138.95,348.63l42.24 200.47zm-665.12 -1175.01c-284.72,2.36 -514.31,233.96 -514.31,518.71 0,286.45 232.31,518.76 518.76,518.76 1.45,0 2.97,0 4.44,0 88.26,-5.29 174.13,-32.35 249.52,-78.6l8.84 -4.91 147.37 65.83 -33.41 -145.4 6.88 -6.88c87.41,-95.39 136.03,-220.37 136.03,-349.82 0,-285.89 -231.86,-517.75 -517.75,-517.75 -2.08,0 -4.3,0.07 -6.32,0.07l-0.05 0z"/>
   <path class="fil2" d="M20791.63 33075.36l-229.89 -560.98 -430.31 -392.98 1045.33 -7.86 -385.12 961.82zm-562.94 -916.63l367.44 336.98 196.49 477.47 328.14 -821.33 -892.07 6.88z"/>
   <rect class="fil2" transform="matrix(4.33027 -2.81748 2.81748 4.33027 20586.1 32482.6)" width="131.6" height="7.42"/>
   <path class="fil0" d="M17858.03 32244.21c-29.82,-151.44 -162.74,-260.7 -317.09,-260.7 -162.31,0 -299.46,120.4 -320.51,281.31 -23.51,-158.31 -159.58,-275.62 -319.67,-275.62 -155.95,0 -289.73,111.48 -317.9,264.82 -2.55,19.04 -3.84,38.36 -3.84,57.57 0,92.23 29.19,182.22 83.37,256.84 65.85,89.31 143.13,170.5 229,240.66 116.91,98.25 224,196.49 340.91,301.61 113.97,-104.14 212.21,-202.39 327.15,-307.51 84.56,-71.25 160.66,-153.47 224.96,-243.63 51.06,-73.45 78.5,-160.82 78.5,-250.31 0,-21.78 -1.66,-43.56 -4.86,-65.05l-0.03 0.02z"/>
   <circle class="fil5" cx="17762.74" cy="14056.11" r="709.33"/>
   <path class="fil8" d="M30126.87 29223.18c0,14.73 -2972.89,26.52 -6639.4,26.52 -3666.5,0 -6640.38,-11.79 -6640.38,-26.52 0,-14.74 2972.9,-25.55 6640.38,-25.55 3667.49,0 6639.4,11.79 6639.4,25.55z"/>
   <path class="fil8" d="M30126.87 28117.92c0,13.75 -2972.89,25.54 -6639.4,25.54 -3666.5,0 -6640.38,-11.79 -6640.38,-25.54 0,-13.76 2972.9,-25.55 6640.38,-25.55 3667.49,0 6639.4,11.79 6639.4,25.55z"/>
   <path class="fil8" d="M24074.98 30344.15c0,13.76 -1618.09,25.55 -3613.45,25.55 -1995.35,0 -3614.43,-11.79 -3614.43,-25.55 0,-13.75 1618.1,-25.54 3614.43,-25.54 1996.34,0 3613.45,11.79 3613.45,25.54z"/>
   <path class="fil2" d="M23183.9 42391.94c-2.64,154.27 -128.56,278.01 -282.9,278.01 -156.21,0 -282.92,-126.71 -282.92,-282.95 0,-156.23 126.71,-282.95 282.92,-282.95 0.63,0 1.31,0 1.94,0 155.6,1.57 280.98,128.26 280.98,283.91 0,1.29 -0.02,2.71 -0.02,3.95l0 0.02z"/>
   <path class="fil2" d="M24054.35 42395.87c-3.21,153.33 -128.47,276.04 -281.89,276.04 -155.69,0 -281.96,-126.27 -281.96,-281.96 0,-155.69 126.27,-281.96 281.96,-281.96 0.28,0 0.66,0 0.94,0 155.5,1.03 281,127.44 281,282.95 0,1.61 -0.02,3.32 -0.02,4.91l-0.02 0.02z"/>
   <path class="fil2" d="M24931.67 42399.8c-3.2,153.33 -128.46,276.04 -281.89,276.04 -155.69,0 -281.96,-126.27 -281.96,-281.96 0,-155.69 126.27,-281.96 281.96,-281.96 0.28,0 0.65,0 0.93,0 155.6,1.57 280.98,128.26 280.98,283.91 0,1.29 -0.03,2.71 -0.03,3.95l0 0.02z"/>
   <rect class="fil4" x="16066.05" y="15459.05" width="15712.32" height="9608.36"/>
   <polygon class="fil9" points="17517.13,25070.36 22018.71,19044.01 24810.84,22812.69 26702.05,20796.7 30412.77,25066.43 "/>
   <path class="fil9" d="M25993.7 18304.23c0,0.23 0,0.72 0,0.98 0,560.95 -454.89,1015.85 -1015.85,1015.85 -560.95,0 -1015.85,-454.9 -1015.85,-1015.85 0,-560.95 454.89,-1015.85 1015.85,-1015.85 0,0 0,0 0,0 560.58,0 1015.36,454.29 1015.85,1014.87z"/>
   <path class="fil2" d="M31736.13 33997.88c0,-205.33 -9.83,-8885.28 -23.58,-21735.73l23.58 23.58 -15710.36 0 0 0 25.54 -25.55c0,8128.79 0,15651.41 0,21735.73l-21.62 -20.63 15712.33 20.63 -15712.33 21.61 -20.63 0 0 -21.61c0,-6084.32 0,-13606.94 -4.91,-21735.73l0 -25.54 27.51 0 15710.36 0 23.58 0 0 22.59c-4.91,6432.1 -8.84,11868 -11.79,15697.59 0,1911.85 -4.91,3421.87 -5.9,4455.41 0,514.81 0,910.74 0,1178.94 0,132.63 0,233.82 0,302.6 0,68.77 -11.79,106.1 -11.79,106.1z"/>
  </g>
 </g>
</svg>
