<?xml version="1.0" encoding="UTF-8"?>
<!DOCTYPE svg PUBLIC "-//W3C//DTD SVG 1.1//EN" "http://www.w3.org/Graphics/SVG/1.1/DTD/svg11.dtd">
<!-- Creator: CorelDRAW 2020 (64-Bit) -->
<svg xmlns="http://www.w3.org/2000/svg" xml:space="preserve" width="79.375mm" height="79.375mm" version="1.1" style="shape-rendering:geometricPrecision; text-rendering:geometricPrecision; image-rendering:optimizeQuality; fill-rule:evenodd; clip-rule:evenodd"
viewBox="0 0 8644.76 8644.76"
 xmlns:xlink="http://www.w3.org/1999/xlink"
 xmlns:xodm="http://www.corel.com/coreldraw/odm/2003">
 <defs>
  <style type="text/css">
   <![CDATA[
    .fil1 {fill:#2B2A29}
    .fil0 {fill:black}
   ]]>
  </style>
 </defs>
 <g id="Layer_x0020_1">
  <metadata id="CorelCorpID_0Corel-Layer"/>
  <path class="fil0" d="M274.66 4383.47l4246.93 3974.72 -3407.37 11.03c-342.51,0 -888.4,140.73 -825.78,-281.28 274.26,-11.75 267.67,26.68 262.37,-248.82 -107.04,-46.33 -136.48,-27.85 -276.31,-37.23l0.66 -265.8 279.36 -6.79 -0.23 -274.31 -274.27 -2.13 0.02 -281.04c288.56,-8.78 275.12,20.78 271.79,-247.28l-277.33 -39.4 1.26 -264.46 277.87 -42.77 0.88 -239.37 -272.1 -2.37 -3.72 -280.43 275.84 -5.62 -3.94 -239.3c-107.33,-46.33 -137.21,-28.03 -276.09,-37.35l1.26 -270.14 244.55 -30.76c7.65,-1.9 20.87,-5.25 30.59,-9.71l3.9 -240.17 -271.19 -2.11 -8.95 -637.1zm4152.91 -4134.32l340.94 0 0 340.94 -340.94 0 0 -340.94zm-2166.29 5591.6c-121.46,-84.23 -933.11,-844.82 -976.68,-934.27 -87.39,-43.44 -47.71,-283.4 -47.69,-488.06 0.03,-170.36 -14.96,-349.87 14.34,-516.13l3074.15 -18.07c43.38,190.67 42.17,1787.07 3.18,1981.2 -157.1,25.06 -1929.9,58.45 -2067.3,-24.68zm3730.57 -1510.7c-174.77,2.1 -216.15,42.81 -273.06,-94.95 144.67,-111.23 507.27,-58.04 697.55,-58.04 198.55,0 541.54,-56.84 687.25,51.04 -58.74,181.99 -749.67,97.59 -1111.74,101.95zm-151.36 -419.89c-171.96,-24.12 -77.15,-13.49 -119.42,-69.57 69.99,-64.06 -70.4,-79.46 310.44,-74.84 294.87,3.58 925.03,-47.87 1068.61,40.54 -36.31,153.73 -115.42,104.46 -298.45,102.27l-961.18 1.61zm-3235.79 2289.33c-47.02,-53.68 -48.23,75.81 -34.08,-94.13l2011.61 4.02 -1.72 -2455.77 -3574.7 -0.17 1.55 955.98c-61.94,53.04 -4.47,23.08 -44.74,0.51l-268.91 -217.66 2.28 -1043.05c507.99,-19.38 4668.66,-40.78 4839.05,24.01 148.13,253.97 -69.69,182.97 -85.52,430.95 -9.77,152.99 36.4,125.63 28.49,259.04 -6.65,112.38 -51.62,108.96 -22.76,271.02 65.08,365.48 640.91,263.09 922.68,263.08 644.98,-0.02 1059.42,101.19 981.28,-467.18 -29.55,-214.91 1.69,-75.98 16.66,-254.24 28.95,-344.27 -178.99,-163.76 -109.64,-485.73 176.17,-95.05 868.38,-53.03 1100.75,-38.71 12.29,542.37 74.22,4214.43 -44.21,4433.33 -239.47,61.23 -3125.69,19.49 -3635.8,24.59 -567.65,5.67 -531.99,-206.92 -1118.97,-734.36 -316.95,-284.8 -628.15,-627.37 -963.3,-875.55zm5065 -3128.65c217.3,-364.12 281.5,-393.54 387.51,-841.22 350.28,3.91 340.86,-1.51 308.14,837.74l-695.65 3.49zm-6969.42 -5.85c-49.27,-943.65 -3.09,-839.81 374.37,-835.34l3693.78 -0.03c78.67,388.34 182.98,530.96 389.61,839.61l-4457.76 -4.24zm5572.87 -1334.85c332.22,-219.01 583.23,278.39 291.86,456.49 -296.32,181.12 -634.8,-230.4 -291.86,-456.49zm-422.03 1487.18c-614.21,-214.38 -955.78,-981.52 -792.12,-1618.7 155.93,-607.03 726.25,-1043.87 1355.92,-1044.88 1578.21,-2.49 1862.76,2214 561.91,2661.04l-5.03 270.5 -421.91 -11.01 6.7 -959.07c218.42,-194.56 445.93,-212.72 404.52,-630.95 -65.69,-663.33 -1074.31,-628.89 -1098.55,35.38 -15.92,436.44 246.55,404.57 416.27,616.15l-11.08 953.94 -413.86 -10.01 -2.78 -262.4zm2227.65 -2947.62l303.39 -0.6 -18.24 299.98 -285.11 -10.79 -0.04 -288.59zm-8078.77 3948.22l0 4095.94c152.96,254.6 72.87,178.22 332.35,330.89l4384.91 0c364.17,-299.51 57.13,-308.86 -52.56,-560.57l3173.21 0.04c529.2,0.88 522.78,87.6 806.85,-300.78l0 -5493.18c-167.46,-308.63 -94.96,-262.35 -560.57,-346.54 -49.25,-699.31 -250.45,-966.21 -726.28,-1389.45l442.75 -3.3 13.96 283.71 830.14 1.27 0 -835.97 -834.47 0 0.9 281.42 -2795.41 0.72 0 -282.14 -830.27 0 5.38 837.99 823.3 -13.25 1.59 -272.52 426.34 0.57c-98.42,164.84 -339.19,311.35 -494.9,588.94 -148.37,264.5 -186.05,495.5 -203.84,796.91 -244.23,49.65 -2769.89,17.1 -3244.96,17.1 -547.97,-0.01 -1074.87,-153.98 -1079.73,539.81 -3.7,529.02 20.92,1083.58 -2.66,1608.92 -247.18,-109.56 -264.88,-78.12 -416.04,113.46z"/>
  <path class="fil0" d="M1252.91 6650.61c128.71,71.25 711.29,623.34 789.42,741.87l-792.49 0.58 3.07 -742.44zm-273.44 1015.08l1744.69 -3.99c-104.01,-159.09 -1612.09,-1585 -1743.74,-1640.68l-0.95 1644.67z"/>
  <path class="fil0" d="M4877 6966.79l3153.03 0.03 53.97 -0.01 -2.9 -241.92c-248.17,-110.75 -2698.8,-30.91 -3192.92,-30.91l-11.19 272.81z"/>
  <polygon class="fil0" points="4879.73,6416.34 8068.44,6416.34 8083.78,6138.54 4878.29,6138.7 "/>
  <polygon class="fil0" points="4882.77,5296.76 8079.69,5296.93 8084.53,5022.69 4878.29,5023.14 "/>
  <polygon class="fil0" points="4877.11,5851.08 8145.29,5851.11 8085.41,5851.08 8078.74,5576.39 4887.43,5579.1 "/>
  <circle class="fil1" cx="2165.36" cy="2650.61" r="129.67"/>
  <circle class="fil1" cx="1676.22" cy="2650.61" r="129.67"/>
  <circle class="fil1" cx="1226.36" cy="2650.61" r="129.67"/>
 </g>
</svg>
