<?xml version="1.0" encoding="UTF-8"?>
<!DOCTYPE svg PUBLIC "-//W3C//DTD SVG 1.1//EN" "http://www.w3.org/Graphics/SVG/1.1/DTD/svg11.dtd">
<!-- Creator: CorelDRAW 2020 (64-Bit) -->
<svg xmlns="http://www.w3.org/2000/svg" xml:space="preserve" width="14.73mm" height="27.1286mm" version="1.1" style="shape-rendering:geometricPrecision; text-rendering:geometricPrecision; image-rendering:optimizeQuality; fill-rule:evenodd; clip-rule:evenodd"
viewBox="0 0 105.73 194.72"
 xmlns:xlink="http://www.w3.org/1999/xlink"
 xmlns:xodm="http://www.corel.com/coreldraw/odm/2003">
 <defs>
  <style type="text/css">
   <![CDATA[
    .fil0 {fill:black}
   ]]>
  </style>
 </defs>
 <g id="Layer_x0020_1">
  <metadata id="CorelCorpID_0Corel-Layer"/>
  <path class="fil0" d="M29.28 54.38l0 15.59 -25.86 0c-1.55,0 -3.42,2.16 -3.42,4.94l0 30.04c0,2.5 1.33,4.94 3.8,4.94l25.48 0 0 79.1c0,2.83 1.39,5.7 3.42,5.7l34.23 0c2.38,0 3.8,-2.11 3.8,-4.56l0 -80.25 30.04 0c2.83,0 3.8,-2.82 3.8,-5.7l0 -28.52c0,-3.07 -1.21,-5.7 -4.18,-5.7l-29.66 0 0 -19.01c0,-13.66 7.51,-12.19 13.53,-13.09 11.88,-1.78 21.46,3.29 21.46,-5.16l0 -27.76c0,-2.75 -1.52,-4.94 -4.18,-4.94l-26.25 0c-4.66,0.22 -9.01,0.66 -12.55,1.52 -4.89,1.18 -4.82,1.49 -8.97,3.2 -1.37,0.57 -2.71,1.44 -3.95,2.14 -2.97,1.69 -7.86,6.01 -9.91,8.73 -9.09,12.03 -10.64,22.74 -10.64,38.8z"/>
 </g>
</svg>
