<?xml version="1.0" encoding="UTF-8"?>
<!DOCTYPE svg PUBLIC "-//W3C//DTD SVG 1.1//EN" "http://www.w3.org/Graphics/SVG/1.1/DTD/svg11.dtd">
<!-- Creator: CorelDRAW 2020 (64-Bit) -->
<svg xmlns="http://www.w3.org/2000/svg" xml:space="preserve" width="98.0146mm" height="85.0517mm" version="1.1" style="shape-rendering:geometricPrecision; text-rendering:geometricPrecision; image-rendering:optimizeQuality; fill-rule:evenodd; clip-rule:evenodd"
viewBox="0 0 704.51 611.34"
 xmlns:xlink="http://www.w3.org/1999/xlink"
 xmlns:xodm="http://www.corel.com/coreldraw/odm/2003">
 <defs>
  <style type="text/css">
   <![CDATA[
    .fil0 {fill:black}
   ]]>
  </style>
 </defs>
 <g id="Layer_x0020_1">
  <metadata id="CorelCorpID_0Corel-Layer"/>
  <g id="_2079677746912">
   <path class="fil0" d="M-0 40.04c8.53,76.48 101.38,250.78 144.84,316.08 32.17,48.34 64.46,90.99 98.73,132.81 13.31,16.24 95.31,113.92 112.84,122.4l100.32 -117.37c11.97,-15.01 22.31,-25.77 34.07,-41.2 34.92,-45.81 87.13,-127.44 112.75,-179.35l-279.32 -63.8c41.16,71.29 24.02,68.33 67.56,78.07 36.99,8.27 85.14,21.58 121.77,26.51 -7.75,19.33 -60.88,95.06 -75.46,113.74 -14.27,18.28 -73.97,94.69 -88.69,103.21 -5.88,-13.48 -27.81,-37.81 -38.23,-51.22 -78.93,-101.6 -121.63,-152.57 -178.87,-273.21 -10.31,-21.72 -49.96,-109.97 -51.61,-127.62 90.2,-8.69 180.38,-21.34 272.47,-21.37 91.83,-0.03 184.71,11.72 275,21.51l-62.47 140.28 58.88 13.95 79.93 -191.53c-16.73,-11.85 -134.16,-27.59 -163.92,-31.18 -193.9,-23.38 -351.1,-6.36 -540.6,29.29z"/>
   <path class="fil0" d="M153.25 123.58c43.47,107.88 100.36,197.26 169.76,288.72 8.67,11.43 21.14,28.57 30.71,36.35 12.18,-17.59 71.22,-97.07 76.12,-108.4l-57.29 -14.65c-3.24,6.46 -13.64,20.07 -19.38,25.43 -2.18,-1.57 -1.59,-0.99 -4.4,-3.73 -34.31,-33.52 -93.67,-134.07 -108.23,-177.37 37.18,-2.49 71.56,-7.66 109.84,-7.12 37.88,0.53 75.38,4.87 112.43,7.08l-9.5 22.19 57.95 15.12c13.88,-29.4 30.51,-56.27 44.61,-83.62 -84.16,-16.09 -315.57,-15.7 -402.62,-0.01z"/>
  </g>
 </g>
</svg>
