<?xml version="1.0" encoding="UTF-8"?>
<!DOCTYPE svg PUBLIC "-//W3C//DTD SVG 1.1//EN" "http://www.w3.org/Graphics/SVG/1.1/DTD/svg11.dtd">
<!-- Creator: CorelDRAW 2020 (64-Bit) -->
<svg xmlns="http://www.w3.org/2000/svg" xml:space="preserve" width="61.1052mm" height="73.2088mm" version="1.1" style="shape-rendering:geometricPrecision; text-rendering:geometricPrecision; image-rendering:optimizeQuality; fill-rule:evenodd; clip-rule:evenodd"
viewBox="0 0 1847.45 2213.39"
 xmlns:xlink="http://www.w3.org/1999/xlink"
 xmlns:xodm="http://www.corel.com/coreldraw/odm/2003">
 <defs>
  <style type="text/css">
   <![CDATA[
    .fil0 {fill:#2B2A29}
   ]]>
  </style>
 </defs>
 <g id="Layer_x0020_1">
  <metadata id="CorelCorpID_0Corel-Layer"/>
  <path class="fil0" d="M354.21 22.86c-46.33,137.93 -37.09,192.25 -2.14,340.21 -285.83,431.51 -174.94,1031.3 442.29,1104.99l-85.96 245.63c-505.21,89.29 -294.09,-300.54 -708.4,-310.85 3.98,6.74 11.66,7.9 14.12,18.76l129.37 160.25c117.95,169.06 135.53,396.47 583.96,335.64l-0.33 295.89 591.9 -0.16c-1.06,-281.9 29.08,-493.11 -62.4,-740.04 704.64,-106.67 640.05,-761.81 504.55,-1013.67 -71.96,-133.77 -62.56,-30.81 -47.02,-183.61 14.75,-145.1 7.57,-145.08 -18.45,-275.9 -201.23,45.64 -213.59,124.68 -306.94,209.26 -198.78,-78.22 -564.03,-109.71 -734.41,5l-200.14 -187.06c-2.85,-1.12 -32.63,-8.76 -38.32,-9.51 -97.76,-12.94 -34.79,-2.23 -61.67,5.18z"/>
 </g>
</svg>
