<?xml version="1.0" encoding="UTF-8"?>
<!DOCTYPE svg PUBLIC "-//W3C//DTD SVG 1.1//EN" "http://www.w3.org/Graphics/SVG/1.1/DTD/svg11.dtd">
<!-- Creator: CorelDRAW 2020 (64-Bit) -->
<svg xmlns="http://www.w3.org/2000/svg" xml:space="preserve" width="143.941mm" height="115.266mm" version="1.1" style="shape-rendering:geometricPrecision; text-rendering:geometricPrecision; image-rendering:optimizeQuality; fill-rule:evenodd; clip-rule:evenodd"
viewBox="0 0 3620.1 2898.91"
 xmlns:xlink="http://www.w3.org/1999/xlink"
 xmlns:xodm="http://www.corel.com/coreldraw/odm/2003">
 <defs>
  <style type="text/css">
   <![CDATA[
    .fil0 {fill:black}
   ]]>
  </style>
 </defs>
 <g id="Layer_x0020_1">
  <metadata id="CorelCorpID_0Corel-Layer"/>
  <path class="fil0" d="M721.19 2531.24l-360.6 0 0 -2163.57c171.54,0 194.09,-20.71 285.69,39.55 28.76,18.92 49.41,30.07 78.99,48.28l615.84 381.1c55.76,33.18 103.5,65.04 157.43,97.11 25.04,14.89 47.35,29.65 74.09,46.1l237.41 144.4c132.84,-70.29 459.29,-286.07 617.39,-379.55 53.26,-31.49 100.93,-63.68 152.89,-94.58l389.28 -239.99c96.05,-63.55 110.85,-42.42 289.89,-42.42l0 2163.57 -360.6 0 0 -1590.86c-94.15,49.82 -698.47,440.37 -814.47,514.79l-203.62 128.7c-21.67,14.43 -47.23,29.89 -70.78,42.35 -46.59,-24.65 -89.78,-54.72 -135.72,-83.46 -23.92,-14.96 -39,-26.48 -64.51,-41.55 -148.96,-88.02 -325.19,-212.19 -476.28,-301.47l-412.35 -259.35 0 1590.86zm-721.19 -2184.78l0 2205.99c0,51.11 14.94,100.59 32.77,136.93 10.77,21.95 19.35,33.89 32.13,52.71l34.74 43.04c1.01,1.04 2.48,2.53 3.51,3.56 55.07,54.71 142.88,110.22 250.38,110.22l2913.04 0c106.57,0 194.09,-54.29 250.38,-110.22l32.52 -38.19c40.26,-56.13 70.63,-118.46 70.63,-198.05l0 -2205.99c0,-51.11 -14.94,-100.59 -32.77,-136.93 -10.77,-21.95 -19.35,-33.89 -32.13,-52.71 -7,-10.3 -10.07,-14.64 -18.12,-24.3l-23.72 -25.77c-55.33,-52.97 -140,-106.74 -246.78,-106.74l-2913.04 0c-105.96,0 -190.26,52.63 -246.78,106.74 -1.05,1.01 -2.56,2.45 -3.59,3.48l-32.52 38.19c-12.24,17.06 -25.5,36.94 -35.5,56.41 -18.22,35.49 -35.13,87.41 -35.13,141.64z"/>
 </g>
</svg>
