<?xml version="1.0" encoding="UTF-8"?>
<!DOCTYPE svg PUBLIC "-//W3C//DTD SVG 1.1//EN" "http://www.w3.org/Graphics/SVG/1.1/DTD/svg11.dtd">
<!-- Creator: CorelDRAW 2020 (64-Bit) -->
<svg xmlns="http://www.w3.org/2000/svg" xml:space="preserve" width="79.386mm" height="79.386mm" version="1.1" style="shape-rendering:geometricPrecision; text-rendering:geometricPrecision; image-rendering:optimizeQuality; fill-rule:evenodd; clip-rule:evenodd"
viewBox="0 0 16718.32 16718.32"
 xmlns:xlink="http://www.w3.org/1999/xlink"
 xmlns:xodm="http://www.corel.com/coreldraw/odm/2003">
 <defs>
  <style type="text/css">
   <![CDATA[
    .fil0 {fill:#090907}
   ]]>
  </style>
 </defs>
 <g id="Layer_x0020_1">
  <metadata id="CorelCorpID_0Corel-Layer"/>
  <g id="_2079900108064">
   <path class="fil0" d="M1504.64 8359.16c0,-529.42 -53.72,-1137.97 23.52,-1648.31 168.86,-1115.5 -318.86,-2932.71 965.56,-4217.13 1282.13,-1282.15 3128.67,-799.23 4170.08,-956.86 368.52,-55.79 2974.36,-64.59 3343.66,-8.7 1144,173.17 3970.73,-473.71 4872.54,1981.98 435.83,1186.77 196,2457.06 301.45,3153.66 55.79,368.52 64.59,2974.36 8.7,3343.66 -168.86,1115.5 318.86,2932.71 -965.56,4217.13 -352.98,353 -511.07,469.84 -1016.42,655.41 -468.03,171.89 -899.56,207.98 -1457.74,269.81 -558.22,61.83 -1148.88,-51.17 -1695.92,31.63 -368.52,55.79 -2974.36,64.59 -3343.66,8.7 -773.37,-117.07 -1952.89,128 -3160.13,-295 -2499.81,-875.91 -1850.84,-3763.55 -2013.86,-4840.64 -79.52,-525.31 -32.22,-1141.01 -32.22,-1695.36zm-1504.64 -2507.75l0 5126.94c0,1287.37 127.52,2516.8 747.11,3543.94 1091.03,1808.72 2917.33,2196.02 4992.86,2196.02l5238.39 0c974.21,0 1760.77,-82.53 2540.71,-301.43 1371.94,-385.03 2465.57,-1502.39 2885.91,-2854.05 231.74,-745.21 313.34,-1633.08 313.34,-2584.49l0 -5238.39c0,-1658.23 -227.32,-3237.25 -1405.53,-4390.15 -214.55,-209.92 -570.19,-475.9 -825.37,-623.57 -1073.36,-621.15 -2287.76,-726.24 -3620.51,-726.24l-5015.5 0c-999.34,0 -1812.61,72.26 -2608.77,289.06 -1397.05,380.44 -2541.67,1528.44 -2941.83,2909.61 -230.05,794.03 -300.81,1654.61 -300.81,2652.74z"/>
   <path class="fil0" d="M5572.77 8470.61c-41.09,-212.36 168.6,-1002.03 229.76,-1163.41 513.09,-1353.73 2105.01,-2074.55 3608.59,-1504.66 332.26,125.94 588.93,320.61 852.32,540.89 1416.65,1184.85 1215.32,4485.01 -1809.16,4789.48 -689.11,69.37 -1479.09,-322.84 -1999.41,-758.02 -407.69,-340.97 -739.48,-1026 -817.19,-1579.11l-64.91 -325.18zm-1504.64 -445.81c0,1416.36 219.31,2365.3 1239.69,3385.7 1670.51,1670.51 4432.17,1670.51 6102.67,0 1670.51,-1670.51 1670.51,-4432.17 0,-6102.67 -1670.51,-1670.51 -4432.17,-1670.51 -6102.67,0 -552.85,552.88 -1239.69,1643.63 -1239.69,2716.97z"/>
   <path class="fil0" d="M11814.27 3733.75c0,1748.26 2006.21,1277.28 2006.21,334.38l0 -334.38c0,-375.3 -460.61,-835.92 -835.92,-835.92l-334.38 0c-354.66,0 -835.92,481.25 -835.92,835.92z"/>
  </g>
 </g>
</svg>
