<?xml version="1.0" encoding="UTF-8"?>
<!DOCTYPE svg PUBLIC "-//W3C//DTD SVG 1.1//EN" "http://www.w3.org/Graphics/SVG/1.1/DTD/svg11.dtd">
<!-- Creator: CorelDRAW 2020 (64-Bit) -->
<svg xmlns="http://www.w3.org/2000/svg" xml:space="preserve" width="79.375mm" height="64.8613mm" version="1.1" style="shape-rendering:geometricPrecision; text-rendering:geometricPrecision; image-rendering:optimizeQuality; fill-rule:evenodd; clip-rule:evenodd"
viewBox="0 0 795.88 650.35"
 xmlns:xlink="http://www.w3.org/1999/xlink"
 xmlns:xodm="http://www.corel.com/coreldraw/odm/2003">
 <defs>
  <style type="text/css">
   <![CDATA[
    .fil0 {fill:black}
   ]]>
  </style>
 </defs>
 <g id="Layer_x0020_1">
  <metadata id="CorelCorpID_0Corel-Layer"/>
  <path class="fil0" d="M-0 561.71l0 10.49c63.64,51.9 180.27,82.55 283.04,77.64 192.93,-9.23 342.87,-129.53 407.56,-307.84 19.27,-53.12 22.4,-92.41 26.22,-153.16 1.66,-26.36 13.42,-20.65 40.19,-49.21 13.58,-14.49 24.9,-32.24 38.86,-48.03l0 -10.65c-17.41,-13.1 -32.7,1.56 -53.64,6.09 10.31,-19.64 35.45,-44.24 30.17,-73.06 -35.88,-10.39 -79.85,55.22 -120.8,22.24 -101.61,-81.84 -285.83,-22.95 -275.03,156.2 -123.68,-9.95 -205.52,-62.21 -282.66,-139.85 -26.93,-27.1 -12.35,-23.2 -35.52,-23.16 -46.58,75.82 -25.62,137.78 12.25,201.08 -14.9,-4.68 -23.39,-15.02 -34.64,-5.43 -17.97,18.17 13.92,126.37 74.94,153.28l-22.63 4.79c-3.17,33.19 27.02,66.79 42.26,82.14 30.57,30.78 40.33,26.04 78.5,45.66 -15.68,16.53 -63.85,31.98 -92.44,38.78 -58.9,14 -99.08,-1.75 -116.64,12.02z"/>
 </g>
</svg>
