<?xml version="1.0" encoding="UTF-8"?>
<!DOCTYPE svg PUBLIC "-//W3C//DTD SVG 1.1//EN" "http://www.w3.org/Graphics/SVG/1.1/DTD/svg11.dtd">
<!-- Creator: CorelDRAW 2020 (64-Bit) -->
<svg xmlns="http://www.w3.org/2000/svg" xml:space="preserve" width="58.1202mm" height="47.2723mm" version="1.1" style="shape-rendering:geometricPrecision; text-rendering:geometricPrecision; image-rendering:optimizeQuality; fill-rule:evenodd; clip-rule:evenodd"
viewBox="0 0 134.57 109.45"
 xmlns:xlink="http://www.w3.org/1999/xlink"
 xmlns:xodm="http://www.corel.com/coreldraw/odm/2003">
 <defs>
  <style type="text/css">
   <![CDATA[
    .fil0 {fill:#2B2A29}
   ]]>
  </style>
 </defs>
 <g id="Layer_x0020_1">
  <metadata id="CorelCorpID_0Corel-Layer"/>
  <path class="fil0" d="M-0 0l134.57 0 0 14.7 -134.57 0 0 -14.7zm38.39 3.88l91.28 0 0 6.33 -91.28 0 0 -6.33zm-30.73 0.05c1.72,0 3.11,1.39 3.11,3.11 0,1.72 -1.39,3.11 -3.11,3.11 -1.72,0 -3.11,-1.39 -3.11,-3.11 0,-1.72 1.39,-3.11 3.11,-3.11zm9.9 0c1.72,0 3.11,1.39 3.11,3.11 0,1.72 -1.39,3.11 -3.11,3.11 -1.72,0 -3.11,-1.39 -3.11,-3.11 0,-1.72 1.39,-3.11 3.11,-3.11zm10.01 0c1.72,0 3.11,1.39 3.11,3.11 0,1.72 -1.39,3.11 -3.11,3.11 -1.72,0 -3.11,-1.39 -3.11,-3.11 0,-1.72 1.39,-3.11 3.11,-3.11z"/>
  <path class="fil0" d="M-0 109.45l134.57 0 0 -94.75 -134.57 0 0 94.75zm7.15 -7.56l120.28 0 0 -79.23 -120.28 0 0 79.23z"/>
  <path class="fil0" d="M71.35 40.57c3.09,0.57 5.95,1.79 8.44,3.51l5.62 -5.58 5.69 5.73 -5.6 5.57c1.7,2.47 2.91,5.31 3.49,8.38l7.71 -0.05 0.05 8.07 -7.73 0.05c-0.57,3.16 -1.82,6.09 -3.58,8.63l5.72 5.3 -5.48 5.93 -5.98 -5.53c-2.49,1.69 -5.33,2.89 -8.4,3.45l-0.04 8.07 -8.07 -0.04 0.04 -8.04c-2.94,-0.55 -5.67,-1.68 -8.08,-3.27l-5.42 5.4 -5.7 -5.72 5.3 -5.28c-1.86,-2.6 -3.18,-5.63 -3.77,-8.91l-7.64 0.05 -0.05 -8.07 7.72 -0.05c0.56,-2.95 1.7,-5.69 3.31,-8.09l-5.41 -5.77 5.89 -5.52 5.16 5.5c2.57,-1.82 5.54,-3.11 8.75,-3.7l0 -8 8.07 0 0 8.01zm-4.06 12.06c5.33,0 9.65,4.32 9.65,9.65 0,5.33 -4.32,9.65 -9.65,9.65 -5.33,0 -9.65,-4.32 -9.65,-9.65 0,-5.33 4.32,-9.65 9.65,-9.65z"/>
 </g>
</svg>
