<?xml version="1.0" encoding="UTF-8"?>
<!DOCTYPE svg PUBLIC "-//W3C//DTD SVG 1.1//EN" "http://www.w3.org/Graphics/SVG/1.1/DTD/svg11.dtd">
<!-- Creator: CorelDRAW 2020 (64-Bit) -->
<svg xmlns="http://www.w3.org/2000/svg" xml:space="preserve" width="1044.08mm" height="832.454mm" version="1.1" style="shape-rendering:geometricPrecision; text-rendering:geometricPrecision; image-rendering:optimizeQuality; fill-rule:evenodd; clip-rule:evenodd"
viewBox="0 0 15086.91 12028.97"
 xmlns:xlink="http://www.w3.org/1999/xlink"
 xmlns:xodm="http://www.corel.com/coreldraw/odm/2003">
 <defs>
  <style type="text/css">
   <![CDATA[
    .fil13 {fill:#FEFEFE}
    .fil15 {fill:#EBECEC}
    .fil11 {fill:#00CFAD}
    .fil7 {fill:#02A388}
    .fil9 {fill:#02A388}
    .fil17 {fill:#039E84}
    .fil0 {fill:#04B597}
    .fil3 {fill:#04B597}
    .fil5 {fill:#04E0BB}
    .fil4 {fill:#04E0BB}
    .fil18 {fill:#13F7D2}
    .fil6 {fill:#252628}
    .fil12 {fill:#5CFAE0}
    .fil14 {fill:#87FAE7}
    .fil16 {fill:#87FAE7}
    .fil1 {fill:#8BF7E5}
    .fil2 {fill:#99FAEA}
    .fil8 {fill:#D3F2ED}
    .fil10 {fill:#D3F2ED}
   ]]>
  </style>
 </defs>
 <g id="Layer_x0020_1">
  <metadata id="CorelCorpID_0Corel-Layer"/>
  <g id="_2088945640080">
   <path class="fil0" d="M3805.01 3365.36l9054.81 0c184.77,0 335.94,151.17 335.94,335.94l0 5301.27 -9726.69 0 0 -5301.27c0,-184.77 151.17,-335.94 335.94,-335.94z"/>
   <rect class="fil1" x="3801.35" y="3725.87" width="9062.13" height="4916.17"/>
   <path class="fil2" d="M3827.09 10141.48l9010.67 0c196.91,0 358.01,-161.1 358.01,-358.01l0 -729.7c0,-28.17 -23.04,-51.21 -51.21,-51.21l-9624.26 0c-28.17,0 -51.21,23.04 -51.21,51.21l0 729.7c0,196.91 161.1,358.01 358.01,358.01z"/>
   <circle class="fil3" cx="8332.42" cy="9572.02" r="185.25"/>
   <polygon class="fil4" points="7131.25,10141.48 9540.17,10141.48 9783.2,11228.55 10203.85,11228.55 10203.85,11666.09 6442.98,11666.09 6442.98,11228.55 6878.36,11228.55 "/>
   <rect class="fil2" x="6442.98" y="11228.55" width="3760.87" height="437.54"/>
   <g>
    <rect class="fil5" x="9192.55" y="0" width="1514.18" height="8642.04"/>
    <circle class="fil6" cx="9949.64" cy="747.26" r="186.81"/>
    <rect class="fil4" x="11473.63" y="2433.51" width="757.09" height="6208.53"/>
    <rect class="fil7" x="11473.63" y="2433.51" width="378.54" height="6208.53"/>
    <polygon class="fil8" points="11473.63,2433.51 11832.5,1120.9 12230.72,2433.51 "/>
    <polygon class="fil9" points="11724.37,1516.42 11953.07,1518.32 11832.5,1120.9 "/>
    <rect class="fil10" x="9192.55" y="1504.37" width="575.13" height="78.66"/>
    <rect class="fil10" x="9192.55" y="1878" width="383.4" height="78.66"/>
    <rect class="fil10" x="9192.55" y="2236.88" width="575.13" height="78.66"/>
    <rect class="fil10" x="9192.55" y="2610.51" width="383.4" height="78.66"/>
    <rect class="fil10" x="9192.55" y="3003.81" width="575.13" height="78.66"/>
    <rect class="fil10" x="9192.55" y="3377.43" width="383.4" height="78.66"/>
    <rect class="fil10" x="9192.55" y="3731.4" width="575.13" height="78.66"/>
    <rect class="fil10" x="9192.55" y="4105.03" width="383.4" height="78.66"/>
    <rect class="fil10" x="9192.55" y="4498.32" width="575.13" height="78.66"/>
    <rect class="fil10" x="9192.55" y="4871.95" width="383.4" height="78.66"/>
    <rect class="fil10" x="9192.55" y="5265.24" width="575.13" height="78.66"/>
    <rect class="fil10" x="9192.55" y="5638.87" width="383.4" height="78.66"/>
    <rect class="fil10" x="9192.55" y="6022.33" width="575.13" height="78.66"/>
    <rect class="fil10" x="9192.55" y="6395.96" width="383.4" height="78.66"/>
    <rect class="fil10" x="9192.55" y="6749.93" width="575.13" height="78.66"/>
    <rect class="fil10" x="9192.55" y="7123.55" width="383.4" height="78.66"/>
    <rect class="fil10" x="9192.55" y="7526.68" width="575.13" height="78.66"/>
    <rect class="fil10" x="9192.55" y="7900.31" width="383.4" height="78.66"/>
   </g>
   <g>
    <rect class="fil11" x="4268.07" y="2610.5" width="4407.75" height="6031.54"/>
    <rect class="fil12" x="4268.07" y="2610.51" width="4407.75" height="383.46"/>
    <rect class="fil13" x="4408.66" y="3274.47" width="1114.62" height="157.05"/>
    <rect class="fil14" x="4408.66" y="3696.55" width="2181.61" height="157.05"/>
    <rect class="fil13" x="6704.58" y="3696.55" width="628.76" height="157.05"/>
    <rect class="fil13" x="4446.76" y="4059.73" width="2886.58" height="157.05"/>
    <rect class="fil13" x="4446.76" y="4491.64" width="1886.28" height="157.05"/>
    <rect class="fil13" x="6437.83" y="4491.64" width="1886.28" height="157.05"/>
    <rect class="fil13" x="4446.76" y="5306.34" width="2619.83" height="157.05"/>
    <rect class="fil15" x="4446.76" y="5679.33" width="2619.83" height="157.05"/>
    <rect class="fil16" x="7204.73" y="5679.33" width="1000.3" height="157.05"/>
    <rect class="fil16" x="4446.76" y="6071.95" width="1981.55" height="157.05"/>
    <rect class="fil15" x="6561.25" y="6071.95" width="990.77" height="157.05"/>
    <rect class="fil13" x="4446.76" y="6631.44" width="3572.5" height="157.05"/>
    <rect class="fil13" x="4446.76" y="7146.77" width="2057.76" height="157.05"/>
    <rect class="fil13" x="4446.76" y="7613.02" width="1243.23" height="157.05"/>
   </g>
   <g>
    <circle class="fil17" cx="14377.92" cy="9924.05" r="708.98"/>
    <circle class="fil10" cx="14377.92" cy="9924.05" r="534.88"/>
    <circle class="fil13" cx="14189.14" cy="9726.87" r="109.07"/>
    <rect class="fil11" x="14312.03" y="10630.66" width="131.78" height="235.21"/>
    <rect class="fil17" x="14270.95" y="10864.82" width="213.95" height="1164.16"/>
   </g>
   <g>
    <path class="fil18" d="M1606.91 2380.75c148.31,27.36 285.58,85.91 405.09,168.47l269.74 -267.82 273.1 275.02 -268.78 267.34c81.59,118.55 139.67,254.86 167.5,402.21l370.05 -2.4 2.4 387.33 -371.01 2.4c-27.36,151.67 -87.36,292.29 -171.83,414.21l274.53 254.37 -263.02 284.61 -287.01 -265.42c-119.51,81.11 -255.82,138.71 -403.16,165.58l-1.92 387.33 -387.33 -1.92 1.92 -385.88c-141.11,-26.39 -272.13,-80.64 -387.8,-156.95l-260.14 259.18 -273.58 -274.53 254.37 -253.42c-89.27,-124.79 -152.62,-270.22 -180.94,-427.65l-366.69 2.4 -2.4 -387.33 370.53 -2.4c26.88,-141.59 81.59,-273.1 158.87,-388.28l-259.66 -276.93 282.7 -264.94 247.66 263.98c123.35,-87.36 265.9,-149.27 419.97,-177.58l0 -383.97 387.33 0 0 384.45 -0.48 -1.44zm-194.86 578.84c255.82,0 463.16,207.34 463.16,463.16 0,255.82 -207.34,463.16 -463.16,463.16 -255.82,0 -463.16,-207.34 -463.16,-463.16 0,-255.82 207.34,-463.16 463.16,-463.16z"/>
    <path class="fil18" d="M3520.01 1266.73c72.07,13.29 138.77,41.75 196.85,81.87l131.08 -130.14 132.71 133.64 -130.61 129.91c39.65,57.61 67.87,123.85 81.4,195.45l179.82 -1.17 1.17 188.22 -180.29 1.17c-13.3,73.7 -42.45,142.03 -83.5,201.28l133.4 123.61 -127.81 138.3 -139.47 -128.98c-58.07,39.42 -124.31,67.4 -195.91,80.46l-0.93 188.22 -188.22 -0.93 0.93 -187.51c-68.57,-12.83 -132.24,-39.18 -188.45,-76.27l-126.41 125.94 -132.94 -133.4 123.61 -123.14c-43.38,-60.64 -74.17,-131.31 -87.93,-207.81l-178.19 1.17 -1.17 -188.22 180.05 -1.17c13.06,-68.8 39.65,-132.71 77.2,-188.68l-126.18 -134.57 137.37 -128.75 120.35 128.28c59.94,-42.45 129.21,-72.53 204.08,-86.29l0 -186.59 188.22 0 0 186.82 -0.23 -0.7zm-94.69 281.28c124.31,0 225.07,100.76 225.07,225.07 0,124.31 -100.76,225.07 -225.07,225.07 -124.31,0 -225.07,-100.76 -225.07,-225.07 0,-124.31 100.76,-225.07 225.07,-225.07z"/>
    <path class="fil18" d="M1819.65 605c44.97,8.3 86.59,26.05 122.83,51.08l81.79 -81.21 82.81 83.39 -81.5 81.06c24.74,35.95 42.35,77.28 50.79,121.95l112.2 -0.73 0.73 117.44 -112.5 0.73c-8.3,45.99 -26.49,88.63 -52.1,125.59l83.24 77.13 -79.75 86.3 -87.03 -80.48c-36.24,24.59 -77.57,42.06 -122.24,50.21l-0.58 117.44 -117.44 -0.58 0.58 -117c-42.79,-8 -82.51,-24.45 -117.59,-47.59l-78.88 78.58 -82.95 -83.24 77.13 -76.84c-27.07,-37.84 -46.28,-81.93 -54.86,-129.67l-111.19 0.73 -0.73 -117.44 112.35 -0.73c8.15,-42.93 24.74,-82.81 48.17,-117.73l-78.73 -83.97 85.72 -80.33 75.09 80.04c37.4,-26.49 80.62,-45.26 127.34,-53.85l0 -116.43 117.44 0 0 116.57 -0.14 -0.44zm-59.09 175.51c77.57,0 140.44,62.87 140.44,140.44 0,77.57 -62.87,140.44 -140.44,140.44 -77.57,0 -140.44,-62.87 -140.44,-140.44 0,-77.57 62.87,-140.44 140.44,-140.44z"/>
   </g>
  </g>
 </g>
</svg>
